NotoNaskhArabicUI-Bold.ufo
<glyph name="uni0021" format="2">
  <advance width="260"/>
  <unicode hex="0021"/>
  <outline>
    <contour>
      <point x="117" y="292" type="curve"/>
      <point x="179" y="307" type="line"/>
      <point x="183" y="430"/>
      <point x="185" y="561"/>
      <point x="185" y="776" type="curve"/>
      <point x="130" y="756"/>
      <point x="89" y="737"/>
      <point x="61" y="718" type="curve"/>
      <point x="80" y="594"/>
      <point x="96" y="477"/>
    </contour>
    <contour>
      <point x="162" y="78" type="curve"/>
      <point x="198" y="130"/>
      <point x="216" y="161"/>
      <point x="216" y="170" type="curve" smooth="yes"/>
      <point x="216" y="176"/>
      <point x="208" y="185"/>
      <point x="193" y="198" type="curve" smooth="yes"/>
      <point x="178" y="211"/>
      <point x="153" y="228"/>
      <point x="118" y="249" type="curve"/>
      <point x="106" y="232"/>
      <point x="96" y="215"/>
      <point x="87" y="198" type="curve" smooth="yes"/>
      <point x="79" y="181"/>
      <point x="69" y="164"/>
      <point x="59" y="147" type="curve"/>
      <point x="94" y="127"/>
      <point x="129" y="104"/>
    </contour>
  </outline>
</glyph>
<glyph name="uni002C" format="2">
  <advance width="268"/>
  <unicode hex="002C"/>
  <outline>
    <contour>
      <point x="41" y="-129" type="curve"/>
      <point x="106" y="-129" type="line"/>
      <point x="145" y="-43"/>
      <point x="174" y="35"/>
      <point x="192" y="105" type="curve"/>
      <point x="185" y="116" type="line"/>
      <point x="91" y="116" type="line"/>
      <point x="79" y="34"/>
      <point x="62" y="-48"/>
    </contour>
  </outline>
</glyph>
<glyph name="uni002E" format="2">
  <advance width="245"/>
  <unicode hex="002E"/>
  <outline>
    <contour>
      <point x="162" y="78" type="curve"/>
      <point x="198" y="130"/>
      <point x="216" y="161"/>
      <point x="216" y="170" type="curve" smooth="yes"/>
      <point x="216" y="189"/>
      <point x="154" y="227"/>
      <point x="118" y="249" type="curve"/>
      <point x="106" y="232"/>
      <point x="96" y="215"/>
      <point x="87" y="199" type="curve" smooth="yes"/>
      <point x="79" y="182"/>
      <point x="69" y="165"/>
      <point x="59" y="147" type="curve"/>
      <point x="93" y="128"/>
      <point x="127" y="105"/>
    </contour>
  </outline>
</glyph>
<glyph name="uni0030" format="2">
  <advance width="572"/>
  <unicode hex="0030"/>
  <outline>
    <contour>
      <point x="285" y="-10" type="curve" smooth="yes"/>
      <point x="455" y="-10"/>
      <point x="535" y="108"/>
      <point x="535" y="357" type="curve" smooth="yes"/>
      <point x="535" y="598"/>
      <point x="450" y="725"/>
      <point x="285" y="725" type="curve" smooth="yes"/>
      <point x="116" y="725"/>
      <point x="36" y="609"/>
      <point x="36" y="357" type="curve" smooth="yes"/>
      <point x="36" y="115"/>
      <point x="120" y="-10"/>
    </contour>
    <contour>
      <point x="285" y="112" type="curve" smooth="yes"/>
      <point x="249" y="112"/>
      <point x="224" y="131"/>
      <point x="209" y="169" type="curve" smooth="yes"/>
      <point x="194" y="207"/>
      <point x="186" y="269"/>
      <point x="186" y="357" type="curve" smooth="yes"/>
      <point x="186" y="444"/>
      <point x="194" y="507"/>
      <point x="209" y="546" type="curve" smooth="yes"/>
      <point x="224" y="584"/>
      <point x="250" y="603"/>
      <point x="285" y="603" type="curve" smooth="yes"/>
      <point x="320" y="603"/>
      <point x="345" y="584"/>
      <point x="361" y="546" type="curve" smooth="yes"/>
      <point x="377" y="507"/>
      <point x="385" y="444"/>
      <point x="385" y="357" type="curve" smooth="yes"/>
      <point x="385" y="270"/>
      <point x="377" y="208"/>
      <point x="361" y="169" type="curve" smooth="yes"/>
      <point x="346" y="131"/>
      <point x="320" y="112"/>
    </contour>
  </outline>
</glyph>
<glyph name="uni0031" format="2">
  <advance width="572"/>
  <unicode hex="0031"/>
  <outline>
    <contour>
      <point x="262" y="0" type="line"/>
      <point x="413" y="0" type="line"/>
      <point x="413" y="714" type="line"/>
      <point x="289" y="714" type="line"/>
      <point x="59" y="531" type="line"/>
      <point x="132" y="440" type="line"/>
      <point x="159" y="462"/>
      <point x="187" y="484"/>
      <point x="214" y="506" type="curve" smooth="yes"/>
      <point x="224" y="514"/>
      <point x="241" y="530"/>
      <point x="266" y="555" type="curve"/>
      <point x="264" y="485"/>
      <point x="262" y="450"/>
      <point x="262" y="413" type="curve" smooth="yes"/>
    </contour>
  </outline>
</glyph>
<glyph name="uni0033" format="2">
  <advance width="572"/>
  <unicode hex="0033"/>
  <outline>
    <contour>
      <point x="244" y="-10" type="curve" smooth="yes"/>
      <point x="429" y="-10"/>
      <point x="532" y="71"/>
      <point x="532" y="208" type="curve" smooth="yes"/>
      <point x="532" y="302"/>
      <point x="472" y="359"/>
      <point x="357" y="373" type="curve"/>
      <point x="357" y="376" type="line"/>
      <point x="455" y="399"/>
      <point x="511" y="465"/>
      <point x="511" y="554" type="curve" smooth="yes"/>
      <point x="511" y="661"/>
      <point x="420" y="724"/>
      <point x="272" y="724" type="curve" smooth="yes"/>
      <point x="182" y="724"/>
      <point x="104" y="701"/>
      <point x="39" y="654" type="curve"/>
      <point x="109" y="550" type="line"/>
      <point x="168" y="588"/>
      <point x="214" y="602"/>
      <point x="261" y="602" type="curve" smooth="yes"/>
      <point x="329" y="602"/>
      <point x="363" y="575"/>
      <point x="363" y="521" type="curve" smooth="yes"/>
      <point x="363" y="451"/>
      <point x="314" y="425"/>
      <point x="203" y="425" type="curve" smooth="yes"/>
      <point x="148" y="425" type="line"/>
      <point x="148" y="309" type="line"/>
      <point x="202" y="309" type="line" smooth="yes"/>
      <point x="322" y="309"/>
      <point x="374" y="284"/>
      <point x="374" y="217" type="curve" smooth="yes"/>
      <point x="374" y="142"/>
      <point x="328" y="110"/>
      <point x="228" y="110" type="curve" smooth="yes"/>
      <point x="163" y="110"/>
      <point x="93" y="129"/>
      <point x="38" y="157" type="curve"/>
      <point x="38" y="29" type="line"/>
      <point x="98" y="3"/>
      <point x="167" y="-10"/>
    </contour>
  </outline>
</glyph>
<glyph name="uni0035" format="2">
  <advance width="572"/>
  <unicode hex="0035"/>
  <outline>
    <contour>
      <point x="241" y="-10" type="curve" smooth="yes"/>
      <point x="424" y="-10"/>
      <point x="526" y="79"/>
      <point x="526" y="239" type="curve" smooth="yes"/>
      <point x="526" y="374"/>
      <point x="438" y="456"/>
      <point x="300" y="456" type="curve" smooth="yes"/>
      <point x="268" y="456"/>
      <point x="244" y="453"/>
      <point x="209" y="446" type="curve"/>
      <point x="222" y="586" type="line"/>
      <point x="477" y="586" type="line"/>
      <point x="477" y="714" type="line"/>
      <point x="90" y="714" type="line"/>
      <point x="63" y="350" type="line"/>
      <point x="123" y="318" type="line"/>
      <point x="149" y="326"/>
      <point x="196" y="334"/>
      <point x="231" y="334" type="curve" smooth="yes"/>
      <point x="326" y="334"/>
      <point x="374" y="298"/>
      <point x="374" y="226" type="curve" smooth="yes"/>
      <point x="374" y="151"/>
      <point x="328" y="113"/>
      <point x="236" y="113" type="curve" smooth="yes"/>
      <point x="175" y="113"/>
      <point x="100" y="132"/>
      <point x="49" y="159" type="curve"/>
      <point x="49" y="29" type="line"/>
      <point x="98" y="3"/>
      <point x="162" y="-10"/>
    </contour>
  </outline>
</glyph>
<glyph name="uni0038" format="2">
  <advance width="572"/>
  <unicode hex="0038"/>
  <outline>
    <contour>
      <point x="286" y="-10" type="curve" smooth="yes"/>
      <point x="436" y="-10"/>
      <point x="536" y="68"/>
      <point x="536" y="185" type="curve" smooth="yes"/>
      <point x="536" y="259"/>
      <point x="493" y="320"/>
      <point x="386" y="377" type="curve"/>
      <point x="476" y="422"/>
      <point x="514" y="478"/>
      <point x="514" y="551" type="curve" smooth="yes"/>
      <point x="514" y="656"/>
      <point x="423" y="723"/>
      <point x="286" y="723" type="curve" smooth="yes"/>
      <point x="150" y="723"/>
      <point x="57" y="654"/>
      <point x="57" y="552" type="curve" smooth="yes"/>
      <point x="57" y="482"/>
      <point x="90" y="424"/>
      <point x="172" y="373" type="curve"/>
      <point x="76" y="325"/>
      <point x="35" y="263"/>
      <point x="35" y="181" type="curve" smooth="yes"/>
      <point x="35" y="59"/>
      <point x="130" y="-10"/>
    </contour>
    <contour>
      <point x="284" y="101" type="curve" smooth="yes"/>
      <point x="216" y="101"/>
      <point x="175" y="134"/>
      <point x="175" y="190" type="curve" smooth="yes"/>
      <point x="175" y="239"/>
      <point x="209" y="279"/>
      <point x="279" y="311" type="curve"/>
      <point x="361" y="268"/>
      <point x="396" y="233"/>
      <point x="396" y="189" type="curve" smooth="yes"/>
      <point x="396" y="136"/>
      <point x="359" y="101"/>
    </contour>
    <contour>
      <point x="286" y="440" type="curve"/>
      <point x="257" y="454"/>
      <point x="237" y="467"/>
      <point x="224" y="481" type="curve" smooth="yes"/>
      <point x="206" y="500"/>
      <point x="199" y="518"/>
      <point x="199" y="540" type="curve" smooth="yes"/>
      <point x="199" y="584"/>
      <point x="234" y="613"/>
      <point x="285" y="613" type="curve" smooth="yes"/>
      <point x="336" y="613"/>
      <point x="372" y="585"/>
      <point x="372" y="540" type="curve" smooth="yes"/>
      <point x="372" y="499"/>
      <point x="350" y="470"/>
    </contour>
  </outline>
</glyph>
<glyph name="uni0039" format="2">
  <advance width="572"/>
  <unicode hex="0039"/>
  <outline>
    <contour>
      <point x="178" y="-10" type="curve" smooth="yes"/>
      <point x="418" y="-10"/>
      <point x="536" y="128"/>
      <point x="536" y="409" type="curve" smooth="yes"/>
      <point x="536" y="474"/>
      <point x="526" y="530"/>
      <point x="504" y="577" type="curve" smooth="yes"/>
      <point x="462" y="671"/>
      <point x="380" y="722"/>
      <point x="275" y="722" type="curve" smooth="yes"/>
      <point x="125" y="722"/>
      <point x="32" y="627"/>
      <point x="32" y="474" type="curve" smooth="yes"/>
      <point x="32" y="332"/>
      <point x="109" y="248"/>
      <point x="233" y="248" type="curve" smooth="yes"/>
      <point x="307" y="248"/>
      <point x="353" y="270"/>
      <point x="391" y="331" type="curve"/>
      <point x="397" y="331" type="line"/>
      <point x="394" y="275"/>
      <point x="384" y="232"/>
      <point x="367" y="200" type="curve" smooth="yes"/>
      <point x="333" y="136"/>
      <point x="269" y="108"/>
      <point x="168" y="108" type="curve" smooth="yes"/>
      <point x="138" y="108"/>
      <point x="109" y="111"/>
      <point x="82" y="118" type="curve"/>
      <point x="82" y="-3" type="line"/>
      <point x="104" y="-7"/>
      <point x="136" y="-10"/>
    </contour>
    <contour>
      <point x="275" y="364" type="curve" smooth="yes"/>
      <point x="210" y="364"/>
      <point x="178" y="407"/>
      <point x="178" y="476" type="curve" smooth="yes"/>
      <point x="178" y="557"/>
      <point x="215" y="601"/>
      <point x="278" y="601" type="curve" smooth="yes"/>
      <point x="296" y="601"/>
      <point x="312" y="596"/>
      <point x="327" y="587" type="curve" smooth="yes"/>
      <point x="363" y="565"/>
      <point x="386" y="519"/>
      <point x="386" y="463" type="curve" smooth="yes"/>
      <point x="386" y="443"/>
      <point x="379" y="424"/>
      <point x="367" y="409" type="curve" smooth="yes"/>
      <point x="347" y="382"/>
      <point x="313" y="364"/>
    </contour>
  </outline>
</glyph>
<glyph name="uni003A" format="2">
  <advance width="274"/>
  <unicode hex="003A"/>
  <outline>
    <contour>
      <point x="162" y="415" type="curve"/>
      <point x="198" y="467"/>
      <point x="216" y="498"/>
      <point x="216" y="507" type="curve" smooth="yes"/>
      <point x="216" y="526"/>
      <point x="154" y="564"/>
      <point x="118" y="586" type="curve"/>
      <point x="106" y="569"/>
      <point x="96" y="552"/>
      <point x="87" y="535" type="curve" smooth="yes"/>
      <point x="79" y="518"/>
      <point x="69" y="501"/>
      <point x="59" y="484" type="curve"/>
      <point x="94" y="464"/>
      <point x="129" y="441"/>
    </contour>
    <contour>
      <point x="162" y="78" type="curve"/>
      <point x="198" y="130"/>
      <point x="216" y="161"/>
      <point x="216" y="170" type="curve" smooth="yes"/>
      <point x="216" y="185"/>
      <point x="183" y="211"/>
      <point x="118" y="249" type="curve"/>
      <point x="106" y="232"/>
      <point x="96" y="215"/>
      <point x="87" y="199" type="curve" smooth="yes"/>
      <point x="79" y="182"/>
      <point x="69" y="165"/>
      <point x="59" y="147" type="curve"/>
      <point x="93" y="128"/>
      <point x="127" y="105"/>
    </contour>
  </outline>
</glyph>
<glyph name="uni00AB" format="2">
  <advance width="485"/>
  <unicode hex="00AB"/>
  <outline>
    <contour>
      <point x="382" y="251" type="curve" smooth="yes"/>
      <point x="412" y="251"/>
      <point x="436" y="262"/>
      <point x="456" y="284" type="curve"/>
      <point x="425" y="316"/>
      <point x="392" y="352"/>
      <point x="357" y="393" type="curve" smooth="yes"/>
      <point x="329" y="426" type="line"/>
      <point x="423" y="560" type="line"/>
      <point x="379" y="608" type="line"/>
      <point x="240" y="416" type="line"/>
      <point x="288" y="332"/>
      <point x="318" y="284"/>
      <point x="329" y="271" type="curve" smooth="yes"/>
      <point x="341" y="258"/>
      <point x="359" y="251"/>
    </contour>
    <contour>
      <point x="199" y="226" type="curve" smooth="yes"/>
      <point x="229" y="226"/>
      <point x="254" y="237"/>
      <point x="274" y="259" type="curve"/>
      <point x="243" y="290"/>
      <point x="210" y="327"/>
      <point x="175" y="368" type="curve" smooth="yes"/>
      <point x="146" y="401" type="line"/>
      <point x="241" y="535" type="line"/>
      <point x="197" y="583" type="line"/>
      <point x="59" y="390" type="line"/>
      <point x="106" y="308"/>
      <point x="135" y="260"/>
      <point x="147" y="246" type="curve" smooth="yes"/>
      <point x="159" y="233"/>
      <point x="176" y="226"/>
    </contour>
  </outline>
</glyph>
<glyph name="uni00BB" format="2">
  <advance width="485"/>
  <unicode hex="00BB"/>
  <outline>
    <contour>
      <point x="288" y="240" type="line"/>
      <point x="426" y="433" type="line"/>
      <point x="379" y="515"/>
      <point x="350" y="563"/>
      <point x="338" y="577" type="curve" smooth="yes"/>
      <point x="326" y="591"/>
      <point x="309" y="597"/>
      <point x="286" y="597" type="curve" smooth="yes"/>
      <point x="256" y="597"/>
      <point x="231" y="586"/>
      <point x="211" y="565" type="curve"/>
      <point x="242" y="533"/>
      <point x="275" y="497"/>
      <point x="310" y="455" type="curve" smooth="yes"/>
      <point x="338" y="423" type="line"/>
      <point x="244" y="288" type="line"/>
    </contour>
    <contour>
      <point x="106" y="215" type="line"/>
      <point x="245" y="407" type="line"/>
      <point x="198" y="487"/>
      <point x="169" y="534"/>
      <point x="157" y="550" type="curve" smooth="yes"/>
      <point x="146" y="565"/>
      <point x="128" y="572"/>
      <point x="103" y="572" type="curve" smooth="yes"/>
      <point x="73" y="572"/>
      <point x="49" y="561"/>
      <point x="29" y="539" type="curve"/>
      <point x="66" y="500"/>
      <point x="99" y="464"/>
      <point x="128" y="430" type="curve" smooth="yes"/>
      <point x="156" y="397" type="line"/>
      <point x="62" y="263" type="line"/>
    </contour>
  </outline>
</glyph>
<glyph name="uni0600" format="2">
  <advance width="66"/>
  <unicode hex="0600"/>
  <outline>
    <contour>
      <point x="393" y="-45" type="curve" smooth="yes"/>
      <point x="870" y="-45" type="line" smooth="yes"/>
      <point x="1000" y="-45"/>
      <point x="1118" y="-38"/>
      <point x="1225" y="-25" type="curve"/>
      <point x="1236" y="-6"/>
      <point x="1259" y="52"/>
      <point x="1266" y="90" type="curve"/>
      <point x="1218" y="79"/>
      <point x="1169" y="74"/>
      <point x="1120" y="74" type="curve" smooth="yes"/>
      <point x="1084" y="74"/>
      <point x="1067" y="81"/>
      <point x="1067" y="96" type="curve" smooth="yes"/>
      <point x="1067" y="103"/>
      <point x="1079" y="112"/>
      <point x="1104" y="124" type="curve" smooth="yes"/>
      <point x="1145" y="143"/>
      <point x="1170" y="156"/>
      <point x="1180" y="163" type="curve" smooth="yes"/>
      <point x="1201" y="177"/>
      <point x="1213" y="208"/>
      <point x="1213" y="239" type="curve" smooth="yes"/>
      <point x="1213" y="263"/>
      <point x="1208" y="282"/>
      <point x="1197" y="296" type="curve"/>
      <point x="1148" y="272"/>
      <point x="1067" y="218"/>
      <point x="1042" y="177" type="curve" smooth="yes"/>
      <point x="1024" y="146"/>
      <point x="1014" y="108"/>
      <point x="1014" y="71" type="curve"/>
      <point x="385" y="71" type="line" smooth="yes"/>
      <point x="256" y="71"/>
      <point x="134" y="77"/>
      <point x="19" y="89" type="curve"/>
      <point x="18" y="72" type="line" smooth="yes"/>
      <point x="18" y="19"/>
      <point x="41" y="-18"/>
      <point x="81" y="-25" type="curve" smooth="yes"/>
      <point x="177" y="-42"/>
      <point x="277" y="-44"/>
    </contour>
  </outline>
</glyph>
<glyph name="uni0608" format="2">
  <advance width="836"/>
  <unicode hex="0608"/>
  <outline>
    <contour>
      <point x="361" y="-117" type="curve" smooth="yes"/>
      <point x="444" y="-117"/>
      <point x="543" y="-81"/>
      <point x="608" y="-27" type="curve" smooth="yes"/>
      <point x="674" y="27"/>
      <point x="710" y="100"/>
      <point x="710" y="185" type="curve" smooth="yes"/>
      <point x="710" y="195" type="line"/>
      <point x="763" y="224"/>
      <point x="795" y="246"/>
      <point x="806" y="260" type="curve" smooth="yes"/>
      <point x="818" y="275"/>
      <point x="824" y="290"/>
      <point x="824" y="307" type="curve" smooth="yes"/>
      <point x="824" y="332"/>
      <point x="812" y="351"/>
      <point x="787" y="365" type="curve"/>
      <point x="766" y="350"/>
      <point x="736" y="330"/>
      <point x="697" y="304" type="curve"/>
      <point x="685" y="351"/>
      <point x="669" y="388"/>
      <point x="652" y="415" type="curve" smooth="yes"/>
      <point x="617" y="470"/>
      <point x="569" y="501"/>
      <point x="520" y="501" type="curve" smooth="yes"/>
      <point x="496" y="501"/>
      <point x="472" y="490"/>
      <point x="449" y="468" type="curve" smooth="yes"/>
      <point x="404" y="425"/>
      <point x="374" y="348"/>
      <point x="374" y="273" type="curve" smooth="yes"/>
      <point x="374" y="185"/>
      <point x="421" y="135"/>
      <point x="503" y="135" type="curve" smooth="yes"/>
      <point x="546" y="135"/>
      <point x="590" y="144"/>
      <point x="637" y="161" type="curve"/>
      <point x="640" y="142"/>
      <point x="642" y="123"/>
      <point x="644" y="104" type="curve"/>
      <point x="618" y="83"/>
      <point x="590" y="66"/>
      <point x="563" y="52" type="curve" smooth="yes"/>
      <point x="498" y="18"/>
      <point x="433" y="1"/>
      <point x="372" y="1" type="curve" smooth="yes"/>
      <point x="281" y="1"/>
      <point x="236" y="46"/>
      <point x="236" y="135" type="curve" smooth="yes"/>
      <point x="236" y="160"/>
      <point x="244" y="197"/>
      <point x="254" y="225" type="curve"/>
      <point x="214" y="245" type="line"/>
      <point x="159" y="218"/>
      <point x="65" y="160"/>
      <point x="54" y="148" type="curve" smooth="yes"/>
      <point x="43" y="137"/>
      <point x="37" y="119"/>
      <point x="37" y="100" type="curve" smooth="yes"/>
      <point x="37" y="81"/>
      <point x="42" y="64"/>
      <point x="51" y="49" type="curve"/>
      <point x="106" y="79"/>
      <point x="148" y="101"/>
      <point x="178" y="114" type="curve"/>
      <point x="178" y="106"/>
      <point x="178" y="97"/>
      <point x="177" y="88" type="curve" smooth="yes"/>
      <point x="177" y="-45"/>
      <point x="241" y="-117"/>
    </contour>
    <contour>
      <point x="520" y="245" type="curve" smooth="yes"/>
      <point x="462" y="245"/>
      <point x="427" y="267"/>
      <point x="427" y="306" type="curve" smooth="yes"/>
      <point x="427" y="316"/>
      <point x="429" y="325"/>
      <point x="433" y="334" type="curve" smooth="yes"/>
      <point x="443" y="361"/>
      <point x="470" y="381"/>
      <point x="502" y="381" type="curve" smooth="yes"/>
      <point x="515" y="381"/>
      <point x="528" y="377"/>
      <point x="540" y="370" type="curve" smooth="yes"/>
      <point x="567" y="353"/>
      <point x="591" y="318"/>
      <point x="612" y="263" type="curve"/>
      <point x="577" y="251"/>
      <point x="546" y="245"/>
    </contour>
  </outline>
</glyph>
<glyph name="uni0609" format="2">
  <advance width="680"/>
  <unicode hex="0609"/>
  <outline>
    <contour>
      <point x="111" y="86" type="curve"/>
      <point x="187" y="246"/>
      <point x="297" y="460"/>
      <point x="352" y="561" type="curve" smooth="yes"/>
      <point x="360" y="576"/>
      <point x="364" y="591"/>
      <point x="364" y="607" type="curve" smooth="yes"/>
      <point x="363" y="633"/>
      <point x="353" y="656"/>
      <point x="334" y="668" type="curve"/>
      <point x="255" y="524"/>
      <point x="167" y="352"/>
      <point x="71" y="152" type="curve"/>
      <point x="78" y="124"/>
      <point x="91" y="102"/>
    </contour>
    <contour>
      <point x="378" y="146" type="curve"/>
      <point x="421" y="209"/>
      <point x="442" y="245"/>
      <point x="442" y="256" type="curve" smooth="yes"/>
      <point x="442" y="264"/>
      <point x="432" y="276"/>
      <point x="411" y="293" type="curve" smooth="yes"/>
      <point x="390" y="309"/>
      <point x="361" y="328"/>
      <point x="324" y="349" type="curve"/>
      <point x="311" y="330"/>
      <point x="299" y="310"/>
      <point x="289" y="290" type="curve" smooth="yes"/>
      <point x="278" y="270"/>
      <point x="267" y="249"/>
      <point x="255" y="228" type="curve"/>
      <point x="301" y="202"/>
      <point x="313" y="195"/>
    </contour>
    <contour>
      <point x="149" y="457" type="curve"/>
      <point x="192" y="519"/>
      <point x="213" y="556"/>
      <point x="213" y="567" type="curve" smooth="yes"/>
      <point x="213" y="575"/>
      <point x="202" y="587"/>
      <point x="182" y="604" type="curve" smooth="yes"/>
      <point x="161" y="621"/>
      <point x="132" y="639"/>
      <point x="96" y="660" type="curve"/>
      <point x="82" y="640"/>
      <point x="70" y="621"/>
      <point x="60" y="600" type="curve" smooth="yes"/>
      <point x="49" y="580"/>
      <point x="38" y="559"/>
      <point x="26" y="538" type="curve"/>
      <point x="59" y="521"/>
      <point x="100" y="494"/>
    </contour>
    <contour>
      <point x="586" y="146" type="curve"/>
      <point x="629" y="209"/>
      <point x="650" y="245"/>
      <point x="650" y="256" type="curve" smooth="yes"/>
      <point x="650" y="264"/>
      <point x="640" y="276"/>
      <point x="619" y="293" type="curve" smooth="yes"/>
      <point x="599" y="309"/>
      <point x="570" y="328"/>
      <point x="533" y="349" type="curve"/>
      <point x="520" y="330"/>
      <point x="508" y="310"/>
      <point x="497" y="290" type="curve" smooth="yes"/>
      <point x="486" y="270"/>
      <point x="475" y="249"/>
      <point x="463" y="228" type="curve"/>
      <point x="510" y="202"/>
      <point x="521" y="195"/>
    </contour>
  </outline>
</glyph>
<glyph name="uni060C" format="2">
  <advance width="261"/>
  <unicode hex="060C"/>
  <outline>
    <contour>
      <point x="139" y="84" type="curve" smooth="yes"/>
      <point x="183" y="84"/>
      <point x="217" y="120"/>
      <point x="227" y="174" type="curve"/>
      <point x="189" y="186"/>
      <point x="167" y="197"/>
      <point x="167" y="217" type="curve" smooth="yes"/>
      <point x="167" y="241"/>
      <point x="188" y="286"/>
      <point x="231" y="334" type="curve"/>
      <point x="181" y="374" type="line"/>
      <point x="84" y="285"/>
      <point x="59" y="234"/>
      <point x="59" y="173" type="curve" smooth="yes"/>
      <point x="59" y="121"/>
      <point x="92" y="84"/>
    </contour>
  </outline>
</glyph>
<glyph name="uni060D" format="2">
  <advance width="300"/>
  <unicode hex="060D"/>
  <outline>
    <contour>
      <point x="75" y="-25" type="curve"/>
      <point x="104" y="66"/>
      <point x="153" y="142"/>
      <point x="233" y="222" type="curve"/>
      <point x="202" y="325" type="line"/>
      <point x="166" y="288"/>
      <point x="135" y="251"/>
      <point x="109" y="215" type="curve" smooth="yes"/>
      <point x="56" y="143"/>
      <point x="29" y="77"/>
      <point x="29" y="37" type="curve" smooth="yes"/>
      <point x="29" y="4"/>
      <point x="44" y="-16"/>
    </contour>
  </outline>
</glyph>
<glyph name="uni060E" format="2">
  <advance width="854"/>
  <unicode hex="060E"/>
  <outline>
    <contour>
      <point x="342" y="135" type="curve" smooth="yes"/>
      <point x="456" y="135"/>
      <point x="549" y="141"/>
      <point x="623" y="155" type="curve" smooth="yes"/>
      <point x="703" y="170"/>
      <point x="759" y="195"/>
      <point x="795" y="230" type="curve" smooth="yes"/>
      <point x="812" y="247"/>
      <point x="832" y="276"/>
      <point x="854" y="318" type="curve"/>
      <point x="817" y="350" type="line"/>
      <point x="802" y="332"/>
      <point x="774" y="315"/>
      <point x="733" y="301" type="curve" smooth="yes"/>
      <point x="651" y="272"/>
      <point x="514" y="253"/>
      <point x="387" y="251" type="curve"/>
      <point x="394" y="304"/>
      <point x="394" y="340"/>
      <point x="375" y="386" type="curve" smooth="yes"/>
      <point x="352" y="439"/>
      <point x="309" y="472"/>
      <point x="252" y="472" type="curve" smooth="yes"/>
      <point x="219" y="472"/>
      <point x="186" y="463"/>
      <point x="156" y="445" type="curve" smooth="yes"/>
      <point x="95" y="408"/>
      <point x="62" y="344"/>
      <point x="62" y="283" type="curve" smooth="yes"/>
      <point x="62" y="231"/>
      <point x="80" y="195"/>
      <point x="121" y="171" type="curve" smooth="yes"/>
      <point x="165" y="146"/>
      <point x="236" y="135"/>
    </contour>
    <contour>
      <point x="333" y="250" type="curve"/>
      <point x="250" y="250"/>
      <point x="193" y="254"/>
      <point x="162" y="261" type="curve" smooth="yes"/>
      <point x="131" y="268"/>
      <point x="116" y="281"/>
      <point x="116" y="298" type="curve" smooth="yes"/>
      <point x="116" y="307"/>
      <point x="121" y="316"/>
      <point x="130" y="323" type="curve" smooth="yes"/>
      <point x="151" y="342"/>
      <point x="191" y="355"/>
      <point x="237" y="355" type="curve" smooth="yes"/>
      <point x="254" y="355"/>
      <point x="271" y="352"/>
      <point x="284" y="345" type="curve" smooth="yes"/>
      <point x="314" y="331"/>
      <point x="333" y="302"/>
      <point x="333" y="262" type="curve" smooth="yes"/>
      <point x="333" y="259"/>
      <point x="333" y="254"/>
    </contour>
  </outline>
</glyph>
<glyph name="uni060F" format="2">
  <advance width="664"/>
  <unicode hex="060F"/>
  <anchor x="338" y="-200" name="bottom"/>
  <anchor x="228" y="771" name="top"/>
  <outline>
    <contour>
      <point x="73" y="-158" type="line"/>
      <point x="101" y="-117"/>
      <point x="128" y="-80"/>
      <point x="157" y="-48" type="curve"/>
      <point x="197" y="-107"/>
      <point x="258" y="-137"/>
      <point x="338" y="-137" type="curve" smooth="yes"/>
      <point x="384" y="-137"/>
      <point x="425" y="-129"/>
      <point x="462" y="-112" type="curve" smooth="yes"/>
      <point x="535" y="-79"/>
      <point x="578" y="-15"/>
      <point x="578" y="60" type="curve" smooth="yes"/>
      <point x="578" y="171"/>
      <point x="519" y="241"/>
      <point x="425" y="241" type="curve" smooth="yes"/>
      <point x="338" y="241"/>
      <point x="259" y="194"/>
      <point x="172" y="88" type="curve"/>
      <point x="167" y="102"/>
      <point x="165" y="118"/>
      <point x="165" y="135" type="curve" smooth="yes"/>
      <point x="165" y="174"/>
      <point x="185" y="213"/>
      <point x="225" y="250" type="curve" smooth="yes"/>
      <point x="265" y="288"/>
      <point x="332" y="327"/>
      <point x="425" y="366" type="curve" smooth="yes"/>
      <point x="440" y="372"/>
      <point x="452" y="379"/>
      <point x="461" y="387" type="curve" smooth="yes"/>
      <point x="481" y="403"/>
      <point x="491" y="423"/>
      <point x="491" y="449" type="curve" smooth="yes"/>
      <point x="491" y="473"/>
      <point x="487" y="490"/>
      <point x="479" y="500" type="curve"/>
      <point x="412" y="479"/>
      <point x="352" y="451"/>
      <point x="300" y="417" type="curve"/>
      <point x="198" y="429"/>
      <point x="144" y="479"/>
      <point x="140" y="556" type="curve"/>
      <point x="182" y="579"/>
      <point x="214" y="588"/>
      <point x="261" y="588" type="curve" smooth="yes"/>
      <point x="291" y="588"/>
      <point x="326" y="580"/>
      <point x="367" y="565" type="curve"/>
      <point x="388" y="605" type="line"/>
      <point x="332" y="667"/>
      <point x="282" y="698"/>
      <point x="235" y="698" type="curve" smooth="yes"/>
      <point x="209" y="698"/>
      <point x="183" y="688"/>
      <point x="157" y="667" type="curve" smooth="yes"/>
      <point x="106" y="625"/>
      <point x="68" y="544"/>
      <point x="68" y="484" type="curve" smooth="yes"/>
      <point x="68" y="463"/>
      <point x="74" y="442"/>
      <point x="86" y="421" type="curve" smooth="yes"/>
      <point x="110" y="380"/>
      <point x="155" y="348"/>
      <point x="204" y="337" type="curve"/>
      <point x="148" y="275"/>
      <point x="114" y="201"/>
      <point x="114" y="124" type="curve" smooth="yes"/>
      <point x="114" y="88"/>
      <point x="118" y="55"/>
      <point x="125" y="26" type="curve"/>
      <point x="95" y="-18"/>
      <point x="64" y="-69"/>
      <point x="32" y="-128" type="curve"/>
    </contour>
    <contour>
      <point x="356" y="-26" type="curve" smooth="yes"/>
      <point x="307" y="-26"/>
      <point x="263" y="-11"/>
      <point x="222" y="20" type="curve"/>
      <point x="297" y="87"/>
      <point x="367" y="121"/>
      <point x="432" y="121" type="curve" smooth="yes"/>
      <point x="482" y="121"/>
      <point x="525" y="92"/>
      <point x="525" y="58" type="curve" smooth="yes"/>
      <point x="525" y="38"/>
      <point x="515" y="21"/>
      <point x="496" y="8" type="curve" smooth="yes"/>
      <point x="467" y="-13"/>
      <point x="417" y="-26"/>
    </contour>
  </outline>
</glyph>
<glyph name="uni0610" format="2">
  <unicode hex="0610"/>
  <anchor x="99" y="613" name="_top"/>
  <anchor x="99" y="613" name="_top2"/>
  <anchor x="99" y="613" name="_top3"/>
  <anchor x="73" y="831" name="top3"/>
  <outline>
    <contour>
      <point x="7" y="601" type="curve"/>
      <point x="17" y="603"/>
      <point x="26" y="609"/>
      <point x="33" y="621" type="curve"/>
      <point x="37" y="631"/>
      <point x="39" y="647"/>
      <point x="39" y="670" type="curve"/>
      <point x="52" y="667"/>
      <point x="65" y="665"/>
      <point x="80" y="665" type="curve" smooth="yes"/>
      <point x="139" y="665"/>
      <point x="181" y="701"/>
      <point x="181" y="755" type="curve" smooth="yes"/>
      <point x="181" y="779"/>
      <point x="155" y="806"/>
      <point x="129" y="806" type="curve" smooth="yes"/>
      <point x="98" y="806"/>
      <point x="66" y="779"/>
      <point x="33" y="724" type="curve"/>
      <point x="27" y="736"/>
      <point x="20" y="753"/>
      <point x="12" y="775" type="curve"/>
      <point x="5" y="766"/>
      <point x="-2" y="752"/>
      <point x="-10" y="733" type="curve"/>
      <point x="4" y="702"/>
      <point x="11" y="675"/>
      <point x="11" y="651" type="curve" smooth="yes"/>
      <point x="11" y="634"/>
      <point x="10" y="617"/>
    </contour>
    <contour>
      <point x="81" y="701" type="curve" smooth="yes"/>
      <point x="65" y="701"/>
      <point x="53" y="703"/>
      <point x="44" y="707" type="curve"/>
      <point x="66" y="746"/>
      <point x="91" y="765"/>
      <point x="119" y="765" type="curve" smooth="yes"/>
      <point x="140" y="765"/>
      <point x="155" y="754"/>
      <point x="162" y="732" type="curve"/>
      <point x="149" y="712"/>
      <point x="122" y="701"/>
    </contour>
  </outline>
</glyph>
<glyph name="uni0611" format="2">
  <unicode hex="0611"/>
  <anchor x="91" y="613" name="_top"/>
  <anchor x="91" y="613" name="_top2"/>
  <anchor x="91" y="613" name="_top3"/>
  <anchor x="66" y="829" name="top3"/>
  <outline>
    <contour>
      <point x="5" y="601" type="curve"/>
      <point x="27" y="603"/>
      <point x="38" y="625"/>
      <point x="38" y="666" type="curve"/>
      <point x="47" y="664"/>
      <point x="58" y="663"/>
      <point x="71" y="663" type="curve" smooth="yes"/>
      <point x="89" y="663"/>
      <point x="107" y="665"/>
      <point x="126" y="669" type="curve" smooth="yes"/>
      <point x="166" y="678"/>
      <point x="190" y="689"/>
      <point x="190" y="715" type="curve" smooth="yes"/>
      <point x="190" y="719"/>
      <point x="189" y="723"/>
      <point x="187" y="728" type="curve"/>
      <point x="174" y="721"/>
      <point x="155" y="715"/>
      <point x="132" y="708" type="curve"/>
      <point x="131" y="709" type="line"/>
      <point x="121" y="711" type="line"/>
      <point x="95" y="718"/>
      <point x="83" y="735"/>
      <point x="83" y="760" type="curve"/>
      <point x="97" y="768"/>
      <point x="110" y="772"/>
      <point x="122" y="772" type="curve" smooth="yes"/>
      <point x="134" y="772"/>
      <point x="147" y="769"/>
      <point x="160" y="763" type="curve"/>
      <point x="169" y="777" type="line"/>
      <point x="143" y="800"/>
      <point x="132" y="804"/>
      <point x="117" y="804" type="curve" smooth="yes"/>
      <point x="87" y="804"/>
      <point x="58" y="765"/>
      <point x="58" y="731" type="curve" smooth="yes"/>
      <point x="58" y="722"/>
      <point x="60" y="713"/>
      <point x="66" y="704" type="curve"/>
      <point x="71" y="698" type="line"/>
      <point x="69" y="698" type="line" smooth="yes"/>
      <point x="56" y="698"/>
      <point x="46" y="702"/>
      <point x="52" y="702" type="curve"/>
      <point x="46" y="704"/>
      <point x="42" y="708"/>
      <point x="38" y="714" type="curve" smooth="yes"/>
      <point x="33" y="720"/>
      <point x="24" y="740"/>
      <point x="9" y="774" type="curve"/>
      <point x="0" y="762"/>
      <point x="-7" y="748"/>
      <point x="-12" y="733" type="curve"/>
      <point x="2" y="702"/>
      <point x="9" y="675"/>
      <point x="9" y="651" type="curve" smooth="yes"/>
      <point x="9" y="638"/>
      <point x="8" y="621"/>
    </contour>
  </outline>
</glyph>
<glyph name="uni0612" format="2">
  <unicode hex="0612"/>
  <anchor x="28" y="632" name="_top"/>
  <anchor x="28" y="632" name="_top2"/>
  <anchor x="28" y="632" name="_top3"/>
  <anchor x="48" y="867" name="top3"/>
  <outline>
    <contour>
      <point x="-52" y="646" type="curve"/>
      <point x="-36" y="646" type="line"/>
      <point x="-35" y="694"/>
      <point x="18" y="739"/>
      <point x="89" y="751" type="curve" smooth="yes"/>
      <point x="90" y="751" type="line"/>
      <point x="114" y="752" type="line"/>
      <point x="128" y="789" type="line"/>
      <point x="99" y="787" type="line" smooth="yes"/>
      <point x="83" y="787"/>
      <point x="63" y="791"/>
      <point x="39" y="800" type="curve" smooth="yes"/>
      <point x="15" y="808"/>
      <point x="-5" y="812"/>
      <point x="-20" y="812" type="curve" smooth="yes"/>
      <point x="-47" y="812"/>
      <point x="-67" y="799"/>
      <point x="-67" y="779" type="curve" smooth="yes"/>
      <point x="-67" y="771"/>
      <point x="-64" y="765"/>
      <point x="-58" y="760" type="curve"/>
      <point x="-49" y="770"/>
      <point x="-36" y="775"/>
      <point x="-19" y="775" type="curve" smooth="yes"/>
      <point x="-11" y="775"/>
      <point x="-2" y="774"/>
      <point x="6" y="771" type="curve" smooth="yes"/>
      <point x="26" y="765" type="line"/>
      <point x="-24" y="742"/>
      <point x="-52" y="698"/>
    </contour>
    <contour>
      <point x="107" y="642" type="curve" smooth="yes"/>
      <point x="156" y="642"/>
      <point x="192" y="690"/>
      <point x="192" y="751" type="curve" smooth="yes"/>
      <point x="192" y="762"/>
      <point x="187" y="783"/>
      <point x="175" y="816" type="curve" smooth="yes"/>
      <point x="164" y="852" type="line"/>
      <point x="145" y="844"/>
      <point x="136" y="834"/>
      <point x="136" y="822" type="curve" smooth="yes"/>
      <point x="136" y="812"/>
      <point x="140" y="801"/>
      <point x="147" y="788" type="curve" smooth="yes"/>
      <point x="154" y="777"/>
      <point x="162" y="760"/>
      <point x="173" y="739" type="curve"/>
      <point x="161" y="703"/>
      <point x="137" y="678"/>
      <point x="98" y="678" type="curve" smooth="yes"/>
      <point x="90" y="678"/>
      <point x="76" y="680"/>
      <point x="56" y="685" type="curve"/>
      <point x="49" y="670" type="line"/>
      <point x="63" y="657"/>
      <point x="95" y="642"/>
    </contour>
  </outline>
</glyph>
<glyph name="uni0613" format="2">
  <unicode hex="0613"/>
  <anchor x="39" y="595" name="_top"/>
  <anchor x="39" y="595" name="_top2"/>
  <anchor x="39" y="595" name="_top3"/>
  <anchor x="81" y="871" name="top3"/>
  <outline>
    <contour>
      <point x="-38" y="600" type="curve"/>
      <point x="-28" y="601"/>
      <point x="-20" y="608"/>
      <point x="-12" y="620" type="curve"/>
      <point x="-8" y="628"/>
      <point x="-6" y="644"/>
      <point x="-6" y="669" type="curve"/>
      <point x="6" y="666"/>
      <point x="20" y="664"/>
      <point x="34" y="664" type="curve" smooth="yes"/>
      <point x="93" y="664"/>
      <point x="136" y="699"/>
      <point x="136" y="754" type="curve" smooth="yes"/>
      <point x="136" y="778"/>
      <point x="110" y="805"/>
      <point x="83" y="805" type="curve" smooth="yes"/>
      <point x="52" y="805"/>
      <point x="20" y="778"/>
      <point x="-12" y="724" type="curve"/>
      <point x="-19" y="737"/>
      <point x="-27" y="754"/>
      <point x="-34" y="774" type="curve"/>
      <point x="-42" y="765"/>
      <point x="-49" y="751"/>
      <point x="-55" y="732" type="curve"/>
      <point x="-42" y="700"/>
      <point x="-35" y="673"/>
      <point x="-35" y="650" type="curve" smooth="yes"/>
      <point x="-35" y="640"/>
      <point x="-36" y="623"/>
    </contour>
    <contour>
      <point x="35" y="700" type="curve" smooth="yes"/>
      <point x="19" y="700"/>
      <point x="7" y="702"/>
      <point x="-1" y="706" type="curve"/>
      <point x="20" y="745"/>
      <point x="44" y="764"/>
      <point x="73" y="764" type="curve" smooth="yes"/>
      <point x="96" y="764"/>
      <point x="110" y="753"/>
      <point x="117" y="732" type="curve"/>
      <point x="103" y="711"/>
      <point x="76" y="700"/>
    </contour>
    <contour>
      <point x="0" y="791" type="line"/>
      <point x="5" y="794"/>
      <point x="9" y="798"/>
      <point x="13" y="804" type="curve" smooth="yes"/>
      <point x="17" y="809"/>
      <point x="20" y="814"/>
      <point x="23" y="819" type="curve"/>
      <point x="11" y="832"/>
      <point x="0" y="841"/>
      <point x="-8" y="847" type="curve"/>
      <point x="-31" y="818" type="line"/>
    </contour>
    <contour>
      <point x="135" y="605" type="curve" smooth="yes"/>
      <point x="184" y="605"/>
      <point x="220" y="654"/>
      <point x="220" y="714" type="curve" smooth="yes"/>
      <point x="220" y="728"/>
      <point x="214" y="749"/>
      <point x="203" y="779" type="curve" smooth="yes"/>
      <point x="198" y="791"/>
      <point x="195" y="803"/>
      <point x="192" y="816" type="curve"/>
      <point x="174" y="808"/>
      <point x="165" y="800"/>
      <point x="165" y="785" type="curve" smooth="yes"/>
      <point x="165" y="775"/>
      <point x="168" y="764"/>
      <point x="175" y="752" type="curve" smooth="yes"/>
      <point x="186" y="733"/>
      <point x="194" y="717"/>
      <point x="201" y="702" type="curve"/>
      <point x="188" y="662"/>
      <point x="163" y="641"/>
      <point x="126" y="641" type="curve" smooth="yes"/>
      <point x="118" y="641"/>
      <point x="104" y="644"/>
      <point x="83" y="648" type="curve"/>
      <point x="78" y="633" type="line"/>
      <point x="92" y="621"/>
      <point x="122" y="605"/>
    </contour>
  </outline>
</glyph>
<glyph name="uni0614" format="2">
  <unicode hex="0614"/>
  <anchor x="44" y="645" name="_top"/>
  <anchor x="44" y="645" name="_top2"/>
  <anchor x="44" y="645" name="_top3"/>
  <anchor x="66" y="773" name="top3"/>
  <outline>
    <contour>
      <point x="137" y="655" type="curve" smooth="yes"/>
      <point x="168" y="655"/>
      <point x="194" y="683"/>
      <point x="215" y="739" type="curve"/>
      <point x="203" y="750" type="line"/>
      <point x="183" y="716"/>
      <point x="165" y="698"/>
      <point x="149" y="698" type="curve" smooth="yes"/>
      <point x="135" y="698"/>
      <point x="119" y="716"/>
      <point x="119" y="735" type="curve" smooth="yes"/>
      <point x="119" y="743" type="line"/>
      <point x="105" y="749" type="line"/>
      <point x="90" y="731"/>
      <point x="76" y="719"/>
      <point x="63" y="713" type="curve" smooth="yes"/>
      <point x="37" y="702"/>
      <point x="-8" y="698"/>
      <point x="-91" y="698" type="curve" smooth="yes"/>
      <point x="-130" y="698" type="line"/>
      <point x="-130" y="693" type="line" smooth="yes"/>
      <point x="-130" y="680"/>
      <point x="-122" y="672"/>
      <point x="-104" y="668" type="curve" smooth="yes"/>
      <point x="-86" y="664"/>
      <point x="-60" y="662"/>
      <point x="-26" y="662" type="curve" smooth="yes"/>
      <point x="22" y="662"/>
      <point x="61" y="668"/>
      <point x="89" y="691" type="curve"/>
      <point x="101" y="667"/>
      <point x="117" y="655"/>
    </contour>
  </outline>
</glyph>
<glyph name="uni0615" format="2">
  <unicode hex="0615"/>
  <anchor x="48" y="572" name="_top"/>
  <anchor x="48" y="572" name="_top2"/>
  <anchor x="48" y="572" name="_top3"/>
  <anchor x="73" y="794" name="top3"/>
  <outline>
    <contour>
      <point x="39" y="581" type="curve" smooth="yes"/>
      <point x="107" y="581"/>
      <point x="147" y="607"/>
      <point x="147" y="650" type="curve" smooth="yes"/>
      <point x="147" y="670"/>
      <point x="114" y="696"/>
      <point x="90" y="696" type="curve" smooth="yes"/>
      <point x="66" y="696"/>
      <point x="40" y="680"/>
      <point x="11" y="648" type="curve"/>
      <point x="10" y="672"/>
      <point x="8" y="701"/>
      <point x="4" y="735" type="curve"/>
      <point x="14" y="742" type="line"/>
      <point x="1" y="784" type="line"/>
      <point x="-14" y="781"/>
      <point x="-22" y="772"/>
      <point x="-22" y="757" type="curve" smooth="yes"/>
      <point x="-22" y="746"/>
      <point x="-19" y="724"/>
      <point x="-13" y="693" type="curve" smooth="yes"/>
      <point x="-2" y="633" type="line"/>
      <point x="-20" y="612" type="line"/>
      <point x="-76" y="623" type="line"/>
      <point x="-80" y="611" type="line"/>
      <point x="-50" y="591"/>
      <point x="-38" y="581"/>
    </contour>
    <contour>
      <point x="43" y="608" type="curve" smooth="yes"/>
      <point x="-1" y="609" type="line"/>
      <point x="30" y="648"/>
      <point x="58" y="667"/>
      <point x="82" y="667" type="curve" smooth="yes"/>
      <point x="102" y="667"/>
      <point x="119" y="656"/>
      <point x="131" y="633" type="curve"/>
      <point x="100" y="614"/>
      <point x="76" y="608"/>
    </contour>
  </outline>
</glyph>
<glyph name="uni0616" format="2">
  <unicode hex="0616"/>
  <anchor x="0" y="623" name="_top"/>
  <anchor x="0" y="623" name="_top2"/>
  <anchor x="0" y="623" name="_top3"/>
  <anchor x="0" y="968" name="top3"/>
  <outline>
    <contour>
      <point x="-28" y="633" type="curve" smooth="yes"/>
      <point x="40" y="633"/>
      <point x="148" y="641"/>
      <point x="87" y="638" type="curve"/>
      <point x="130" y="642"/>
      <point x="156" y="645"/>
      <point x="163" y="649" type="curve" smooth="yes"/>
      <point x="171" y="653"/>
      <point x="175" y="659"/>
      <point x="175" y="665" type="curve" smooth="yes"/>
      <point x="175" y="670"/>
      <point x="173" y="674"/>
      <point x="169" y="678" type="curve"/>
      <point x="129" y="670"/>
      <point x="26" y="662"/>
      <point x="-26" y="662" type="curve" smooth="yes"/>
      <point x="-102" y="662"/>
      <point x="-152" y="666"/>
      <point x="-176" y="673" type="curve"/>
      <point x="-152" y="688"/>
      <point x="-123" y="696"/>
      <point x="-95" y="705" type="curve"/>
      <point x="-25" y="723" type="line"/>
      <point x="-18" y="735"/>
      <point x="-12" y="754"/>
      <point x="-12" y="763" type="curve" smooth="yes"/>
      <point x="-12" y="787"/>
      <point x="-13" y="814"/>
      <point x="-15" y="843" type="curve" smooth="yes"/>
      <point x="-21" y="943" type="line"/>
      <point x="-29" y="937"/>
      <point x="-37" y="930"/>
      <point x="-45" y="922" type="curve"/>
      <point x="-37" y="852"/>
      <point x="-31" y="795"/>
      <point x="-28" y="748" type="curve"/>
      <point x="-111" y="733"/>
      <point x="-152" y="715"/>
      <point x="-184" y="687" type="curve"/>
      <point x="-188" y="681"/>
      <point x="-194" y="659"/>
      <point x="-194" y="656" type="curve" smooth="yes"/>
      <point x="-194" y="650"/>
      <point x="-177" y="644"/>
      <point x="-145" y="640" type="curve" smooth="yes"/>
      <point x="-112" y="635"/>
      <point x="-73" y="633"/>
    </contour>
    <contour>
      <point x="21" y="713" type="line"/>
      <point x="38" y="716" type="line"/>
      <point x="41" y="801" type="line"/>
      <point x="41" y="822" type="line"/>
      <point x="39" y="890" type="line"/>
      <point x="49" y="899" type="line"/>
      <point x="35" y="944" type="line"/>
      <point x="17" y="940"/>
      <point x="11" y="931"/>
      <point x="11" y="916" type="curve"/>
      <point x="18" y="819" type="line"/>
      <point x="21" y="747" type="line"/>
    </contour>
  </outline>
</glyph>
<glyph name="uni0617" format="2">
  <unicode hex="0617"/>
  <anchor x="0" y="552" name="_top"/>
  <anchor x="0" y="552" name="_top2"/>
  <anchor x="0" y="552" name="_top3"/>
  <anchor x="1" y="865" name="top3"/>
  <outline>
    <contour>
      <point x="-22" y="562" type="curve" smooth="yes"/>
      <point x="28" y="562"/>
      <point x="62" y="610"/>
      <point x="62" y="670" type="curve" smooth="yes"/>
      <point x="62" y="682"/>
      <point x="59" y="698"/>
      <point x="51" y="719" type="curve" smooth="yes"/>
      <point x="34" y="769" type="line"/>
      <point x="19" y="762"/>
      <point x="11" y="755"/>
      <point x="11" y="742" type="curve" smooth="yes"/>
      <point x="11" y="727"/>
      <point x="24" y="704"/>
      <point x="37" y="682" type="curve" smooth="yes"/>
      <point x="48" y="658" type="line"/>
      <point x="34" y="614"/>
      <point x="7" y="592"/>
      <point x="-31" y="592" type="curve" smooth="yes"/>
      <point x="-42" y="592"/>
      <point x="-54" y="593"/>
      <point x="-67" y="595" type="curve"/>
      <point x="-72" y="583" type="line"/>
      <point x="-57" y="572"/>
      <point x="-34" y="562"/>
    </contour>
    <contour>
      <point x="15" y="789" type="curve"/>
      <point x="25" y="798"/>
      <point x="33" y="807"/>
      <point x="40" y="817" type="curve"/>
      <point x="33" y="822"/>
      <point x="24" y="830"/>
      <point x="15" y="841" type="curve"/>
      <point x="-12" y="813" type="line"/>
      <point x="-5" y="806"/>
      <point x="4" y="798"/>
    </contour>
  </outline>
</glyph>
<glyph name="uni0618" format="2">
  <unicode hex="0618"/>
  <anchor x="0" y="591" name="_top"/>
  <anchor x="0" y="591" name="_top2"/>
  <anchor x="0" y="591" name="_top3"/>
  <anchor x="-3" y="715" name="top3"/>
  <outline>
    <contour>
      <point x="-55" y="606" type="line"/>
      <point x="-29" y="614" type="line" smooth="yes"/>
      <point x="-7" y="621"/>
      <point x="19" y="631"/>
      <point x="50" y="644" type="curve" smooth="yes"/>
      <point x="66" y="650"/>
      <point x="73" y="662"/>
      <point x="73" y="679" type="curve"/>
      <point x="72" y="690" type="line"/>
      <point x="39" y="677"/>
      <point x="-1" y="663"/>
      <point x="-50" y="648" type="curve"/>
    </contour>
  </outline>
</glyph>
<glyph name="uni0619" format="2">
  <unicode hex="0619"/>
  <anchor x="0" y="582" name="_top"/>
  <anchor x="0" y="582" name="_top2"/>
  <anchor x="0" y="582" name="_top3"/>
  <anchor x="0" y="771" name="top3"/>
  <outline>
    <contour>
      <point x="-25" y="592" type="curve" smooth="yes"/>
      <point x="-9" y="592"/>
      <point x="10" y="605"/>
      <point x="32" y="633" type="curve"/>
      <point x="57" y="633"/>
      <point x="68" y="640"/>
      <point x="70" y="660" type="curve"/>
      <point x="49" y="661" type="line"/>
      <point x="53" y="672"/>
      <point x="55" y="683"/>
      <point x="55" y="694" type="curve" smooth="yes"/>
      <point x="55" y="732"/>
      <point x="39" y="747"/>
      <point x="23" y="747" type="curve" smooth="yes"/>
      <point x="-2" y="747"/>
      <point x="-32" y="717"/>
      <point x="-32" y="685" type="curve" smooth="yes"/>
      <point x="-32" y="667"/>
      <point x="-21" y="652"/>
      <point x="1" y="639" type="curve"/>
      <point x="-10" y="631"/>
      <point x="-28" y="623"/>
      <point x="-54" y="617" type="curve"/>
      <point x="-54" y="601"/>
      <point x="-43" y="592"/>
    </contour>
    <contour>
      <point x="25" y="666" type="line"/>
      <point x="3" y="674"/>
      <point x="-8" y="686"/>
      <point x="-8" y="700" type="curve" smooth="yes"/>
      <point x="-8" y="706"/>
      <point x="2" y="715"/>
      <point x="11" y="715" type="curve" smooth="yes"/>
      <point x="23" y="715"/>
      <point x="30" y="704"/>
      <point x="30" y="683" type="curve" smooth="yes"/>
      <point x="30" y="680"/>
      <point x="29" y="675"/>
      <point x="27" y="670" type="curve" smooth="yes"/>
    </contour>
  </outline>
</glyph>
<glyph name="uni061A" format="2">
  <unicode hex="061A"/>
  <anchor x="0" y="54" name="_bottom"/>
  <anchor x="0" y="54" name="_bottom2"/>
  <anchor x="0" y="54" name="_bottom3"/>
  <anchor x="7" y="-45" name="bottom3"/>
  <outline>
    <contour>
      <point x="-55" y="-35" type="line"/>
      <point x="-29" y="-26" type="line" smooth="yes"/>
      <point x="-7" y="-19"/>
      <point x="19" y="-9"/>
      <point x="50" y="4" type="curve" smooth="yes"/>
      <point x="66" y="10"/>
      <point x="73" y="22"/>
      <point x="73" y="39" type="curve"/>
      <point x="72" y="50" type="line"/>
      <point x="39" y="37"/>
      <point x="-1" y="23"/>
      <point x="-50" y="8" type="curve"/>
    </contour>
  </outline>
</glyph>
<glyph name="uni061B" format="2">
  <advance width="261"/>
  <unicode hex="061B"/>
  <outline>
    <contour>
      <point x="139" y="329" type="curve" smooth="yes"/>
      <point x="182" y="329"/>
      <point x="217" y="363"/>
      <point x="227" y="419" type="curve"/>
      <point x="189" y="430"/>
      <point x="166" y="442"/>
      <point x="166" y="461" type="curve" smooth="yes"/>
      <point x="166" y="486"/>
      <point x="188" y="530"/>
      <point x="231" y="578" type="curve"/>
      <point x="181" y="618" type="line"/>
      <point x="84" y="530"/>
      <point x="59" y="478"/>
      <point x="59" y="418" type="curve" smooth="yes"/>
      <point x="59" y="366"/>
      <point x="92" y="329"/>
    </contour>
    <contour>
      <point x="178" y="75" type="curve"/>
      <point x="214" y="127"/>
      <point x="232" y="158"/>
      <point x="232" y="167" type="curve" smooth="yes"/>
      <point x="232" y="182"/>
      <point x="199" y="208"/>
      <point x="134" y="246" type="curve"/>
      <point x="122" y="229"/>
      <point x="112" y="213"/>
      <point x="104" y="196" type="curve" smooth="yes"/>
      <point x="95" y="179"/>
      <point x="85" y="162"/>
      <point x="75" y="144" type="curve"/>
      <point x="109" y="125"/>
      <point x="143" y="102"/>
    </contour>
  </outline>
</glyph>
<glyph name="uni061F" format="2">
  <advance width="425"/>
  <unicode hex="061F"/>
  <outline>
    <contour>
      <point x="245" y="114" type="line"/>
      <point x="268" y="162"/>
      <point x="280" y="200"/>
      <point x="280" y="229" type="curve" smooth="yes"/>
      <point x="280" y="263"/>
      <point x="265" y="290"/>
      <point x="241" y="312" type="curve" smooth="yes"/>
      <point x="216" y="335"/>
      <point x="181" y="354"/>
      <point x="97" y="378" type="curve"/>
      <point x="116" y="434"/>
      <point x="160" y="462"/>
      <point x="231" y="462" type="curve" smooth="yes"/>
      <point x="278" y="462"/>
      <point x="304" y="450"/>
      <point x="342" y="413" type="curve"/>
      <point x="365" y="434"/>
      <point x="376" y="458"/>
      <point x="376" y="487" type="curve" smooth="yes"/>
      <point x="376" y="508"/>
      <point x="369" y="526"/>
      <point x="355" y="539" type="curve" smooth="yes"/>
      <point x="326" y="566"/>
      <point x="289" y="582"/>
      <point x="242" y="582" type="curve" smooth="yes"/>
      <point x="210" y="582"/>
      <point x="179" y="572"/>
      <point x="149" y="551" type="curve" smooth="yes"/>
      <point x="89" y="509"/>
      <point x="45" y="437"/>
      <point x="45" y="374" type="curve" smooth="yes"/>
      <point x="45" y="327"/>
      <point x="70" y="289"/>
      <point x="120" y="260" type="curve" smooth="yes"/>
      <point x="148" y="244"/>
      <point x="167" y="232"/>
      <point x="178" y="221" type="curve" smooth="yes"/>
      <point x="188" y="211"/>
      <point x="193" y="200"/>
      <point x="193" y="189" type="curve" smooth="yes"/>
      <point x="193" y="178"/>
      <point x="192" y="165"/>
      <point x="188" y="150" type="curve"/>
    </contour>
    <contour>
      <point x="217" y="-77" type="curve"/>
      <point x="253" y="-25"/>
      <point x="271" y="6"/>
      <point x="271" y="15" type="curve" smooth="yes"/>
      <point x="271" y="21"/>
      <point x="264" y="31"/>
      <point x="249" y="44" type="curve" smooth="yes"/>
      <point x="234" y="57"/>
      <point x="208" y="73"/>
      <point x="173" y="94" type="curve"/>
      <point x="161" y="77"/>
      <point x="151" y="61"/>
      <point x="143" y="44" type="curve" smooth="yes"/>
      <point x="135" y="27"/>
      <point x="124" y="10"/>
      <point x="114" y="-8" type="curve"/>
      <point x="148" y="-27"/>
      <point x="182" y="-50"/>
    </contour>
  </outline>
</glyph>
<glyph name="uni0621" format="2">
  <advance width="452"/>
  <unicode hex="0621"/>
  <unicode hex="FE80"/>
  <anchor x="256" y="54" name="bottom"/>
  <anchor x="235" y="520" name="top"/>
  <outline>
    <contour>
      <point x="85" y="103" type="line"/>
      <point x="156" y="114"/>
      <point x="207" y="121"/>
      <point x="255" y="125" type="curve" smooth="yes"/>
      <point x="305" y="131"/>
      <point x="349" y="133"/>
      <point x="379" y="136" type="curve" smooth="yes"/>
      <point x="411" y="139"/>
      <point x="431" y="168"/>
      <point x="431" y="199" type="curve" smooth="yes"/>
      <point x="431" y="221"/>
      <point x="419" y="244"/>
      <point x="408" y="256" type="curve"/>
      <point x="398" y="255"/>
      <point x="386" y="253"/>
      <point x="374" y="251" type="curve" smooth="yes"/>
      <point x="350" y="247"/>
      <point x="325" y="242"/>
      <point x="301" y="237" type="curve" smooth="yes"/>
      <point x="292" y="235"/>
      <point x="282" y="232"/>
      <point x="273" y="230" type="curve"/>
      <point x="260" y="230"/>
      <point x="233" y="235"/>
      <point x="221" y="239" type="curve" smooth="yes"/>
      <point x="195" y="246"/>
      <point x="178" y="256"/>
      <point x="159" y="280" type="curve"/>
      <point x="192" y="326"/>
      <point x="224" y="340"/>
      <point x="255" y="340" type="curve" smooth="yes"/>
      <point x="265" y="340"/>
      <point x="277" y="338"/>
      <point x="290" y="333" type="curve"/>
      <point x="288" y="324"/>
      <point x="287" y="317"/>
      <point x="285" y="309" type="curve"/>
      <point x="295" y="303"/>
      <point x="312" y="296"/>
      <point x="330" y="291" type="curve"/>
      <point x="347" y="309"/>
      <point x="354" y="336"/>
      <point x="354" y="356" type="curve" smooth="yes"/>
      <point x="354" y="411"/>
      <point x="312" y="447"/>
      <point x="260" y="447" type="curve" smooth="yes"/>
      <point x="246" y="447"/>
      <point x="233" y="444"/>
      <point x="220" y="438" type="curve" smooth="yes"/>
      <point x="156" y="407"/>
      <point x="108" y="321"/>
      <point x="108" y="253" type="curve" smooth="yes"/>
      <point x="108" y="234"/>
      <point x="114" y="217"/>
      <point x="125" y="201" type="curve" smooth="yes"/>
      <point x="130" y="195"/>
      <point x="135" y="189"/>
      <point x="141" y="184" type="curve"/>
      <point x="131" y="180"/>
      <point x="85" y="160"/>
      <point x="68" y="152" type="curve"/>
    </contour>
  </outline>
</glyph>
<glyph name="uni0627" format="2">
  <advance width="284"/>
  <unicode hex="0627"/>
  <unicode hex="FE8D"/>
  <anchor x="151" y="97" name="bottom"/>
  <anchor x="142" y="834" name="top"/>
  <outline>
    <contour>
      <point x="121" y="144" type="curve"/>
      <point x="185" y="152" type="line"/>
      <point x="192" y="380"/>
      <point x="193" y="555"/>
      <point x="190" y="666" type="curve"/>
      <point x="225" y="692" type="line"/>
      <point x="209" y="732"/>
      <point x="195" y="773"/>
      <point x="184" y="815" type="curve"/>
      <point x="124" y="815"/>
      <point x="71" y="780"/>
      <point x="77" y="730" type="curve" smooth="yes"/>
      <point x="96" y="539"/>
      <point x="107" y="419"/>
    </contour>
  </outline>
</glyph>
<glyph name="uni062D" format="2">
  <advance width="655"/>
  <unicode hex="062D"/>
  <unicode hex="FEA1"/>
  <anchor x="88" y="-152" name="bottom"/>
  <anchor x="342" y="618" name="top"/>
  <outline>
    <contour>
      <point x="373" y="-153" type="curve" smooth="yes"/>
      <point x="415" y="-153"/>
      <point x="520" y="-112"/>
      <point x="630" y="-49" type="curve"/>
      <point x="616" y="-7" type="line"/>
      <point x="523" y="-28"/>
      <point x="443" y="-38"/>
      <point x="375" y="-38" type="curve" smooth="yes"/>
      <point x="247" y="-38"/>
      <point x="156" y="16"/>
      <point x="156" y="106" type="curve" smooth="yes"/>
      <point x="156" y="162"/>
      <point x="190" y="216"/>
      <point x="249" y="263" type="curve" smooth="yes"/>
      <point x="308" y="310"/>
      <point x="397" y="348"/>
      <point x="464" y="359" type="curve"/>
      <point x="497" y="356"/>
      <point x="559" y="357"/>
      <point x="585" y="361" type="curve"/>
      <point x="626" y="473" type="line"/>
      <point x="535" y="471" type="line" smooth="yes"/>
      <point x="484" y="471"/>
      <point x="433" y="482"/>
      <point x="361" y="509" type="curve" smooth="yes"/>
      <point x="287" y="535"/>
      <point x="245" y="545"/>
      <point x="201" y="545" type="curve" smooth="yes"/>
      <point x="119" y="545"/>
      <point x="68" y="507"/>
      <point x="68" y="447" type="curve" smooth="yes"/>
      <point x="68" y="425"/>
      <point x="79" y="399"/>
      <point x="91" y="387" type="curve"/>
      <point x="138" y="416"/>
      <point x="160" y="426"/>
      <point x="199" y="426" type="curve" smooth="yes"/>
      <point x="236" y="426"/>
      <point x="272" y="412"/>
      <point x="318" y="395" type="curve"/>
      <point x="277" y="375"/>
      <point x="242" y="350"/>
      <point x="212" y="322" type="curve" smooth="yes"/>
      <point x="143" y="259"/>
      <point x="105" y="177"/>
      <point x="105" y="91" type="curve" smooth="yes"/>
      <point x="105" y="-62"/>
      <point x="204" y="-153"/>
    </contour>
  </outline>
</glyph>
<glyph name="uni062F" format="2">
  <advance width="435"/>
  <unicode hex="062F"/>
  <unicode hex="FEA9"/>
  <anchor x="214" y="77" name="bottom"/>
  <anchor x="229" y="658" name="top"/>
  <outline>
    <contour>
      <point x="168" y="135" type="curve" smooth="yes"/>
      <point x="238" y="135"/>
      <point x="309" y="150"/>
      <point x="357" y="174" type="curve"/>
      <point x="373" y="205"/>
      <point x="392" y="266"/>
      <point x="392" y="284" type="curve" smooth="yes"/>
      <point x="392" y="320"/>
      <point x="377" y="364"/>
      <point x="358" y="415" type="curve" smooth="yes"/>
      <point x="341" y="459"/>
      <point x="312" y="533"/>
      <point x="297" y="585" type="curve"/>
      <point x="253" y="572"/>
      <point x="213" y="528"/>
      <point x="213" y="485" type="curve" smooth="yes"/>
      <point x="213" y="459"/>
      <point x="239" y="418"/>
      <point x="277" y="364" type="curve" smooth="yes"/>
      <point x="292" y="343"/>
      <point x="309" y="313"/>
      <point x="331" y="275" type="curve"/>
      <point x="287" y="261"/>
      <point x="243" y="254"/>
      <point x="200" y="254" type="curve" smooth="yes"/>
      <point x="137" y="254"/>
      <point x="97" y="267"/>
      <point x="64" y="294" type="curve"/>
      <point x="47" y="276"/>
      <point x="34" y="241"/>
      <point x="34" y="213" type="curve" smooth="yes"/>
      <point x="34" y="161"/>
      <point x="79" y="135"/>
    </contour>
  </outline>
</glyph>
<glyph name="uni0631" format="2">
  <advance width="377"/>
  <unicode hex="0631"/>
  <unicode hex="FEAD"/>
  <anchor x="104" y="-109" name="bottom"/>
  <anchor x="196" y="561" name="top"/>
  <outline>
    <contour>
      <point x="102" y="-60" type="curve" smooth="yes"/>
      <point x="146" y="-60"/>
      <point x="186" y="-48"/>
      <point x="222" y="-23" type="curve" smooth="yes"/>
      <point x="293" y="27"/>
      <point x="335" y="120"/>
      <point x="335" y="224" type="curve" smooth="yes"/>
      <point x="335" y="267"/>
      <point x="322" y="315"/>
      <point x="305" y="365" type="curve" smooth="yes"/>
      <point x="291" y="406"/>
      <point x="267" y="476"/>
      <point x="256" y="518" type="curve"/>
      <point x="207" y="493"/>
      <point x="173" y="452"/>
      <point x="173" y="413" type="curve" smooth="yes"/>
      <point x="173" y="370"/>
      <point x="209" y="314"/>
      <point x="248" y="254" type="curve" smooth="yes"/>
      <point x="261" y="234"/>
      <point x="272" y="213"/>
      <point x="282" y="193" type="curve"/>
      <point x="251" y="100"/>
      <point x="182" y="49"/>
      <point x="83" y="49" type="curve" smooth="yes"/>
      <point x="52" y="49"/>
      <point x="18" y="54"/>
      <point x="-18" y="63" type="curve"/>
      <point x="-34" y="21" type="line"/>
      <point x="24" y="-28"/>
      <point x="79" y="-60"/>
    </contour>
  </outline>
</glyph>
<glyph name="uni0633" format="2">
  <advance width="1061"/>
  <unicode hex="0633"/>
  <unicode hex="FEB1"/>
  <anchor x="748" y="59" name="bottom"/>
  <anchor x="690" y="531" name="top"/>
  <outline>
    <contour>
      <point x="251" y="-117" type="curve" smooth="yes"/>
      <point x="306" y="-117"/>
      <point x="357" y="-107"/>
      <point x="403" y="-85" type="curve" smooth="yes"/>
      <point x="495" y="-42"/>
      <point x="552" y="39"/>
      <point x="552" y="128" type="curve" smooth="yes"/>
      <point x="552" y="137" type="line"/>
      <point x="563" y="136"/>
      <point x="574" y="135"/>
      <point x="585" y="135" type="curve" smooth="yes"/>
      <point x="620" y="135"/>
      <point x="649" y="138"/>
      <point x="674" y="143" type="curve" smooth="yes"/>
      <point x="698" y="148"/>
      <point x="713" y="155"/>
      <point x="718" y="164" type="curve" smooth="yes"/>
      <point x="729" y="186" type="line"/>
      <point x="795" y="156"/>
      <point x="886" y="135"/>
      <point x="968" y="135" type="curve"/>
      <point x="988" y="173"/>
      <point x="1010" y="246"/>
      <point x="1010" y="277" type="curve" smooth="yes"/>
      <point x="1010" y="295"/>
      <point x="1005" y="330"/>
      <point x="995" y="383" type="curve" smooth="yes"/>
      <point x="986" y="427"/>
      <point x="977" y="473"/>
      <point x="968" y="518" type="curve"/>
      <point x="918" y="493"/>
      <point x="877" y="448"/>
      <point x="877" y="416" type="curve" smooth="yes"/>
      <point x="877" y="389"/>
      <point x="892" y="362"/>
      <point x="908" y="332" type="curve" smooth="yes"/>
      <point x="923" y="303"/>
      <point x="938" y="274"/>
      <point x="952" y="245" type="curve"/>
      <point x="873" y="253"/>
      <point x="816" y="264"/>
      <point x="765" y="290" type="curve"/>
      <point x="784" y="349"/>
      <point x="799" y="397"/>
      <point x="808" y="418" type="curve"/>
      <point x="796" y="425"/>
      <point x="783" y="428"/>
      <point x="770" y="428" type="curve" smooth="yes"/>
      <point x="747" y="428"/>
      <point x="731" y="419"/>
      <point x="724" y="400" type="curve" smooth="yes"/>
      <point x="714" y="376"/>
      <point x="705" y="352"/>
      <point x="695" y="327" type="curve" smooth="yes"/>
      <point x="683" y="296"/>
      <point x="674" y="275"/>
      <point x="668" y="265" type="curve"/>
      <point x="632" y="254"/>
      <point x="623" y="254"/>
      <point x="597" y="254" type="curve" smooth="yes"/>
      <point x="580" y="254"/>
      <point x="560" y="256"/>
      <point x="537" y="259" type="curve"/>
      <point x="524" y="331"/>
      <point x="516" y="379"/>
      <point x="513" y="405" type="curve"/>
      <point x="444" y="371"/>
      <point x="412" y="329"/>
      <point x="412" y="273" type="curve" smooth="yes"/>
      <point x="412" y="246"/>
      <point x="451" y="178"/>
      <point x="497" y="90" type="curve"/>
      <point x="426" y="26"/>
      <point x="359" y="1"/>
      <point x="254" y="1" type="curve" smooth="yes"/>
      <point x="165" y="1"/>
      <point x="123" y="47"/>
      <point x="123" y="142" type="curve" smooth="yes"/>
      <point x="123" y="165"/>
      <point x="128" y="192"/>
      <point x="137" y="222" type="curve"/>
      <point x="93" y="233" type="line"/>
      <point x="76" y="170"/>
      <point x="68" y="122"/>
      <point x="68" y="88" type="curve" smooth="yes"/>
      <point x="68" y="-45"/>
      <point x="132" y="-117"/>
    </contour>
  </outline>
</glyph>
<glyph name="uni0635" format="2">
  <advance width="1131"/>
  <unicode hex="0635"/>
  <unicode hex="FEB9"/>
  <anchor x="810" y="59" name="bottom"/>
  <anchor x="666" y="608" name="top"/>
  <outline>
    <contour>
      <point x="251" y="-117" type="curve" smooth="yes"/>
      <point x="306" y="-117"/>
      <point x="357" y="-107"/>
      <point x="403" y="-85" type="curve" smooth="yes"/>
      <point x="495" y="-42"/>
      <point x="552" y="39"/>
      <point x="552" y="128" type="curve"/>
      <point x="552" y="138"/>
      <point x="551" y="148"/>
      <point x="551" y="158" type="curve"/>
      <point x="617" y="143"/>
      <point x="680" y="135"/>
      <point x="741" y="135" type="curve" smooth="yes"/>
      <point x="801" y="135"/>
      <point x="858" y="145"/>
      <point x="914" y="165" type="curve" smooth="yes"/>
      <point x="1025" y="204"/>
      <point x="1081" y="274"/>
      <point x="1081" y="361" type="curve" smooth="yes"/>
      <point x="1081" y="380"/>
      <point x="1069" y="404"/>
      <point x="1045" y="432" type="curve" smooth="yes"/>
      <point x="997" y="489"/>
      <point x="927" y="535"/>
      <point x="878" y="535" type="curve" smooth="yes"/>
      <point x="800" y="535"/>
      <point x="694" y="447"/>
      <point x="561" y="270" type="curve"/>
      <point x="534" y="279" type="line"/>
      <point x="521" y="352"/>
      <point x="513" y="403"/>
      <point x="513" y="405" type="curve"/>
      <point x="444" y="371"/>
      <point x="412" y="329"/>
      <point x="412" y="279" type="curve" smooth="yes"/>
      <point x="412" y="241"/>
      <point x="450" y="178"/>
      <point x="497" y="90" type="curve"/>
      <point x="426" y="26"/>
      <point x="359" y="1"/>
      <point x="254" y="1" type="curve" smooth="yes"/>
      <point x="165" y="1"/>
      <point x="123" y="47"/>
      <point x="123" y="142" type="curve" smooth="yes"/>
      <point x="123" y="165"/>
      <point x="128" y="192"/>
      <point x="137" y="222" type="curve"/>
      <point x="93" y="233" type="line"/>
      <point x="76" y="170"/>
      <point x="68" y="122"/>
      <point x="68" y="88" type="curve" smooth="yes"/>
      <point x="68" y="-45"/>
      <point x="132" y="-117"/>
    </contour>
    <contour>
      <point x="751" y="245" type="curve" smooth="yes"/>
      <point x="717" y="245"/>
      <point x="675" y="249"/>
      <point x="626" y="255" type="curve"/>
      <point x="693" y="332"/>
      <point x="783" y="417"/>
      <point x="854" y="417" type="curve" smooth="yes"/>
      <point x="906" y="417"/>
      <point x="963" y="383"/>
      <point x="1022" y="314" type="curve"/>
      <point x="925" y="267"/>
      <point x="847" y="245"/>
    </contour>
  </outline>
</glyph>
<glyph name="uni0637" format="2">
  <advance width="792"/>
  <unicode hex="0637"/>
  <unicode hex="FEC1"/>
  <anchor x="401" y="77" name="bottom"/>
  <anchor x="526" y="628" name="top"/>
  <outline>
    <contour>
      <point x="402" y="135" type="curve" smooth="yes"/>
      <point x="463" y="135"/>
      <point x="520" y="145"/>
      <point x="576" y="165" type="curve" smooth="yes"/>
      <point x="686" y="206"/>
      <point x="741" y="273"/>
      <point x="741" y="361" type="curve" smooth="yes"/>
      <point x="741" y="379"/>
      <point x="729" y="403"/>
      <point x="706" y="432" type="curve" smooth="yes"/>
      <point x="658" y="489"/>
      <point x="587" y="535"/>
      <point x="539" y="535" type="curve" smooth="yes"/>
      <point x="478" y="535"/>
      <point x="399" y="481"/>
      <point x="304" y="373" type="curve"/>
      <point x="302" y="397"/>
      <point x="301" y="417"/>
      <point x="300" y="434" type="curve" smooth="yes"/>
      <point x="288" y="596"/>
      <point x="296" y="487"/>
      <point x="282" y="668" type="curve"/>
      <point x="314" y="692" type="line"/>
      <point x="298" y="732"/>
      <point x="285" y="773"/>
      <point x="273" y="815" type="curve"/>
      <point x="217" y="815"/>
      <point x="172" y="772"/>
      <point x="172" y="717" type="curve" smooth="yes"/>
      <point x="172" y="679"/>
      <point x="200" y="549"/>
      <point x="252" y="310" type="curve"/>
      <point x="239" y="293"/>
      <point x="226" y="275"/>
      <point x="212" y="258" type="curve"/>
      <point x="173" y="264"/>
      <point x="119" y="274"/>
      <point x="49" y="291" type="curve"/>
      <point x="34" y="248" type="line"/>
      <point x="86" y="202"/>
      <point x="148" y="159"/>
      <point x="175" y="151" type="curve" smooth="yes"/>
      <point x="209" y="141"/>
      <point x="325" y="135"/>
    </contour>
    <contour>
      <point x="412" y="245" type="curve" smooth="yes"/>
      <point x="370" y="245"/>
      <point x="327" y="247"/>
      <point x="283" y="250" type="curve"/>
      <point x="385" y="366"/>
      <point x="458" y="417"/>
      <point x="514" y="417" type="curve" smooth="yes"/>
      <point x="567" y="417"/>
      <point x="624" y="383"/>
      <point x="684" y="314" type="curve"/>
      <point x="589" y="268"/>
      <point x="510" y="245"/>
    </contour>
  </outline>
</glyph>
<glyph name="uni0639" format="2">
  <advance width="604"/>
  <unicode hex="0639"/>
  <unicode hex="FEC9"/>
  <anchor x="85" y="-184" name="bottom"/>
  <anchor x="239" y="683" name="top"/>
  <outline>
    <contour>
      <point x="367" y="-166" type="curve" smooth="yes"/>
      <point x="408" y="-166"/>
      <point x="498" y="-128"/>
      <point x="613" y="-57" type="curve"/>
      <point x="600" y="-15" type="line"/>
      <point x="530" y="-31"/>
      <point x="481" y="-41"/>
      <point x="453" y="-45" type="curve" smooth="yes"/>
      <point x="424" y="-49"/>
      <point x="396" y="-51"/>
      <point x="369" y="-51" type="curve" smooth="yes"/>
      <point x="236" y="-51"/>
      <point x="164" y="-6"/>
      <point x="164" y="70" type="curve" smooth="yes"/>
      <point x="164" y="94"/>
      <point x="171" y="118"/>
      <point x="185" y="140" type="curve" smooth="yes"/>
      <point x="213" y="184"/>
      <point x="263" y="217"/>
      <point x="379" y="263" type="curve" smooth="yes"/>
      <point x="415" y="278"/>
      <point x="439" y="289"/>
      <point x="450" y="297" type="curve" smooth="yes"/>
      <point x="475" y="314"/>
      <point x="486" y="336"/>
      <point x="486" y="364" type="curve" smooth="yes"/>
      <point x="486" y="388"/>
      <point x="482" y="405"/>
      <point x="475" y="415" type="curve"/>
      <point x="403" y="391"/>
      <point x="339" y="362"/>
      <point x="281" y="328" type="curve"/>
      <point x="205" y="346"/>
      <point x="158" y="396"/>
      <point x="154" y="468" type="curve"/>
      <point x="197" y="491"/>
      <point x="229" y="500"/>
      <point x="276" y="500" type="curve" smooth="yes"/>
      <point x="306" y="500"/>
      <point x="341" y="493"/>
      <point x="381" y="477" type="curve"/>
      <point x="402" y="517" type="line"/>
      <point x="347" y="579"/>
      <point x="296" y="610"/>
      <point x="250" y="610" type="curve" smooth="yes"/>
      <point x="223" y="610"/>
      <point x="197" y="600"/>
      <point x="172" y="579" type="curve" smooth="yes"/>
      <point x="121" y="537"/>
      <point x="83" y="456"/>
      <point x="83" y="396" type="curve" smooth="yes"/>
      <point x="83" y="379"/>
      <point x="87" y="362"/>
      <point x="95" y="344" type="curve" smooth="yes"/>
      <point x="111" y="308"/>
      <point x="145" y="273"/>
      <point x="188" y="253" type="curve"/>
      <point x="138" y="199"/>
      <point x="113" y="136"/>
      <point x="113" y="64" type="curve" smooth="yes"/>
      <point x="113" y="-77"/>
      <point x="210" y="-166"/>
    </contour>
  </outline>
</glyph>
<glyph name="uni0640" format="2">
  <advance width="210"/>
  <unicode hex="0640"/>
  <anchor x="99" y="0" name="bottom"/>
  <anchor x="99" y="596" name="top"/>
  <outline>
    <contour>
      <point x="0" y="144" type="curve" smooth="yes"/>
      <point x="215" y="144" type="line" smooth="yes"/>
      <point x="221" y="144"/>
      <point x="224" y="147"/>
      <point x="224" y="152" type="curve" smooth="yes"/>
      <point x="224" y="254" type="line" smooth="yes"/>
      <point x="224" y="260"/>
      <point x="221" y="262"/>
      <point x="215" y="262" type="curve" smooth="yes"/>
      <point x="0" y="262" type="line" smooth="yes"/>
      <point x="-6" y="262"/>
      <point x="-8" y="260"/>
      <point x="-8" y="254" type="curve" smooth="yes"/>
      <point x="-8" y="152" type="line" smooth="yes"/>
      <point x="-8" y="147"/>
      <point x="-6" y="144"/>
    </contour>
  </outline>
</glyph>
<glyph name="uni0643" format="2">
  <advance width="618"/>
  <unicode hex="0643"/>
  <unicode hex="FED9"/>
  <anchor x="267" y="77" name="bottom"/>
  <anchor x="257" y="593" name="top"/>
  <outline>
    <contour>
      <point x="264" y="136" type="curve" smooth="yes"/>
      <point x="358" y="136"/>
      <point x="443" y="141"/>
      <point x="520" y="152" type="curve"/>
      <point x="543" y="181"/>
      <point x="559" y="231"/>
      <point x="559" y="265" type="curve" smooth="yes"/>
      <point x="559" y="322"/>
      <point x="548" y="456"/>
      <point x="527" y="668" type="curve"/>
      <point x="559" y="692" type="line"/>
      <point x="544" y="729"/>
      <point x="531" y="770"/>
      <point x="519" y="815" type="curve"/>
      <point x="459" y="815"/>
      <point x="411" y="769"/>
      <point x="411" y="712" type="curve" smooth="yes"/>
      <point x="411" y="682"/>
      <point x="437" y="559"/>
      <point x="452" y="501" type="curve" smooth="yes"/>
      <point x="458" y="474"/>
      <point x="476" y="402"/>
      <point x="508" y="274" type="curve"/>
      <point x="435" y="261"/>
      <point x="360" y="254"/>
      <point x="283" y="254" type="curve" smooth="yes"/>
      <point x="212" y="254"/>
      <point x="112" y="263"/>
      <point x="60" y="275" type="curve"/>
      <point x="46" y="247"/>
      <point x="34" y="194"/>
      <point x="34" y="155" type="curve" smooth="yes"/>
      <point x="34" y="150"/>
      <point x="62" y="145"/>
      <point x="116" y="142" type="curve" smooth="yes"/>
      <point x="171" y="138"/>
      <point x="220" y="136"/>
    </contour>
    <contour>
      <point x="214" y="360" type="curve" smooth="yes"/>
      <point x="262" y="360"/>
      <point x="331" y="413"/>
      <point x="331" y="441" type="curve" smooth="yes"/>
      <point x="331" y="448"/>
      <point x="328" y="455"/>
      <point x="321" y="459" type="curve" smooth="yes"/>
      <point x="304" y="472"/>
      <point x="261" y="471"/>
      <point x="239" y="481" type="curve"/>
      <point x="244" y="503"/>
      <point x="275" y="530"/>
      <point x="291" y="530" type="curve" smooth="yes"/>
      <point x="295" y="530"/>
      <point x="299" y="528"/>
      <point x="302" y="525" type="curve"/>
      <point x="318" y="532" type="line"/>
      <point x="314" y="551"/>
      <point x="303" y="560"/>
      <point x="285" y="560" type="curve" smooth="yes"/>
      <point x="248" y="560"/>
      <point x="206" y="515"/>
      <point x="206" y="483" type="curve" smooth="yes"/>
      <point x="206" y="443"/>
      <point x="242" y="435"/>
      <point x="305" y="434" type="curve"/>
      <point x="301" y="427"/>
      <point x="294" y="420"/>
      <point x="283" y="412" type="curve" smooth="yes"/>
      <point x="260" y="397"/>
      <point x="226" y="383"/>
      <point x="191" y="380" type="curve"/>
      <point x="191" y="369"/>
      <point x="198" y="360"/>
    </contour>
  </outline>
</glyph>
<glyph name="uni0644" format="2">
  <advance width="612"/>
  <unicode hex="0644"/>
  <unicode hex="FEDD"/>
  <anchor x="37" y="-128" name="bottom"/>
  <anchor x="430" y="864" name="top"/>
  <outline>
    <contour>
      <point x="251" y="-117" type="curve" smooth="yes"/>
      <point x="305" y="-117"/>
      <point x="355" y="-107"/>
      <point x="401" y="-85" type="curve" smooth="yes"/>
      <point x="492" y="-43"/>
      <point x="549" y="38"/>
      <point x="549" y="128" type="curve" smooth="yes"/>
      <point x="549" y="201"/>
      <point x="542" y="258"/>
      <point x="532" y="356" type="curve" smooth="yes"/>
      <point x="502" y="668" type="line"/>
      <point x="534" y="692" type="line"/>
      <point x="519" y="729"/>
      <point x="506" y="770"/>
      <point x="494" y="815" type="curve"/>
      <point x="435" y="815"/>
      <point x="386" y="769"/>
      <point x="386" y="713" type="curve" smooth="yes"/>
      <point x="386" y="686"/>
      <point x="442" y="354"/>
      <point x="471" y="207" type="curve" smooth="yes"/>
      <point x="493" y="90" type="line"/>
      <point x="472" y="71"/>
      <point x="451" y="54"/>
      <point x="430" y="42" type="curve" smooth="yes"/>
      <point x="380" y="13"/>
      <point x="326" y="1"/>
      <point x="253" y="1" type="curve" smooth="yes"/>
      <point x="165" y="1"/>
      <point x="123" y="47"/>
      <point x="123" y="142" type="curve" smooth="yes"/>
      <point x="123" y="165"/>
      <point x="127" y="192"/>
      <point x="136" y="222" type="curve"/>
      <point x="92" y="233" type="line"/>
      <point x="76" y="170"/>
      <point x="67" y="122"/>
      <point x="67" y="88" type="curve" smooth="yes"/>
      <point x="67" y="-45"/>
      <point x="131" y="-117"/>
    </contour>
  </outline>
</glyph>
<glyph name="uni0645" format="2">
  <advance width="502"/>
  <unicode hex="0645"/>
  <unicode hex="FEE1"/>
  <anchor x="303" y="77" name="bottom"/>
  <anchor x="227" y="591" name="top"/>
  <outline>
    <contour>
      <point x="74" y="-193" type="curve"/>
      <point x="107" y="-181"/>
      <point x="140" y="-162"/>
      <point x="175" y="-137" type="curve"/>
      <point x="163" y="-78"/>
      <point x="151" y="-20"/>
      <point x="139" y="38" type="curve" smooth="yes"/>
      <point x="131" y="75"/>
      <point x="123" y="113"/>
      <point x="115" y="150" type="curve"/>
      <point x="162" y="167"/>
      <point x="312" y="186"/>
      <point x="422" y="186" type="curve"/>
      <point x="468" y="305" type="line"/>
      <point x="427" y="334"/>
      <point x="391" y="376"/>
      <point x="348" y="439" type="curve" smooth="yes"/>
      <point x="308" y="496"/>
      <point x="282" y="518"/>
      <point x="250" y="518" type="curve" smooth="yes"/>
      <point x="195" y="518"/>
      <point x="137" y="453"/>
      <point x="99" y="354" type="curve"/>
      <point x="140" y="333" type="line"/>
      <point x="172" y="378"/>
      <point x="200" y="401"/>
      <point x="231" y="401" type="curve" smooth="yes"/>
      <point x="263" y="401"/>
      <point x="290" y="359"/>
      <point x="324" y="315" type="curve" smooth="yes"/>
      <point x="343" y="294" type="line"/>
      <point x="289" y="294"/>
      <point x="102" y="271"/>
      <point x="93" y="253" type="curve" smooth="yes"/>
      <point x="65" y="193"/>
      <point x="51" y="153"/>
      <point x="51" y="135" type="curve" smooth="yes"/>
      <point x="51" y="111"/>
      <point x="55" y="65"/>
      <point x="62" y="-3" type="curve" smooth="yes"/>
      <point x="70" y="-70"/>
      <point x="74" y="-133"/>
    </contour>
  </outline>
</glyph>
<glyph name="uni0647" format="2">
  <advance width="425"/>
  <unicode hex="0647"/>
  <unicode hex="FEE9"/>
  <anchor x="215" y="77" name="bottom"/>
  <anchor x="169" y="603" name="top"/>
  <outline>
    <contour>
      <point x="199" y="135" type="curve" smooth="yes"/>
      <point x="239" y="135"/>
      <point x="278" y="146"/>
      <point x="303" y="163" type="curve" smooth="yes"/>
      <point x="332" y="181"/>
      <point x="374" y="282"/>
      <point x="374" y="320" type="curve" smooth="yes"/>
      <point x="374" y="350"/>
      <point x="365" y="381"/>
      <point x="346" y="416" type="curve" smooth="yes"/>
      <point x="308" y="484"/>
      <point x="239" y="541"/>
      <point x="163" y="565" type="curve"/>
      <point x="144" y="555"/>
      <point x="132" y="527"/>
      <point x="132" y="499" type="curve" smooth="yes"/>
      <point x="132" y="479"/>
      <point x="137" y="458"/>
      <point x="159" y="445" type="curve"/>
      <point x="95" y="381"/>
      <point x="68" y="325"/>
      <point x="68" y="270" type="curve" smooth="yes"/>
      <point x="68" y="192"/>
      <point x="123" y="135"/>
    </contour>
    <contour>
      <point x="210" y="240" type="curve" smooth="yes"/>
      <point x="172" y="240"/>
      <point x="143" y="266"/>
      <point x="143" y="303" type="curve" smooth="yes"/>
      <point x="143" y="339"/>
      <point x="162" y="376"/>
      <point x="201" y="414" type="curve"/>
      <point x="256" y="373"/>
      <point x="289" y="327"/>
      <point x="309" y="268" type="curve"/>
      <point x="280" y="250"/>
      <point x="247" y="240"/>
    </contour>
  </outline>
</glyph>
<glyph name="uni0648" format="2">
  <advance width="497"/>
  <unicode hex="0648"/>
  <unicode hex="FEED"/>
  <anchor x="193" y="-109" name="bottom"/>
  <anchor x="271" y="534" name="top"/>
  <outline>
    <contour>
      <point x="195" y="-60" type="curve" smooth="yes"/>
      <point x="240" y="-60"/>
      <point x="282" y="-48"/>
      <point x="321" y="-22" type="curve" smooth="yes"/>
      <point x="398" y="29"/>
      <point x="445" y="123"/>
      <point x="445" y="224" type="curve" smooth="yes"/>
      <point x="445" y="266"/>
      <point x="437" y="309"/>
      <point x="421" y="354" type="curve" smooth="yes"/>
      <point x="388" y="444"/>
      <point x="333" y="501"/>
      <point x="276" y="501" type="curve" smooth="yes"/>
      <point x="252" y="501"/>
      <point x="228" y="490"/>
      <point x="206" y="468" type="curve" smooth="yes"/>
      <point x="160" y="425"/>
      <point x="130" y="348"/>
      <point x="130" y="273" type="curve" smooth="yes"/>
      <point x="130" y="185"/>
      <point x="177" y="135"/>
      <point x="260" y="135" type="curve" smooth="yes"/>
      <point x="306" y="135"/>
      <point x="353" y="160"/>
      <point x="392" y="200" type="curve"/>
      <point x="393" y="193" type="line"/>
      <point x="363" y="104"/>
      <point x="281" y="49"/>
      <point x="177" y="49" type="curve" smooth="yes"/>
      <point x="139" y="49"/>
      <point x="103" y="54"/>
      <point x="67" y="63" type="curve"/>
      <point x="51" y="21" type="line"/>
      <point x="101" y="-21"/>
      <point x="170" y="-60"/>
    </contour>
    <contour>
      <point x="280" y="245" type="curve" smooth="yes"/>
      <point x="219" y="245"/>
      <point x="184" y="266"/>
      <point x="184" y="306" type="curve" smooth="yes"/>
      <point x="184" y="315"/>
      <point x="185" y="324"/>
      <point x="188" y="333" type="curve" smooth="yes"/>
      <point x="199" y="361"/>
      <point x="226" y="381"/>
      <point x="259" y="381" type="curve" smooth="yes"/>
      <point x="275" y="381"/>
      <point x="290" y="375"/>
      <point x="305" y="365" type="curve" smooth="yes"/>
      <point x="336" y="344"/>
      <point x="363" y="299"/>
      <point x="375" y="262" type="curve"/>
      <point x="342" y="251"/>
      <point x="310" y="245"/>
    </contour>
  </outline>
</glyph>
<glyph name="uni0649" format="2">
  <advance width="636"/>
  <unicode hex="0649"/>
  <unicode hex="FEEF"/>
  <anchor x="25" y="-110" name="bottom"/>
  <anchor x="215" y="445" name="top"/>
  <outline>
    <contour>
      <point x="251" y="-117" type="curve" smooth="yes"/>
      <point x="304" y="-117"/>
      <point x="357" y="-105"/>
      <point x="410" y="-80" type="curve" smooth="yes"/>
      <point x="518" y="-30"/>
      <point x="597" y="55"/>
      <point x="597" y="116" type="curve" smooth="yes"/>
      <point x="597" y="146"/>
      <point x="583" y="183"/>
      <point x="563" y="198" type="curve" smooth="yes"/>
      <point x="543" y="214"/>
      <point x="518" y="222"/>
      <point x="472" y="228" type="curve" smooth="yes"/>
      <point x="420" y="234"/>
      <point x="380" y="242"/>
      <point x="354" y="253" type="curve"/>
      <point x="365" y="280"/>
      <point x="380" y="305"/>
      <point x="400" y="327" type="curve" smooth="yes"/>
      <point x="441" y="373"/>
      <point x="490" y="401"/>
      <point x="526" y="401" type="curve" smooth="yes"/>
      <point x="538" y="401"/>
      <point x="548" y="395"/>
      <point x="558" y="382" type="curve"/>
      <point x="602" y="391" type="line"/>
      <point x="589" y="476"/>
      <point x="560" y="520"/>
      <point x="514" y="520" type="curve" smooth="yes"/>
      <point x="485" y="520"/>
      <point x="453" y="506"/>
      <point x="420" y="479" type="curve" smooth="yes"/>
      <point x="353" y="423"/>
      <point x="303" y="329"/>
      <point x="303" y="254" type="curve" smooth="yes"/>
      <point x="303" y="220"/>
      <point x="311" y="193"/>
      <point x="327" y="171" type="curve" smooth="yes"/>
      <point x="355" y="134"/>
      <point x="411" y="113"/>
      <point x="500" y="108" type="curve" smooth="yes"/>
      <point x="514" y="107"/>
      <point x="530" y="107"/>
      <point x="546" y="107" type="curve"/>
      <point x="519" y="86"/>
      <point x="489" y="68"/>
      <point x="458" y="52" type="curve" smooth="yes"/>
      <point x="393" y="20"/>
      <point x="322" y="1"/>
      <point x="263" y="1" type="curve" smooth="yes"/>
      <point x="170" y="1"/>
      <point x="123" y="49"/>
      <point x="123" y="142" type="curve" smooth="yes"/>
      <point x="123" y="165"/>
      <point x="128" y="192"/>
      <point x="137" y="222" type="curve"/>
      <point x="93" y="233" type="line"/>
      <point x="76" y="170"/>
      <point x="68" y="122"/>
      <point x="68" y="88" type="curve" smooth="yes"/>
      <point x="68" y="-45"/>
      <point x="132" y="-117"/>
    </contour>
  </outline>
</glyph>
<glyph name="uni064B" format="2">
  <unicode hex="064B"/>
  <anchor x="85" y="594" name="_top"/>
  <anchor x="85" y="594" name="_top2"/>
  <anchor x="85" y="594" name="_top3"/>
  <anchor x="63" y="785" name="top3"/>
  <outline>
    <contour>
      <point x="-11" y="593" type="line"/>
      <point x="56" y="614"/>
      <point x="109" y="633"/>
      <point x="148" y="651" type="curve" smooth="yes"/>
      <point x="163" y="658"/>
      <point x="171" y="670"/>
      <point x="171" y="687" type="curve"/>
      <point x="170" y="697" type="line"/>
      <point x="100" y="670"/>
      <point x="42" y="650"/>
      <point x="-7" y="635" type="curve"/>
    </contour>
    <contour>
      <point x="-21" y="664" type="line"/>
      <point x="42" y="682"/>
      <point x="95" y="699"/>
      <point x="137" y="718" type="curve" smooth="yes"/>
      <point x="152" y="724"/>
      <point x="159" y="737"/>
      <point x="159" y="755" type="curve"/>
      <point x="158" y="766" type="line"/>
      <point x="99" y="742"/>
      <point x="40" y="722"/>
      <point x="-18" y="704" type="curve"/>
    </contour>
  </outline>
</glyph>
<glyph name="uni064C" format="2">
  <unicode hex="064C"/>
  <anchor x="85" y="580" name="_top"/>
  <anchor x="85" y="580" name="_top2"/>
  <anchor x="85" y="580" name="_top3"/>
  <anchor x="77" y="774" name="top3"/>
  <outline>
    <contour>
      <point x="17" y="580" type="curve" smooth="yes"/>
      <point x="35" y="580"/>
      <point x="80" y="605"/>
      <point x="106" y="632" type="curve"/>
      <point x="120" y="631" type="line"/>
      <point x="147" y="631"/>
      <point x="159" y="638"/>
      <point x="160" y="658" type="curve"/>
      <point x="150" y="659"/>
      <point x="140" y="660"/>
      <point x="129" y="660" type="curve"/>
      <point x="132" y="666"/>
      <point x="133" y="675"/>
      <point x="133" y="686" type="curve" smooth="yes"/>
      <point x="133" y="709"/>
      <point x="130" y="725"/>
      <point x="123" y="735" type="curve" smooth="yes"/>
      <point x="115" y="745"/>
      <point x="108" y="750"/>
      <point x="99" y="750" type="curve" smooth="yes"/>
      <point x="72" y="750"/>
      <point x="41" y="719"/>
      <point x="41" y="689" type="curve" smooth="yes"/>
      <point x="41" y="668"/>
      <point x="58" y="650"/>
      <point x="78" y="641" type="curve"/>
      <point x="62" y="628"/>
      <point x="42" y="619"/>
      <point x="18" y="614" type="curve"/>
      <point x="21" y="623"/>
      <point x="22" y="632"/>
      <point x="22" y="640" type="curve" smooth="yes"/>
      <point x="22" y="664"/>
      <point x="13" y="676"/>
      <point x="-4" y="676" type="curve" smooth="yes"/>
      <point x="-18" y="676"/>
      <point x="-35" y="663"/>
      <point x="-55" y="637" type="curve"/>
      <point x="-47" y="627" type="line"/>
      <point x="-29" y="635"/>
      <point x="-18" y="640"/>
      <point x="-14" y="640" type="curve" smooth="yes"/>
      <point x="-7" y="640"/>
      <point x="-4" y="635"/>
      <point x="-4" y="625" type="curve"/>
      <point x="-8" y="599" type="line"/>
      <point x="-8" y="596"/>
      <point x="13" y="580"/>
    </contour>
    <contour>
      <point x="104" y="666" type="line"/>
      <point x="78" y="676"/>
      <point x="65" y="688"/>
      <point x="65" y="703" type="curve" smooth="yes"/>
      <point x="65" y="709"/>
      <point x="75" y="718"/>
      <point x="87" y="718" type="curve" smooth="yes"/>
      <point x="102" y="718"/>
      <point x="108" y="701"/>
      <point x="108" y="684" type="curve" smooth="yes"/>
      <point x="108" y="680"/>
      <point x="108" y="676"/>
      <point x="106" y="671" type="curve" smooth="yes"/>
    </contour>
  </outline>
</glyph>
<glyph name="uni064D" format="2">
  <unicode hex="064D"/>
  <anchor x="79" y="150" name="_bottom"/>
  <anchor x="79" y="150" name="_bottom2"/>
  <anchor x="79" y="150" name="_bottom3"/>
  <anchor x="102" y="10" name="bottom3"/>
  <outline>
    <contour>
      <point x="0" y="62" type="line"/>
      <point x="75" y="85"/>
      <point x="115" y="99"/>
      <point x="137" y="109" type="curve" smooth="yes"/>
      <point x="165" y="121"/>
      <point x="175" y="126"/>
      <point x="175" y="146" type="curve" smooth="yes"/>
      <point x="174" y="152" type="line"/>
      <point x="124" y="132"/>
      <point x="66" y="113"/>
      <point x="3" y="95" type="curve"/>
    </contour>
    <contour>
      <point x="7" y="10" type="line"/>
      <point x="77" y="32"/>
      <point x="119" y="46"/>
      <point x="133" y="52" type="curve" smooth="yes"/>
      <point x="166" y="65"/>
      <point x="182" y="70"/>
      <point x="182" y="93" type="curve" smooth="yes"/>
      <point x="182" y="100" type="line"/>
      <point x="131" y="80"/>
      <point x="74" y="61"/>
      <point x="10" y="43" type="curve"/>
    </contour>
  </outline>
</glyph>
<glyph name="uni064E" format="2">
  <unicode hex="064E"/>
  <anchor x="90" y="595" name="_top"/>
  <anchor x="90" y="595" name="_top2"/>
  <anchor x="90" y="595" name="_top3"/>
  <anchor x="77" y="719" name="top3"/>
  <outline>
    <contour>
      <point x="-11" y="596" type="line"/>
      <point x="58" y="617"/>
      <point x="111" y="636"/>
      <point x="148" y="654" type="curve" smooth="yes"/>
      <point x="164" y="661"/>
      <point x="171" y="673"/>
      <point x="171" y="689" type="curve"/>
      <point x="170" y="700" type="line"/>
      <point x="137" y="687"/>
      <point x="78" y="666"/>
      <point x="-6" y="638" type="curve"/>
    </contour>
  </outline>
</glyph>
<glyph name="uni064F" format="2">
  <unicode hex="064F"/>
  <anchor x="74" y="578" name="_top"/>
  <anchor x="74" y="578" name="_top2"/>
  <anchor x="74" y="578" name="_top3"/>
  <anchor x="58" y="774" name="top3"/>
  <outline>
    <contour>
      <point x="0" y="578" type="curve" smooth="yes"/>
      <point x="25" y="578"/>
      <point x="61" y="598"/>
      <point x="95" y="632" type="curve"/>
      <point x="107" y="631" type="line"/>
      <point x="135" y="631"/>
      <point x="146" y="638"/>
      <point x="147" y="658" type="curve"/>
      <point x="116" y="660" type="line"/>
      <point x="119" y="669"/>
      <point x="121" y="677"/>
      <point x="121" y="686" type="curve" smooth="yes"/>
      <point x="121" y="709"/>
      <point x="117" y="725"/>
      <point x="110" y="735" type="curve" smooth="yes"/>
      <point x="103" y="745"/>
      <point x="95" y="750"/>
      <point x="86" y="750" type="curve" smooth="yes"/>
      <point x="60" y="750"/>
      <point x="28" y="720"/>
      <point x="28" y="688" type="curve" smooth="yes"/>
      <point x="28" y="668"/>
      <point x="41" y="652"/>
      <point x="65" y="641" type="curve"/>
      <point x="37" y="622"/>
      <point x="6" y="609"/>
      <point x="-28" y="603" type="curve"/>
      <point x="-28" y="587"/>
      <point x="-17" y="578"/>
    </contour>
    <contour>
      <point x="91" y="666" type="line"/>
      <point x="65" y="676"/>
      <point x="52" y="688"/>
      <point x="52" y="703" type="curve" smooth="yes"/>
      <point x="52" y="709"/>
      <point x="62" y="718"/>
      <point x="74" y="718" type="curve" smooth="yes"/>
      <point x="89" y="718"/>
      <point x="96" y="701"/>
      <point x="96" y="684" type="curve" smooth="yes"/>
      <point x="96" y="680"/>
      <point x="95" y="676"/>
      <point x="93" y="671" type="curve" smooth="yes"/>
    </contour>
  </outline>
</glyph>
<glyph name="uni0650" format="2">
  <unicode hex="0650"/>
  <anchor x="80" y="150" name="_bottom"/>
  <anchor x="70" y="138" name="_bottom2"/>
  <anchor x="70" y="137" name="_bottom3"/>
  <anchor x="86" y="36" name="bottom3"/>
  <outline>
    <contour>
      <point x="-11" y="35" type="line"/>
      <point x="58" y="56"/>
      <point x="111" y="75"/>
      <point x="148" y="93" type="curve" smooth="yes"/>
      <point x="164" y="100"/>
      <point x="171" y="112"/>
      <point x="171" y="129" type="curve"/>
      <point x="170" y="139" type="line"/>
      <point x="137" y="126"/>
      <point x="78" y="105"/>
      <point x="-6" y="77" type="curve"/>
    </contour>
  </outline>
</glyph>
<glyph name="uni0651" format="2">
  <unicode hex="0651"/>
  <anchor x="69" y="582" name="_top"/>
  <anchor x="69" y="582" name="_top2"/>
  <anchor x="69" y="582" name="_top3"/>
  <anchor x="54" y="737" name="top3"/>
  <outline>
    <contour>
      <point x="24" y="592" type="curve" smooth="yes"/>
      <point x="42" y="592"/>
      <point x="59" y="603"/>
      <point x="68" y="626" type="curve"/>
      <point x="76" y="616"/>
      <point x="86" y="612"/>
      <point x="100" y="612" type="curve" smooth="yes"/>
      <point x="126" y="612"/>
      <point x="148" y="637"/>
      <point x="148" y="668" type="curve" smooth="yes"/>
      <point x="148" y="678"/>
      <point x="144" y="704"/>
      <point x="132" y="727" type="curve"/>
      <point x="120" y="724"/>
      <point x="108" y="711"/>
      <point x="108" y="700" type="curve"/>
      <point x="110" y="692" type="line"/>
      <point x="118" y="675"/>
      <point x="123" y="663"/>
      <point x="124" y="656" type="curve"/>
      <point x="122" y="651"/>
      <point x="114" y="645"/>
      <point x="106" y="645" type="curve" smooth="yes"/>
      <point x="80" y="645"/>
      <point x="73" y="664"/>
      <point x="69" y="697" type="curve"/>
      <point x="48" y="684" type="line"/>
      <point x="50" y="653" type="line" smooth="yes"/>
      <point x="50" y="636"/>
      <point x="40" y="625"/>
      <point x="26" y="625" type="curve" smooth="yes"/>
      <point x="12" y="625"/>
      <point x="5" y="634"/>
      <point x="5" y="650" type="curve" smooth="yes"/>
      <point x="5" y="659"/>
      <point x="6" y="667"/>
      <point x="8" y="674" type="curve"/>
      <point x="-5" y="677" type="line"/>
      <point x="-13" y="662"/>
      <point x="-17" y="648"/>
      <point x="-17" y="635" type="curve" smooth="yes"/>
      <point x="-17" y="606"/>
      <point x="0" y="592"/>
    </contour>
  </outline>
</glyph>
<glyph name="uni0652" format="2">
  <unicode hex="0652"/>
  <anchor x="66" y="593" name="_top"/>
  <anchor x="66" y="593" name="_top2"/>
  <anchor x="66" y="593" name="_top3"/>
  <anchor x="66" y="739" name="top3"/>
  <outline>
    <contour>
      <point x="65" y="603" type="curve" smooth="yes"/>
      <point x="92" y="603"/>
      <point x="118" y="628"/>
      <point x="118" y="659" type="curve" smooth="yes"/>
      <point x="118" y="697"/>
      <point x="93" y="725"/>
      <point x="66" y="725" type="curve" smooth="yes"/>
      <point x="40" y="725"/>
      <point x="16" y="697"/>
      <point x="16" y="659" type="curve" smooth="yes"/>
      <point x="16" y="627"/>
      <point x="36" y="603"/>
    </contour>
    <contour>
      <point x="66" y="638" type="curve" smooth="yes"/>
      <point x="42" y="638"/>
      <point x="36" y="653"/>
      <point x="36" y="665" type="curve" smooth="yes"/>
      <point x="36" y="680"/>
      <point x="50" y="689"/>
      <point x="61" y="689" type="curve" smooth="yes"/>
      <point x="79" y="689"/>
      <point x="98" y="671"/>
      <point x="98" y="659" type="curve" smooth="yes"/>
      <point x="98" y="650"/>
      <point x="82" y="638"/>
    </contour>
  </outline>
</glyph>
<glyph name="uni0653" format="2">
  <unicode hex="0653"/>
  <anchor x="67" y="696" name="_top"/>
  <anchor x="67" y="696" name="_top2"/>
  <anchor x="67" y="696" name="_top3"/>
  <anchor x="68" y="792" name="top3"/>
  <outline>
    <contour>
      <point x="-56" y="704" type="line"/>
      <point x="-8" y="727" type="line"/>
      <point x="30" y="713"/>
      <point x="64" y="706"/>
      <point x="95" y="706" type="curve" smooth="yes"/>
      <point x="119" y="706"/>
      <point x="160" y="725"/>
      <point x="187" y="752" type="curve"/>
      <point x="179" y="774" type="line"/>
      <point x="160" y="765"/>
      <point x="121" y="756"/>
      <point x="99" y="756" type="curve" smooth="yes"/>
      <point x="82" y="756"/>
      <point x="54" y="760"/>
      <point x="15" y="770" type="curve"/>
      <point x="-2" y="772" type="line"/>
      <point x="-7" y="772"/>
      <point x="-29" y="756"/>
      <point x="-68" y="724" type="curve"/>
    </contour>
  </outline>
</glyph>
<glyph name="uni0654" format="2">
  <unicode hex="0654"/>
  <anchor x="81" y="600" name="_top"/>
  <anchor x="81" y="600" name="_top2"/>
  <anchor x="81" y="600" name="_top3"/>
  <anchor x="60" y="815" name="top3"/>
  <outline>
    <contour>
      <point x="13" y="595" type="line"/>
      <point x="62" y="621"/>
      <point x="87" y="629"/>
      <point x="135" y="640" type="curve"/>
      <point x="139" y="684" type="line"/>
      <point x="124" y="681"/>
      <point x="111" y="680"/>
      <point x="100" y="680" type="curve" smooth="yes"/>
      <point x="79" y="680"/>
      <point x="62" y="686"/>
      <point x="50" y="698" type="curve"/>
      <point x="59" y="715"/>
      <point x="71" y="723"/>
      <point x="85" y="723" type="curve" smooth="yes"/>
      <point x="93" y="723"/>
      <point x="97" y="720"/>
      <point x="97" y="714" type="curve" smooth="yes"/>
      <point x="97" y="711" type="line"/>
      <point x="117" y="708" type="line"/>
      <point x="120" y="714"/>
      <point x="121" y="722"/>
      <point x="121" y="731" type="curve" smooth="yes"/>
      <point x="121" y="761"/>
      <point x="109" y="776"/>
      <point x="84" y="776" type="curve" smooth="yes"/>
      <point x="53" y="776"/>
      <point x="14" y="732"/>
      <point x="14" y="697" type="curve" smooth="yes"/>
      <point x="14" y="679"/>
      <point x="25" y="666"/>
      <point x="46" y="658" type="curve"/>
      <point x="10" y="637" type="line"/>
    </contour>
  </outline>
</glyph>
<glyph name="uni0655" format="2">
  <unicode hex="0655"/>
  <anchor x="84" y="189" name="_bottom"/>
  <anchor x="84" y="189" name="_bottom2"/>
  <anchor x="84" y="189" name="_bottom3"/>
  <anchor x="102" y="9" name="bottom3"/>
  <outline>
    <contour>
      <point x="28" y="-2" type="line"/>
      <point x="77" y="23"/>
      <point x="102" y="31"/>
      <point x="150" y="42" type="curve"/>
      <point x="154" y="87" type="line"/>
      <point x="140" y="84"/>
      <point x="127" y="82"/>
      <point x="115" y="82" type="curve" smooth="yes"/>
      <point x="94" y="82"/>
      <point x="78" y="88"/>
      <point x="66" y="100" type="curve"/>
      <point x="75" y="117"/>
      <point x="86" y="125"/>
      <point x="101" y="125" type="curve" smooth="yes"/>
      <point x="109" y="125"/>
      <point x="113" y="122"/>
      <point x="113" y="116" type="curve" smooth="yes"/>
      <point x="113" y="114" type="line"/>
      <point x="132" y="110" type="line"/>
      <point x="135" y="117"/>
      <point x="137" y="124"/>
      <point x="137" y="134" type="curve" smooth="yes"/>
      <point x="137" y="163"/>
      <point x="124" y="178"/>
      <point x="100" y="178" type="curve" smooth="yes"/>
      <point x="69" y="178"/>
      <point x="30" y="135"/>
      <point x="30" y="99" type="curve" smooth="yes"/>
      <point x="30" y="81"/>
      <point x="41" y="68"/>
      <point x="62" y="61" type="curve"/>
      <point x="26" y="39" type="line"/>
    </contour>
  </outline>
</glyph>
<glyph name="uni0656" format="2">
  <unicode hex="0656"/>
  <anchor x="9" y="141" name="_bottom"/>
  <anchor x="9" y="141" name="_bottom2"/>
  <anchor x="9" y="141" name="_bottom3"/>
  <anchor x="11" y="-118" name="bottom3"/>
  <outline>
    <contour>
      <point x="11" y="-109" type="line"/>
      <point x="28" y="-85"/>
      <point x="37" y="-56"/>
      <point x="37" y="-23" type="curve" smooth="yes"/>
      <point x="37" y="41"/>
      <point x="32" y="76"/>
      <point x="22" y="127" type="curve"/>
      <point x="0" y="118"/>
      <point x="-15" y="97"/>
      <point x="-15" y="71" type="curve" smooth="yes"/>
      <point x="-15" y="64"/>
      <point x="-14" y="57"/>
      <point x="-12" y="48" type="curve" smooth="yes"/>
      <point x="-1" y="3"/>
      <point x="5" y="-49"/>
      <point x="5" y="-107" type="curve"/>
    </contour>
  </outline>
</glyph>
<glyph name="uni0657" format="2">
  <unicode hex="0657"/>
  <anchor x="75" y="600" name="_top"/>
  <anchor x="75" y="600" name="_top2"/>
  <anchor x="75" y="600" name="_top3"/>
  <anchor x="78" y="829" name="top3"/>
  <outline>
    <contour>
      <point x="70" y="610" type="curve" smooth="yes"/>
      <point x="102" y="610"/>
      <point x="139" y="646"/>
      <point x="139" y="683" type="curve" smooth="yes"/>
      <point x="139" y="707"/>
      <point x="121" y="727"/>
      <point x="94" y="739" type="curve"/>
      <point x="96" y="740" type="line" smooth="yes"/>
      <point x="127" y="762"/>
      <point x="164" y="776"/>
      <point x="206" y="783" type="curve"/>
      <point x="206" y="803"/>
      <point x="192" y="814"/>
      <point x="171" y="814" type="curve" smooth="yes"/>
      <point x="143" y="814"/>
      <point x="100" y="791"/>
      <point x="59" y="750" type="curve"/>
      <point x="45" y="751" type="line"/>
      <point x="14" y="751"/>
      <point x="0" y="743"/>
      <point x="-3" y="719" type="curve"/>
      <point x="9" y="719"/>
      <point x="21" y="718"/>
      <point x="34" y="716" type="curve"/>
      <point x="31" y="708"/>
      <point x="29" y="698"/>
      <point x="29" y="686" type="curve" smooth="yes"/>
      <point x="29" y="639"/>
      <point x="46" y="610"/>
    </contour>
    <contour>
      <point x="84" y="648" type="curve" smooth="yes"/>
      <point x="67" y="648"/>
      <point x="59" y="668"/>
      <point x="59" y="689" type="curve" smooth="yes"/>
      <point x="59" y="697"/>
      <point x="60" y="703"/>
      <point x="64" y="709" type="curve"/>
      <point x="87" y="704"/>
      <point x="110" y="687"/>
      <point x="110" y="666" type="curve" smooth="yes"/>
      <point x="110" y="659"/>
      <point x="98" y="648"/>
    </contour>
  </outline>
</glyph>
<glyph name="uni0658" format="2">
  <unicode hex="0658"/>
  <anchor x="92" y="648" name="_top"/>
  <anchor x="92" y="648" name="_top2"/>
  <anchor x="92" y="648" name="_top3"/>
  <anchor x="102" y="805" name="top3"/>
  <outline>
    <contour>
      <point x="92" y="658" type="curve" smooth="yes"/>
      <point x="135" y="658"/>
      <point x="165" y="699"/>
      <point x="176" y="778" type="curve"/>
      <point x="160" y="781" type="line"/>
      <point x="149" y="727"/>
      <point x="127" y="699"/>
      <point x="95" y="699" type="curve" smooth="yes"/>
      <point x="61" y="699"/>
      <point x="40" y="727"/>
      <point x="34" y="781" type="curve"/>
      <point x="22" y="781"/>
      <point x="10" y="768"/>
      <point x="10" y="753" type="curve" smooth="yes"/>
      <point x="10" y="738"/>
      <point x="14" y="722"/>
      <point x="21" y="706" type="curve" smooth="yes"/>
      <point x="36" y="674"/>
      <point x="61" y="658"/>
    </contour>
  </outline>
</glyph>
<glyph name="uni0659" format="2">
  <unicode hex="0659"/>
  <anchor x="125" y="596" name="_top"/>
  <anchor x="125" y="596" name="_top2"/>
  <anchor x="125" y="596" name="_top3"/>
  <anchor x="122" y="676" name="top3"/>
  <outline>
    <contour>
      <point x="26" y="606" type="line"/>
      <point x="100" y="607"/>
      <point x="170" y="615"/>
      <point x="208" y="618" type="curve" smooth="yes"/>
      <point x="218" y="619"/>
      <point x="226" y="636"/>
      <point x="226" y="651" type="curve"/>
      <point x="132" y="644"/>
      <point x="69" y="640"/>
      <point x="34" y="640" type="curve"/>
    </contour>
  </outline>
</glyph>
<glyph name="uni065A" format="2">
  <unicode hex="065A"/>
  <anchor x="138" y="453" name="_top"/>
  <anchor x="138" y="453" name="_top2"/>
  <anchor x="138" y="453" name="_top3"/>
  <anchor x="125" y="641" name="top3"/>
  <outline>
    <contour>
      <point x="108" y="463" type="curve"/>
      <point x="128" y="466"/>
      <point x="144" y="471"/>
      <point x="157" y="479" type="curve"/>
      <point x="176" y="538"/>
      <point x="207" y="586"/>
      <point x="207" y="598" type="curve" smooth="yes"/>
      <point x="207" y="615"/>
      <point x="196" y="625"/>
      <point x="185" y="626" type="curve"/>
      <point x="171" y="609"/>
      <point x="146" y="549"/>
      <point x="139" y="511" type="curve"/>
      <point x="130" y="533"/>
      <point x="121" y="552"/>
      <point x="112" y="568" type="curve" smooth="yes"/>
      <point x="92" y="602"/>
      <point x="80" y="613"/>
      <point x="60" y="613" type="curve" smooth="yes"/>
      <point x="55" y="613"/>
      <point x="50" y="612"/>
      <point x="45" y="611" type="curve" smooth="yes"/>
      <point x="29" y="607" type="line"/>
      <point x="62" y="562"/>
      <point x="84" y="513"/>
    </contour>
  </outline>
</glyph>
<glyph name="uni065B" format="2">
  <unicode hex="065B"/>
  <anchor x="119" y="474" name="_top"/>
  <anchor x="119" y="474" name="_top2"/>
  <anchor x="119" y="474" name="_top3"/>
  <anchor x="93" y="662" name="top3"/>
  <outline>
    <contour>
      <point x="51" y="484" type="curve"/>
      <point x="67" y="506"/>
      <point x="91" y="563"/>
      <point x="97" y="599" type="curve"/>
      <point x="113" y="560"/>
      <point x="129" y="531"/>
      <point x="145" y="512" type="curve" smooth="yes"/>
      <point x="153" y="502"/>
      <point x="163" y="497"/>
      <point x="176" y="497" type="curve" smooth="yes"/>
      <point x="186" y="497"/>
      <point x="200" y="501"/>
      <point x="207" y="504" type="curve"/>
      <point x="182" y="538"/>
      <point x="156" y="586"/>
      <point x="128" y="648" type="curve"/>
      <point x="109" y="645"/>
      <point x="93" y="639"/>
      <point x="80" y="631" type="curve"/>
      <point x="59" y="573"/>
      <point x="29" y="522"/>
      <point x="29" y="512" type="curve" smooth="yes"/>
      <point x="29" y="494"/>
      <point x="40" y="485"/>
    </contour>
  </outline>
</glyph>
<glyph name="uni065C" format="2">
  <unicode hex="065C"/>
  <anchor x="0" y="-30" name="_bottom"/>
  <anchor x="0" y="-30" name="_bottom2"/>
  <anchor x="0" y="-30" name="_bottom3"/>
  <anchor x="0" y="-201" name="bottom3"/>
  <outline>
    <contour>
      <point x="0" y="-191" type="curve" smooth="yes"/>
      <point x="40" y="-191"/>
      <point x="73" y="-158"/>
      <point x="73" y="-118" type="curve" smooth="yes"/>
      <point x="73" y="-78"/>
      <point x="40" y="-45"/>
      <point x="0" y="-45" type="curve" smooth="yes"/>
      <point x="-40" y="-45"/>
      <point x="-73" y="-78"/>
      <point x="-73" y="-118" type="curve" smooth="yes"/>
      <point x="-73" y="-158"/>
      <point x="-40" y="-191"/>
    </contour>
  </outline>
</glyph>
<glyph name="uni065D" format="2">
  <unicode hex="065D"/>
  <anchor x="79" y="618" name="_top"/>
  <anchor x="79" y="618" name="_top2"/>
  <anchor x="79" y="618" name="_top3"/>
  <anchor x="86" y="847" name="top3"/>
  <outline>
    <contour>
      <point x="186" y="628" type="curve" smooth="yes"/>
      <point x="207" y="628"/>
      <point x="221" y="639"/>
      <point x="221" y="659" type="curve"/>
      <point x="180" y="666"/>
      <point x="145" y="680"/>
      <point x="109" y="703" type="curve"/>
      <point x="141" y="720"/>
      <point x="153" y="736"/>
      <point x="153" y="760" type="curve" smooth="yes"/>
      <point x="153" y="796"/>
      <point x="117" y="832"/>
      <point x="84" y="832" type="curve" smooth="yes"/>
      <point x="61" y="832"/>
      <point x="44" y="805"/>
      <point x="44" y="757" type="curve" smooth="yes"/>
      <point x="44" y="745"/>
      <point x="46" y="734"/>
      <point x="49" y="726" type="curve"/>
      <point x="36" y="724"/>
      <point x="23" y="723"/>
      <point x="12" y="723" type="curve"/>
      <point x="14" y="699"/>
      <point x="29" y="692"/>
      <point x="60" y="692" type="curve"/>
      <point x="74" y="693" type="line"/>
      <point x="113" y="653"/>
      <point x="157" y="628"/>
    </contour>
    <contour>
      <point x="79" y="733" type="curve"/>
      <point x="76" y="740"/>
      <point x="74" y="747"/>
      <point x="74" y="754" type="curve" smooth="yes"/>
      <point x="74" y="775"/>
      <point x="82" y="795"/>
      <point x="99" y="795" type="curve" smooth="yes"/>
      <point x="113" y="795"/>
      <point x="125" y="783"/>
      <point x="125" y="776" type="curve" smooth="yes"/>
      <point x="125" y="759"/>
      <point x="110" y="744"/>
    </contour>
  </outline>
</glyph>
<glyph name="uni065E" format="2">
  <unicode hex="065E"/>
  <anchor x="104" y="631" name="_top"/>
  <anchor x="104" y="631" name="_top2"/>
  <anchor x="104" y="631" name="_top3"/>
  <anchor x="133" y="823" name="top3"/>
  <outline>
    <contour>
      <point x="24" y="653" type="line"/>
      <point x="76" y="676"/>
      <point x="154" y="723"/>
      <point x="205" y="760" type="curve" smooth="yes"/>
      <point x="208" y="763"/>
      <point x="210" y="768"/>
      <point x="210" y="776" type="curve" smooth="yes"/>
      <point x="210" y="785"/>
      <point x="208" y="794"/>
      <point x="204" y="804" type="curve"/>
      <point x="187" y="794"/>
      <point x="153" y="767"/>
      <point x="128" y="749" type="curve" smooth="yes"/>
      <point x="98" y="727"/>
      <point x="64" y="704"/>
      <point x="34" y="693" type="curve"/>
    </contour>
    <contour>
      <point x="167" y="641" type="line"/>
      <point x="174" y="647"/>
      <point x="183" y="658"/>
      <point x="193" y="675" type="curve"/>
      <point x="177" y="690"/>
      <point x="165" y="700"/>
      <point x="156" y="706" type="curve"/>
      <point x="143" y="690" type="line"/>
      <point x="130" y="672" type="line"/>
    </contour>
    <contour>
      <point x="78" y="743" type="line"/>
      <point x="85" y="749"/>
      <point x="94" y="760"/>
      <point x="104" y="777" type="curve"/>
      <point x="91" y="790"/>
      <point x="79" y="801"/>
      <point x="67" y="809" type="curve"/>
      <point x="53" y="791"/>
      <point x="44" y="779"/>
      <point x="42" y="775" type="curve"/>
    </contour>
  </outline>
</glyph>
<glyph name="uni065F" format="2">
  <unicode hex="065F"/>
  <anchor x="54" y="213" name="_bottom"/>
  <anchor x="54" y="213" name="_bottom2"/>
  <anchor x="54" y="213" name="_bottom3"/>
  <anchor x="48" y="12" name="bottom3"/>
  <outline>
    <contour>
      <point x="-58" y="18" type="line"/>
      <point x="-46" y="30"/>
      <point x="-35" y="35"/>
      <point x="-25" y="35" type="curve" smooth="yes"/>
      <point x="-21" y="35"/>
      <point x="-13" y="33"/>
      <point x="-3" y="28" type="curve" smooth="yes"/>
      <point x="6" y="23"/>
      <point x="16" y="21"/>
      <point x="25" y="21" type="curve" smooth="yes"/>
      <point x="48" y="21"/>
      <point x="90" y="39"/>
      <point x="120" y="60" type="curve"/>
      <point x="122" y="104" type="line"/>
      <point x="102" y="98"/>
      <point x="89" y="95"/>
      <point x="82" y="95" type="curve" smooth="yes"/>
      <point x="66" y="95"/>
      <point x="50" y="103"/>
      <point x="35" y="118" type="curve"/>
      <point x="43" y="135"/>
      <point x="55" y="144"/>
      <point x="70" y="144" type="curve" smooth="yes"/>
      <point x="81" y="144"/>
      <point x="82" y="139"/>
      <point x="82" y="132" type="curve"/>
      <point x="101" y="129" type="line"/>
      <point x="104" y="136"/>
      <point x="106" y="144"/>
      <point x="106" y="153" type="curve" smooth="yes"/>
      <point x="106" y="183"/>
      <point x="94" y="198"/>
      <point x="69" y="198" type="curve" smooth="yes"/>
      <point x="57" y="198"/>
      <point x="44" y="192"/>
      <point x="33" y="181" type="curve" smooth="yes"/>
      <point x="14" y="165"/>
      <point x="-1" y="140"/>
      <point x="-1" y="118" type="curve" smooth="yes"/>
      <point x="-1" y="96"/>
      <point x="12" y="81"/>
      <point x="37" y="73" type="curve"/>
      <point x="33" y="71"/>
      <point x="28" y="70"/>
      <point x="22" y="70" type="curve" smooth="yes"/>
      <point x="14" y="70"/>
      <point x="6" y="71"/>
      <point x="-2" y="73" type="curve" smooth="yes"/>
      <point x="-10" y="76"/>
      <point x="-16" y="77"/>
      <point x="-24" y="77" type="curve" smooth="yes"/>
      <point x="-44" y="77"/>
      <point x="-65" y="58"/>
      <point x="-77" y="33" type="curve"/>
    </contour>
  </outline>
</glyph>
<glyph name="uni0660" format="2">
  <advance width="358"/>
  <unicode hex="0660"/>
  <outline>
    <contour>
      <point x="211" y="253" type="curve"/>
      <point x="259" y="321"/>
      <point x="282" y="361"/>
      <point x="282" y="373" type="curve" smooth="yes"/>
      <point x="282" y="382"/>
      <point x="270" y="396"/>
      <point x="246" y="416" type="curve" smooth="yes"/>
      <point x="222" y="435"/>
      <point x="191" y="455"/>
      <point x="153" y="476" type="curve"/>
      <point x="139" y="454"/>
      <point x="125" y="432"/>
      <point x="114" y="410" type="curve" smooth="yes"/>
      <point x="102" y="388"/>
      <point x="90" y="365"/>
      <point x="76" y="343" type="curve"/>
      <point x="122" y="317"/>
      <point x="152" y="298"/>
    </contour>
  </outline>
</glyph>
<glyph name="uni0661" format="2">
  <advance width="343"/>
  <unicode hex="0661"/>
  <outline>
    <contour>
      <point x="246" y="135" type="line"/>
      <point x="261" y="204"/>
      <point x="267" y="257"/>
      <point x="267" y="331" type="curve" smooth="yes"/>
      <point x="267" y="447"/>
      <point x="223" y="612"/>
      <point x="156" y="733" type="curve"/>
      <point x="107" y="713"/>
      <point x="77" y="678"/>
      <point x="77" y="634" type="curve" smooth="yes"/>
      <point x="77" y="618"/>
      <point x="81" y="601"/>
      <point x="89" y="584" type="curve" smooth="yes"/>
      <point x="121" y="517"/>
      <point x="142" y="465"/>
      <point x="153" y="427" type="curve" smooth="yes"/>
      <point x="175" y="352"/>
      <point x="188" y="257"/>
      <point x="189" y="145" type="curve"/>
    </contour>
  </outline>
</glyph>
<glyph name="uni0662" format="2">
  <advance width="453"/>
  <unicode hex="0662"/>
  <outline>
    <contour>
      <point x="246" y="135" type="line"/>
      <point x="261" y="201"/>
      <point x="268" y="254"/>
      <point x="268" y="331" type="curve" smooth="yes"/>
      <point x="268" y="372"/>
      <point x="262" y="417"/>
      <point x="251" y="468" type="curve"/>
      <point x="259" y="466"/>
      <point x="266" y="465"/>
      <point x="273" y="465" type="curve" smooth="yes"/>
      <point x="368" y="465"/>
      <point x="417" y="540"/>
      <point x="427" y="721" type="curve"/>
      <point x="379" y="731" type="line"/>
      <point x="370" y="644"/>
      <point x="332" y="592"/>
      <point x="272" y="592" type="curve" smooth="yes"/>
      <point x="243" y="592"/>
      <point x="229" y="594"/>
      <point x="214" y="605" type="curve"/>
      <point x="197" y="652"/>
      <point x="178" y="695"/>
      <point x="157" y="733" type="curve"/>
      <point x="107" y="713"/>
      <point x="77" y="678"/>
      <point x="77" y="634" type="curve" smooth="yes"/>
      <point x="77" y="618"/>
      <point x="81" y="601"/>
      <point x="90" y="584" type="curve" smooth="yes"/>
      <point x="132" y="497"/>
      <point x="146" y="460"/>
      <point x="161" y="399" type="curve" smooth="yes"/>
      <point x="179" y="319"/>
      <point x="188" y="235"/>
      <point x="189" y="145" type="curve"/>
    </contour>
  </outline>
</glyph>
<glyph name="uni0663" format="2">
  <advance width="507"/>
  <unicode hex="0663"/>
  <outline>
    <contour>
      <point x="247" y="135" type="line"/>
      <point x="262" y="209"/>
      <point x="268" y="259"/>
      <point x="268" y="331" type="curve" smooth="yes"/>
      <point x="268" y="370"/>
      <point x="262" y="415"/>
      <point x="252" y="466" type="curve"/>
      <point x="256" y="466"/>
      <point x="261" y="466"/>
      <point x="265" y="465" type="curve" smooth="yes"/>
      <point x="296" y="465"/>
      <point x="322" y="477"/>
      <point x="345" y="509" type="curve"/>
      <point x="366" y="497"/>
      <point x="382" y="491"/>
      <point x="394" y="491" type="curve" smooth="yes"/>
      <point x="444" y="491"/>
      <point x="481" y="548"/>
      <point x="481" y="632" type="curve" smooth="yes"/>
      <point x="481" y="664"/>
      <point x="479" y="695"/>
      <point x="474" y="726" type="curve"/>
      <point x="424" y="732" type="line"/>
      <point x="426" y="716"/>
      <point x="427" y="700"/>
      <point x="427" y="685" type="curve" smooth="yes"/>
      <point x="427" y="638"/>
      <point x="411" y="613"/>
      <point x="385" y="613" type="curve" smooth="yes"/>
      <point x="379" y="613"/>
      <point x="373" y="613"/>
      <point x="367" y="615" type="curve"/>
      <point x="363" y="650"/>
      <point x="353" y="689"/>
      <point x="336" y="730" type="curve"/>
      <point x="299" y="717" type="line"/>
      <point x="302" y="687"/>
      <point x="303" y="670"/>
      <point x="303" y="666" type="curve" smooth="yes"/>
      <point x="303" y="616"/>
      <point x="285" y="591"/>
      <point x="249" y="591" type="curve" smooth="yes"/>
      <point x="239" y="591"/>
      <point x="228" y="593"/>
      <point x="216" y="598" type="curve"/>
      <point x="200" y="646"/>
      <point x="180" y="691"/>
      <point x="157" y="733" type="curve"/>
      <point x="107" y="713"/>
      <point x="77" y="678"/>
      <point x="77" y="634" type="curve" smooth="yes"/>
      <point x="77" y="618"/>
      <point x="81" y="601"/>
      <point x="90" y="584" type="curve" smooth="yes"/>
      <point x="140" y="478"/>
      <point x="151" y="445"/>
      <point x="167" y="370" type="curve" smooth="yes"/>
      <point x="183" y="295"/>
      <point x="188" y="233"/>
      <point x="190" y="145" type="curve"/>
    </contour>
  </outline>
</glyph>
<glyph name="uni0664" format="2">
  <advance width="450"/>
  <unicode hex="0664"/>
  <outline>
    <contour>
      <point x="292" y="134" type="curve" smooth="yes"/>
      <point x="316" y="134"/>
      <point x="333" y="143"/>
      <point x="355" y="166" type="curve" smooth="yes"/>
      <point x="369" y="180"/>
      <point x="383" y="199"/>
      <point x="412" y="239" type="curve"/>
      <point x="397" y="265" type="line"/>
      <point x="372" y="258"/>
      <point x="336" y="255"/>
      <point x="290" y="255" type="curve" smooth="yes"/>
      <point x="242" y="255"/>
      <point x="183" y="262"/>
      <point x="183" y="295" type="curve" smooth="yes"/>
      <point x="183" y="303"/>
      <point x="194" y="322"/>
      <point x="216" y="351" type="curve" smooth="yes"/>
      <point x="239" y="380"/>
      <point x="265" y="410"/>
      <point x="295" y="443" type="curve"/>
      <point x="264" y="508" type="line"/>
      <point x="204" y="524"/>
      <point x="177" y="537"/>
      <point x="138" y="559" type="curve"/>
      <point x="149" y="566"/>
      <point x="161" y="572"/>
      <point x="172" y="579" type="curve" smooth="yes"/>
      <point x="203" y="595"/>
      <point x="229" y="614"/>
      <point x="253" y="633" type="curve" smooth="yes"/>
      <point x="271" y="648"/>
      <point x="286" y="687"/>
      <point x="286" y="725" type="curve" smooth="yes"/>
      <point x="286" y="744"/>
      <point x="283" y="760"/>
      <point x="275" y="774" type="curve"/>
      <point x="214" y="744"/>
      <point x="148" y="690"/>
      <point x="118" y="654" type="curve" smooth="yes"/>
      <point x="94" y="629"/>
      <point x="68" y="534"/>
      <point x="68" y="486" type="curve" smooth="yes"/>
      <point x="68" y="452"/>
      <point x="134" y="419"/>
      <point x="181" y="401" type="curve"/>
      <point x="141" y="342"/>
      <point x="122" y="296"/>
      <point x="122" y="263" type="curve" smooth="yes"/>
      <point x="122" y="177"/>
      <point x="182" y="134"/>
    </contour>
  </outline>
</glyph>
<glyph name="uni0665" format="2">
  <advance width="402"/>
  <unicode hex="0665"/>
  <outline>
    <contour>
      <point x="184" y="177" type="curve" smooth="yes"/>
      <point x="242" y="177"/>
      <point x="297" y="216"/>
      <point x="333" y="287" type="curve" smooth="yes"/>
      <point x="347" y="313"/>
      <point x="355" y="369"/>
      <point x="355" y="425" type="curve" smooth="yes"/>
      <point x="355" y="473"/>
      <point x="350" y="518"/>
      <point x="338" y="559" type="curve" smooth="yes"/>
      <point x="314" y="642"/>
      <point x="274" y="683"/>
      <point x="220" y="683" type="curve" smooth="yes"/>
      <point x="196" y="683"/>
      <point x="170" y="666"/>
      <point x="143" y="631" type="curve" smooth="yes"/>
      <point x="88" y="560"/>
      <point x="47" y="438"/>
      <point x="47" y="340" type="curve" smooth="yes"/>
      <point x="47" y="229"/>
      <point x="88" y="177"/>
    </contour>
    <contour>
      <point x="198" y="307" type="curve" smooth="yes"/>
      <point x="137" y="307"/>
      <point x="106" y="331"/>
      <point x="106" y="378" type="curve" smooth="yes"/>
      <point x="106" y="399"/>
      <point x="111" y="423"/>
      <point x="122" y="450" type="curve" smooth="yes"/>
      <point x="142" y="505"/>
      <point x="173" y="544"/>
      <point x="198" y="544" type="curve" smooth="yes"/>
      <point x="253" y="544"/>
      <point x="297" y="478"/>
      <point x="297" y="386" type="curve" smooth="yes"/>
      <point x="297" y="362"/>
      <point x="259" y="307"/>
    </contour>
  </outline>
</glyph>
<glyph name="uni0666" format="2">
  <advance width="476"/>
  <unicode hex="0666"/>
  <outline>
    <contour>
      <point x="325" y="135" type="curve"/>
      <point x="412" y="227" type="line"/>
      <point x="349" y="352"/>
      <point x="328" y="436"/>
      <point x="328" y="550" type="curve" smooth="yes"/>
      <point x="328" y="598"/>
      <point x="334" y="645"/>
      <point x="346" y="689" type="curve"/>
      <point x="322" y="722" type="line"/>
      <point x="270" y="715"/>
      <point x="225" y="712"/>
      <point x="188" y="712" type="curve" smooth="yes"/>
      <point x="147" y="712"/>
      <point x="87" y="726"/>
      <point x="57" y="737" type="curve"/>
      <point x="25" y="619" type="line"/>
      <point x="56" y="600"/>
      <point x="115" y="585"/>
      <point x="172" y="585" type="curve" smooth="yes"/>
      <point x="208" y="585"/>
      <point x="242" y="590"/>
      <point x="273" y="598" type="curve"/>
      <point x="266" y="565"/>
      <point x="259" y="504"/>
      <point x="259" y="463" type="curve" smooth="yes"/>
      <point x="259" y="343"/>
      <point x="278" y="252"/>
    </contour>
  </outline>
</glyph>
<glyph name="uni0667" format="2">
  <advance width="485"/>
  <unicode hex="0667"/>
  <outline>
    <contour>
      <point x="222" y="136" type="curve"/>
      <point x="245" y="152"/>
      <point x="267" y="168"/>
      <point x="289" y="184" type="curve"/>
      <point x="338" y="349"/>
      <point x="383" y="465"/>
      <point x="477" y="636" type="curve"/>
      <point x="400" y="730" type="line"/>
      <point x="345" y="629"/>
      <point x="284" y="434"/>
      <point x="261" y="279" type="curve"/>
      <point x="218" y="444"/>
      <point x="137" y="650"/>
      <point x="85" y="731" type="curve"/>
      <point x="39" y="710"/>
      <point x="9" y="669"/>
      <point x="9" y="626" type="curve" smooth="yes"/>
      <point x="9" y="612"/>
      <point x="12" y="599"/>
      <point x="20" y="585" type="curve" smooth="yes"/>
      <point x="144" y="353"/>
      <point x="159" y="321"/>
    </contour>
  </outline>
</glyph>
<glyph name="uni0668" format="2">
  <advance width="485"/>
  <unicode hex="0668"/>
  <outline>
    <contour>
      <point x="86" y="137" type="line"/>
      <point x="135" y="226"/>
      <point x="197" y="415"/>
      <point x="224" y="585" type="curve"/>
      <point x="233" y="549"/>
      <point x="249" y="499"/>
      <point x="271" y="433" type="curve" smooth="yes"/>
      <point x="316" y="301"/>
      <point x="364" y="193"/>
      <point x="400" y="136" type="curve"/>
      <point x="447" y="156"/>
      <point x="476" y="197"/>
      <point x="476" y="240" type="curve" smooth="yes"/>
      <point x="476" y="254"/>
      <point x="473" y="268"/>
      <point x="466" y="281" type="curve" smooth="yes"/>
      <point x="344" y="508"/>
      <point x="326" y="547"/>
      <point x="264" y="731" type="curve"/>
      <point x="196" y="683" type="line"/>
      <point x="141" y="497"/>
      <point x="105" y="413"/>
      <point x="8" y="230" type="curve"/>
    </contour>
  </outline>
</glyph>
<glyph name="uni0669" format="2">
  <advance width="456"/>
  <unicode hex="0669"/>
  <outline>
    <contour>
      <point x="304" y="134" type="curve"/>
      <point x="392" y="226" type="line"/>
      <point x="328" y="351"/>
      <point x="311" y="412"/>
      <point x="311" y="529" type="curve" smooth="yes"/>
      <point x="311" y="667"/>
      <point x="265" y="746"/>
      <point x="179" y="746" type="curve" smooth="yes"/>
      <point x="161" y="746"/>
      <point x="142" y="737"/>
      <point x="121" y="718" type="curve" smooth="yes"/>
      <point x="79" y="680"/>
      <point x="42" y="607"/>
      <point x="42" y="559" type="curve" smooth="yes"/>
      <point x="42" y="461"/>
      <point x="95" y="408"/>
      <point x="191" y="408" type="curve" smooth="yes"/>
      <point x="206" y="408"/>
      <point x="221" y="411"/>
      <point x="238" y="415" type="curve"/>
      <point x="244" y="318"/>
      <point x="263" y="239"/>
    </contour>
    <contour>
      <point x="206" y="528" type="curve" smooth="yes"/>
      <point x="146" y="528"/>
      <point x="101" y="551"/>
      <point x="101" y="583" type="curve" smooth="yes"/>
      <point x="101" y="604"/>
      <point x="123" y="627"/>
      <point x="151" y="627" type="curve" smooth="yes"/>
      <point x="195" y="627"/>
      <point x="222" y="595"/>
      <point x="232" y="531" type="curve"/>
      <point x="222" y="529"/>
      <point x="214" y="528"/>
    </contour>
  </outline>
</glyph>
<glyph name="uni066A" format="2">
  <advance width="471"/>
  <unicode hex="066A"/>
  <outline>
    <contour>
      <point x="111" y="86" type="curve"/>
      <point x="187" y="246"/>
      <point x="297" y="460"/>
      <point x="352" y="561" type="curve" smooth="yes"/>
      <point x="360" y="576"/>
      <point x="364" y="591"/>
      <point x="364" y="607" type="curve" smooth="yes"/>
      <point x="363" y="633"/>
      <point x="353" y="656"/>
      <point x="334" y="668" type="curve"/>
      <point x="255" y="524"/>
      <point x="167" y="352"/>
      <point x="71" y="152" type="curve"/>
      <point x="78" y="124"/>
      <point x="91" y="102"/>
    </contour>
    <contour>
      <point x="378" y="146" type="curve"/>
      <point x="421" y="209"/>
      <point x="442" y="245"/>
      <point x="442" y="256" type="curve" smooth="yes"/>
      <point x="442" y="264"/>
      <point x="432" y="276"/>
      <point x="411" y="293" type="curve" smooth="yes"/>
      <point x="390" y="309"/>
      <point x="361" y="328"/>
      <point x="324" y="349" type="curve"/>
      <point x="311" y="330"/>
      <point x="299" y="310"/>
      <point x="289" y="290" type="curve" smooth="yes"/>
      <point x="278" y="270"/>
      <point x="267" y="249"/>
      <point x="255" y="228" type="curve"/>
      <point x="301" y="202"/>
      <point x="313" y="195"/>
    </contour>
    <contour>
      <point x="149" y="457" type="curve"/>
      <point x="192" y="519"/>
      <point x="213" y="556"/>
      <point x="213" y="567" type="curve" smooth="yes"/>
      <point x="213" y="575"/>
      <point x="202" y="587"/>
      <point x="182" y="604" type="curve" smooth="yes"/>
      <point x="161" y="621"/>
      <point x="132" y="639"/>
      <point x="96" y="660" type="curve"/>
      <point x="82" y="640"/>
      <point x="70" y="621"/>
      <point x="60" y="600" type="curve" smooth="yes"/>
      <point x="49" y="580"/>
      <point x="38" y="559"/>
      <point x="26" y="538" type="curve"/>
      <point x="59" y="521"/>
      <point x="100" y="494"/>
    </contour>
  </outline>
</glyph>
<glyph name="uni066B" format="2">
  <advance width="250"/>
  <unicode hex="066B"/>
  <outline>
    <contour>
      <point x="38" y="46" type="line"/>
      <point x="135" y="72"/>
      <point x="190" y="129"/>
      <point x="190" y="212" type="curve" smooth="yes"/>
      <point x="190" y="270"/>
      <point x="160" y="305"/>
      <point x="112" y="305" type="curve" smooth="yes"/>
      <point x="77" y="305"/>
      <point x="51" y="286"/>
      <point x="51" y="247" type="curve" smooth="yes"/>
      <point x="51" y="213"/>
      <point x="63" y="200"/>
      <point x="97" y="179" type="curve" smooth="yes"/>
      <point x="107" y="172"/>
      <point x="113" y="164"/>
      <point x="113" y="156" type="curve" smooth="yes"/>
      <point x="113" y="127"/>
      <point x="95" y="111"/>
      <point x="38" y="90" type="curve"/>
    </contour>
  </outline>
</glyph>
<glyph name="uni066C" format="2">
  <advance width="238"/>
  <unicode hex="066C"/>
  <outline>
    <contour>
      <point x="126" y="144" type="curve" smooth="yes"/>
      <point x="161" y="144"/>
      <point x="187" y="164"/>
      <point x="187" y="202" type="curve" smooth="yes"/>
      <point x="187" y="229"/>
      <point x="177" y="249"/>
      <point x="156" y="261" type="curve" smooth="yes"/>
      <point x="135" y="274"/>
      <point x="125" y="280"/>
      <point x="125" y="293" type="curve" smooth="yes"/>
      <point x="125" y="326"/>
      <point x="150" y="342"/>
      <point x="200" y="360" type="curve"/>
      <point x="200" y="404" type="line"/>
      <point x="101" y="377"/>
      <point x="48" y="320"/>
      <point x="48" y="238" type="curve" smooth="yes"/>
      <point x="48" y="180"/>
      <point x="78" y="144"/>
    </contour>
  </outline>
</glyph>
<glyph name="uni066D" format="2">
  <advance width="400"/>
  <unicode hex="066D"/>
  <outline>
    <contour>
      <point x="90" y="218" type="line"/>
      <point x="199" y="290" type="line"/>
      <point x="308" y="218" type="line"/>
      <point x="313" y="221" type="line"/>
      <point x="278" y="348" type="line"/>
      <point x="383" y="428" type="line"/>
      <point x="380" y="435" type="line"/>
      <point x="248" y="441" type="line"/>
      <point x="203" y="564" type="line"/>
      <point x="196" y="564" type="line"/>
      <point x="150" y="441" type="line"/>
      <point x="21" y="435" type="line"/>
      <point x="18" y="428" type="line"/>
      <point x="121" y="348" type="line"/>
      <point x="85" y="221" type="line"/>
    </contour>
  </outline>
</glyph>
<glyph name="uni066E" format="2">
  <advance width="806"/>
  <unicode hex="066E"/>
  <anchor x="378" y="77" name="bottom"/>
  <anchor x="365" y="563" name="top"/>
  <outline>
    <contour>
      <point x="314" y="135" type="curve" smooth="yes"/>
      <point x="458" y="135"/>
      <point x="606" y="172"/>
      <point x="694" y="225" type="curve"/>
      <point x="715" y="263"/>
      <point x="733" y="315"/>
      <point x="733" y="346" type="curve" smooth="yes"/>
      <point x="733" y="369"/>
      <point x="723" y="428"/>
      <point x="692" y="578" type="curve"/>
      <point x="642" y="553"/>
      <point x="601" y="509"/>
      <point x="601" y="477" type="curve" smooth="yes"/>
      <point x="601" y="459"/>
      <point x="611" y="439"/>
      <point x="625" y="413" type="curve" smooth="yes"/>
      <point x="637" y="391"/>
      <point x="661" y="347"/>
      <point x="675" y="317" type="curve"/>
      <point x="583" y="276"/>
      <point x="467" y="254"/>
      <point x="351" y="254" type="curve" smooth="yes"/>
      <point x="299" y="254"/>
      <point x="256" y="260"/>
      <point x="224" y="270" type="curve" smooth="yes"/>
      <point x="160" y="292"/>
      <point x="131" y="330"/>
      <point x="131" y="408" type="curve" smooth="yes"/>
      <point x="131" y="421"/>
      <point x="133" y="452"/>
      <point x="134" y="458" type="curve"/>
      <point x="89" y="458" type="line"/>
      <point x="76" y="412"/>
      <point x="70" y="376"/>
      <point x="70" y="348" type="curve" smooth="yes"/>
      <point x="70" y="210"/>
      <point x="153" y="135"/>
    </contour>
  </outline>
</glyph>
<glyph name="uni066F" format="2">
  <advance width="652"/>
  <unicode hex="066F"/>
  <anchor x="24" y="-159" name="bottom"/>
  <anchor x="398" y="574" name="top"/>
  <outline>
    <contour>
      <point x="251" y="-117" type="curve" smooth="yes"/>
      <point x="334" y="-117"/>
      <point x="434" y="-81"/>
      <point x="499" y="-27" type="curve" smooth="yes"/>
      <point x="564" y="27"/>
      <point x="601" y="100"/>
      <point x="601" y="185" type="curve" smooth="yes"/>
      <point x="601" y="244"/>
      <point x="593" y="297"/>
      <point x="576" y="346" type="curve" smooth="yes"/>
      <point x="542" y="443"/>
      <point x="478" y="501"/>
      <point x="411" y="501" type="curve" smooth="yes"/>
      <point x="386" y="501"/>
      <point x="363" y="490"/>
      <point x="340" y="468" type="curve" smooth="yes"/>
      <point x="294" y="425"/>
      <point x="264" y="348"/>
      <point x="264" y="273" type="curve" smooth="yes"/>
      <point x="264" y="185"/>
      <point x="311" y="135"/>
      <point x="394" y="135" type="curve" smooth="yes"/>
      <point x="437" y="135"/>
      <point x="479" y="155"/>
      <point x="521" y="196" type="curve"/>
      <point x="528" y="166"/>
      <point x="532" y="135"/>
      <point x="535" y="104" type="curve"/>
      <point x="512" y="86"/>
      <point x="488" y="71"/>
      <point x="465" y="58" type="curve" smooth="yes"/>
      <point x="396" y="20"/>
      <point x="327" y="1"/>
      <point x="263" y="1" type="curve" smooth="yes"/>
      <point x="170" y="1"/>
      <point x="123" y="49"/>
      <point x="123" y="142" type="curve" smooth="yes"/>
      <point x="123" y="165"/>
      <point x="128" y="192"/>
      <point x="137" y="222" type="curve"/>
      <point x="93" y="233" type="line"/>
      <point x="76" y="170"/>
      <point x="68" y="122"/>
      <point x="68" y="88" type="curve" smooth="yes"/>
      <point x="68" y="-45"/>
      <point x="132" y="-117"/>
    </contour>
    <contour>
      <point x="414" y="245" type="curve" smooth="yes"/>
      <point x="353" y="245"/>
      <point x="318" y="266"/>
      <point x="318" y="306" type="curve" smooth="yes"/>
      <point x="318" y="319"/>
      <point x="321" y="330"/>
      <point x="326" y="341" type="curve" smooth="yes"/>
      <point x="338" y="364"/>
      <point x="363" y="381"/>
      <point x="393" y="381" type="curve" smooth="yes"/>
      <point x="406" y="381"/>
      <point x="419" y="377"/>
      <point x="432" y="369" type="curve" smooth="yes"/>
      <point x="459" y="352"/>
      <point x="483" y="316"/>
      <point x="503" y="260" type="curve"/>
      <point x="472" y="250"/>
      <point x="442" y="245"/>
    </contour>
  </outline>
</glyph>
<glyph name="uni0670" format="2">
  <unicode hex="0670"/>
  <anchor x="11" y="553" name="_top"/>
  <anchor x="11" y="553" name="_top2"/>
  <anchor x="11" y="553" name="_top3"/>
  <anchor x="9" y="813" name="top3"/>
  <outline>
    <contour>
      <point x="11" y="563" type="line"/>
      <point x="28" y="587"/>
      <point x="37" y="615"/>
      <point x="37" y="648" type="curve" smooth="yes"/>
      <point x="37" y="713"/>
      <point x="32" y="747"/>
      <point x="22" y="798" type="curve"/>
      <point x="0" y="790"/>
      <point x="-15" y="768"/>
      <point x="-15" y="742" type="curve" smooth="yes"/>
      <point x="-15" y="735"/>
      <point x="-14" y="728"/>
      <point x="-12" y="719" type="curve" smooth="yes"/>
      <point x="-1" y="674"/>
      <point x="5" y="623"/>
      <point x="5" y="565" type="curve"/>
    </contour>
  </outline>
</glyph>
<glyph name="uni06A9" format="2">
  <advance width="741"/>
  <unicode hex="06A9"/>
  <unicode hex="FB8E"/>
  <anchor x="412" y="77" name="bottom"/>
  <anchor x="355" y="737" name="top"/>
  <outline>
    <contour>
      <point x="301" y="135" type="curve" smooth="yes"/>
      <point x="520" y="135"/>
      <point x="654" y="198"/>
      <point x="654" y="308" type="curve" smooth="yes"/>
      <point x="654" y="341"/>
      <point x="641" y="376"/>
      <point x="615" y="412" type="curve" smooth="yes"/>
      <point x="563" y="484"/>
      <point x="472" y="545"/>
      <point x="373" y="570" type="curve"/>
      <point x="496" y="604"/>
      <point x="572" y="633"/>
      <point x="669" y="681" type="curve" smooth="yes"/>
      <point x="703" y="698"/>
      <point x="724" y="731"/>
      <point x="724" y="765" type="curve" smooth="yes"/>
      <point x="724" y="785"/>
      <point x="717" y="802"/>
      <point x="704" y="815" type="curve"/>
      <point x="573" y="761"/>
      <point x="501" y="729"/>
      <point x="342" y="649" type="curve" smooth="yes"/>
      <point x="335" y="646"/>
      <point x="316" y="553"/>
      <point x="316" y="524" type="curve" smooth="yes"/>
      <point x="316" y="488"/>
      <point x="349" y="459"/>
      <point x="385" y="459" type="curve" smooth="yes"/>
      <point x="395" y="459"/>
      <point x="404" y="460"/>
      <point x="412" y="463" type="curve"/>
      <point x="455" y="437"/>
      <point x="488" y="415"/>
      <point x="510" y="397" type="curve" smooth="yes"/>
      <point x="555" y="363"/>
      <point x="588" y="326"/>
      <point x="604" y="295" type="curve"/>
      <point x="522" y="266"/>
      <point x="459" y="254"/>
      <point x="337" y="254" type="curve" smooth="yes"/>
      <point x="281" y="254"/>
      <point x="238" y="257"/>
      <point x="208" y="264" type="curve" smooth="yes"/>
      <point x="146" y="278"/>
      <point x="124" y="307"/>
      <point x="123" y="362" type="curve" smooth="yes"/>
      <point x="123" y="375"/>
      <point x="125" y="387"/>
      <point x="126" y="400" type="curve"/>
      <point x="82" y="401" type="line"/>
      <point x="78" y="389"/>
      <point x="68" y="324"/>
      <point x="68" y="296" type="curve" smooth="yes"/>
      <point x="68" y="256"/>
      <point x="75" y="224"/>
      <point x="90" y="201" type="curve" smooth="yes"/>
      <point x="120" y="155"/>
      <point x="174" y="135"/>
    </contour>
  </outline>
</glyph>
<glyph name="uni06AA" format="2">
  <advance width="1015"/>
  <unicode hex="06AA"/>
  <anchor x="760" y="77" name="bottom"/>
  <anchor x="392" y="723" name="top"/>
  <outline>
    <contour>
      <point x="286" y="144" type="curve" smooth="yes"/>
      <point x="510" y="144"/>
      <point x="782" y="161"/>
      <point x="956" y="188" type="curve"/>
      <point x="970" y="220"/>
      <point x="977" y="247"/>
      <point x="977" y="269" type="curve" smooth="yes"/>
      <point x="977" y="384"/>
      <point x="903" y="459"/>
      <point x="791" y="459" type="curve" smooth="yes"/>
      <point x="755" y="459"/>
      <point x="687" y="456"/>
      <point x="586" y="451" type="curve" smooth="yes"/>
      <point x="499" y="447"/>
      <point x="433" y="445"/>
      <point x="389" y="445" type="curve" smooth="yes"/>
      <point x="364" y="445"/>
      <point x="341" y="448"/>
      <point x="319" y="455" type="curve" smooth="yes"/>
      <point x="298" y="461"/>
      <point x="287" y="469"/>
      <point x="287" y="477" type="curve" smooth="yes"/>
      <point x="287" y="486"/>
      <point x="299" y="497"/>
      <point x="324" y="511" type="curve" smooth="yes"/>
      <point x="352" y="527"/>
      <point x="396" y="545"/>
      <point x="483" y="579" type="curve" smooth="yes"/>
      <point x="518" y="593"/>
      <point x="538" y="627"/>
      <point x="539" y="675" type="curve" smooth="yes"/>
      <point x="539" y="690"/>
      <point x="537" y="706"/>
      <point x="534" y="723" type="curve"/>
      <point x="461" y="704"/>
      <point x="376" y="663"/>
      <point x="319" y="612" type="curve" smooth="yes"/>
      <point x="263" y="561"/>
      <point x="235" y="509"/>
      <point x="235" y="460" type="curve" smooth="yes"/>
      <point x="235" y="374"/>
      <point x="275" y="333"/>
      <point x="371" y="333" type="curve" smooth="yes"/>
      <point x="419" y="333"/>
      <point x="491" y="336"/>
      <point x="585" y="342" type="curve" smooth="yes"/>
      <point x="679" y="347"/>
      <point x="748" y="349"/>
      <point x="791" y="349" type="curve" smooth="yes"/>
      <point x="867" y="349"/>
      <point x="901" y="336"/>
      <point x="923" y="292" type="curve"/>
      <point x="766" y="273"/>
      <point x="500" y="262"/>
      <point x="271" y="262" type="curve" smooth="yes"/>
      <point x="173" y="262"/>
      <point x="86" y="270"/>
      <point x="10" y="286" type="curve"/>
      <point x="9" y="206"/>
      <point x="40" y="161"/>
      <point x="96" y="151" type="curve" smooth="yes"/>
      <point x="127" y="146"/>
      <point x="182" y="144"/>
    </contour>
  </outline>
</glyph>
<glyph name="uni06BA" format="2">
  <advance width="604"/>
  <unicode hex="06BA"/>
  <unicode hex="FB9E"/>
  <anchor x="30" y="-123" name="bottom"/>
  <anchor x="272" y="405" name="top"/>
  <outline>
    <contour>
      <point x="251" y="-117" type="curve" smooth="yes"/>
      <point x="306" y="-117"/>
      <point x="357" y="-107"/>
      <point x="403" y="-85" type="curve" smooth="yes"/>
      <point x="495" y="-42"/>
      <point x="552" y="39"/>
      <point x="552" y="128" type="curve" smooth="yes"/>
      <point x="552" y="164"/>
      <point x="545" y="210"/>
      <point x="537" y="258" type="curve" smooth="yes"/>
      <point x="531" y="298"/>
      <point x="518" y="365"/>
      <point x="513" y="405" type="curve"/>
      <point x="444" y="371"/>
      <point x="412" y="329"/>
      <point x="412" y="273" type="curve" smooth="yes"/>
      <point x="412" y="246"/>
      <point x="451" y="178"/>
      <point x="497" y="90" type="curve"/>
      <point x="426" y="26"/>
      <point x="359" y="1"/>
      <point x="254" y="1" type="curve" smooth="yes"/>
      <point x="165" y="1"/>
      <point x="123" y="47"/>
      <point x="123" y="142" type="curve" smooth="yes"/>
      <point x="123" y="165"/>
      <point x="128" y="192"/>
      <point x="137" y="222" type="curve"/>
      <point x="93" y="233" type="line"/>
      <point x="76" y="170"/>
      <point x="68" y="122"/>
      <point x="68" y="88" type="curve" smooth="yes"/>
      <point x="68" y="-45"/>
      <point x="132" y="-117"/>
    </contour>
  </outline>
</glyph>
<glyph name="uni06BE" format="2">
  <advance width="670"/>
  <unicode hex="06BE"/>
  <unicode hex="FBAA"/>
  <anchor x="340" y="63" name="bottom"/>
  <anchor x="287" y="687" name="top"/>
  <outline>
    <contour>
      <point x="568" y="126" type="curve"/>
      <point x="602" y="183"/>
      <point x="619" y="228"/>
      <point x="619" y="260" type="curve" smooth="yes"/>
      <point x="619" y="309"/>
      <point x="604" y="359"/>
      <point x="576" y="409" type="curve" smooth="yes"/>
      <point x="520" y="510"/>
      <point x="417" y="587"/>
      <point x="309" y="614" type="curve"/>
      <point x="280" y="510" type="line"/>
      <point x="235" y="479"/>
      <point x="198" y="404"/>
      <point x="198" y="351" type="curve" smooth="yes"/>
      <point x="198" y="320"/>
      <point x="210" y="289"/>
      <point x="233" y="258" type="curve"/>
      <point x="212" y="255"/>
      <point x="188" y="254"/>
      <point x="164" y="254" type="curve" smooth="yes"/>
      <point x="126" y="254"/>
      <point x="90" y="258"/>
      <point x="54" y="265" type="curve"/>
      <point x="34" y="225" type="line"/>
      <point x="68" y="187"/>
      <point x="133" y="144"/>
      <point x="154" y="144" type="curve" smooth="yes"/>
      <point x="223" y="144"/>
      <point x="281" y="157"/>
      <point x="329" y="183" type="curve"/>
      <point x="392" y="150"/>
      <point x="475" y="128"/>
    </contour>
    <contour>
      <point x="337" y="288" type="curve"/>
      <point x="304" y="304"/>
      <point x="274" y="325"/>
      <point x="249" y="352" type="curve"/>
      <point x="256" y="371"/>
      <point x="264" y="386"/>
      <point x="273" y="399" type="curve" smooth="yes"/>
      <point x="290" y="424"/>
      <point x="310" y="436"/>
      <point x="333" y="436" type="curve" smooth="yes"/>
      <point x="356" y="436"/>
      <point x="383" y="407"/>
      <point x="383" y="375" type="curve" smooth="yes"/>
      <point x="383" y="338"/>
      <point x="363" y="301"/>
    </contour>
    <contour>
      <point x="563" y="235" type="curve"/>
      <point x="500" y="243"/>
      <point x="451" y="251"/>
      <point x="417" y="260" type="curve"/>
      <point x="437" y="292"/>
      <point x="448" y="329"/>
      <point x="448" y="372" type="curve" smooth="yes"/>
      <point x="448" y="393"/>
      <point x="444" y="412"/>
      <point x="437" y="431" type="curve"/>
      <point x="490" y="388"/>
      <point x="528" y="328"/>
    </contour>
  </outline>
</glyph>
<glyph name="uni06C5" format="2">
  <advance width="505"/>
  <unicode hex="06C5"/>
  <unicode hex="FBE0"/>
  <anchor x="206" y="-169" name="bottom"/>
  <anchor x="271" y="574" name="top"/>
  <outline>
    <contour>
      <point x="195" y="-120" type="curve" smooth="yes"/>
      <point x="240" y="-120"/>
      <point x="282" y="-104"/>
      <point x="322" y="-72" type="curve" smooth="yes"/>
      <point x="401" y="-8"/>
      <point x="454" y="111"/>
      <point x="454" y="224" type="curve" smooth="yes"/>
      <point x="454" y="266"/>
      <point x="446" y="310"/>
      <point x="429" y="355" type="curve" smooth="yes"/>
      <point x="396" y="445"/>
      <point x="341" y="501"/>
      <point x="285" y="501" type="curve" smooth="yes"/>
      <point x="260" y="501"/>
      <point x="237" y="490"/>
      <point x="214" y="469" type="curve" smooth="yes"/>
      <point x="169" y="426"/>
      <point x="139" y="348"/>
      <point x="139" y="273" type="curve" smooth="yes"/>
      <point x="139" y="185"/>
      <point x="186" y="135"/>
      <point x="269" y="135" type="curve" smooth="yes"/>
      <point x="315" y="135"/>
      <point x="361" y="160"/>
      <point x="400" y="200" type="curve"/>
      <point x="401" y="193" type="line"/>
      <point x="386" y="144"/>
      <point x="362" y="102"/>
      <point x="329" y="67" type="curve"/>
      <point x="299" y="76"/>
      <point x="274" y="84"/>
      <point x="254" y="90" type="curve" smooth="yes"/>
      <point x="229" y="97"/>
      <point x="210" y="100"/>
      <point x="200" y="100" type="curve" smooth="yes"/>
      <point x="177" y="100"/>
      <point x="164" y="90"/>
      <point x="137" y="71" type="curve"/>
      <point x="152" y="36" type="line"/>
      <point x="172" y="45"/>
      <point x="187" y="49"/>
      <point x="199" y="49" type="curve" smooth="yes"/>
      <point x="220" y="49"/>
      <point x="249" y="42"/>
      <point x="286" y="29" type="curve"/>
      <point x="253" y="5"/>
      <point x="214" y="-10"/>
      <point x="177" y="-10" type="curve" smooth="yes"/>
      <point x="139" y="-10"/>
      <point x="103" y="-5"/>
      <point x="67" y="4" type="curve"/>
      <point x="51" y="-38" type="line"/>
      <point x="101" y="-81"/>
      <point x="170" y="-120"/>
    </contour>
    <contour>
      <point x="288" y="245" type="curve" smooth="yes"/>
      <point x="228" y="245"/>
      <point x="192" y="266"/>
      <point x="192" y="306" type="curve" smooth="yes"/>
      <point x="192" y="322"/>
      <point x="197" y="337"/>
      <point x="206" y="348" type="curve" smooth="yes"/>
      <point x="219" y="368"/>
      <point x="241" y="381"/>
      <point x="267" y="381" type="curve" smooth="yes"/>
      <point x="313" y="381"/>
      <point x="355" y="336"/>
      <point x="383" y="262" type="curve"/>
      <point x="350" y="251"/>
      <point x="319" y="245"/>
    </contour>
  </outline>
</glyph>
<glyph name="uni06CD" format="2">
  <advance width="777"/>
  <unicode hex="06CD"/>
  <anchor x="158" y="-73" name="bottom"/>
  <anchor x="356" y="445" name="top"/>
  <outline>
    <contour>
      <point x="393" y="-117" type="curve" smooth="yes"/>
      <point x="445" y="-117"/>
      <point x="498" y="-105"/>
      <point x="552" y="-80" type="curve" smooth="yes"/>
      <point x="659" y="-30"/>
      <point x="738" y="55"/>
      <point x="738" y="116" type="curve" smooth="yes"/>
      <point x="738" y="146"/>
      <point x="724" y="183"/>
      <point x="704" y="198" type="curve" smooth="yes"/>
      <point x="684" y="214"/>
      <point x="660" y="222"/>
      <point x="613" y="228" type="curve" smooth="yes"/>
      <point x="561" y="234"/>
      <point x="521" y="242"/>
      <point x="495" y="253" type="curve"/>
      <point x="506" y="280"/>
      <point x="521" y="305"/>
      <point x="542" y="327" type="curve" smooth="yes"/>
      <point x="582" y="373"/>
      <point x="631" y="401"/>
      <point x="667" y="401" type="curve" smooth="yes"/>
      <point x="679" y="401"/>
      <point x="689" y="395"/>
      <point x="699" y="382" type="curve"/>
      <point x="743" y="391" type="line"/>
      <point x="730" y="476"/>
      <point x="701" y="520"/>
      <point x="655" y="520" type="curve" smooth="yes"/>
      <point x="626" y="520"/>
      <point x="594" y="506"/>
      <point x="561" y="479" type="curve" smooth="yes"/>
      <point x="494" y="423"/>
      <point x="444" y="329"/>
      <point x="444" y="254" type="curve" smooth="yes"/>
      <point x="444" y="221"/>
      <point x="451" y="195"/>
      <point x="467" y="173" type="curve" smooth="yes"/>
      <point x="494" y="135"/>
      <point x="548" y="114"/>
      <point x="637" y="108" type="curve" smooth="yes"/>
      <point x="652" y="107"/>
      <point x="669" y="107"/>
      <point x="687" y="107" type="curve"/>
      <point x="665" y="90"/>
      <point x="641" y="74"/>
      <point x="615" y="61" type="curve" smooth="yes"/>
      <point x="545" y="23"/>
      <point x="468" y="1"/>
      <point x="404" y="1" type="curve" smooth="yes"/>
      <point x="313" y="1"/>
      <point x="268" y="46"/>
      <point x="268" y="135" type="curve" smooth="yes"/>
      <point x="268" y="160"/>
      <point x="276" y="197"/>
      <point x="286" y="225" type="curve"/>
      <point x="246" y="245" type="line"/>
      <point x="191" y="218"/>
      <point x="96" y="160"/>
      <point x="86" y="148" type="curve" smooth="yes"/>
      <point x="75" y="137"/>
      <point x="69" y="119"/>
      <point x="69" y="100" type="curve" smooth="yes"/>
      <point x="69" y="81"/>
      <point x="73" y="64"/>
      <point x="83" y="49" type="curve"/>
      <point x="138" y="79"/>
      <point x="180" y="101"/>
      <point x="210" y="114" type="curve"/>
      <point x="209" y="106"/>
      <point x="209" y="97"/>
      <point x="209" y="88" type="curve" smooth="yes"/>
      <point x="209" y="-45"/>
      <point x="273" y="-117"/>
    </contour>
  </outline>
</glyph>
<glyph name="uni06D2" format="2">
  <advance width="808"/>
  <unicode hex="06D2"/>
  <unicode hex="FBAE"/>
  <anchor x="459" y="77" name="bottom"/>
  <anchor x="247" y="552" name="top"/>
  <outline>
    <contour>
      <point x="418" y="135" type="curve" smooth="yes"/>
      <point x="497" y="135"/>
      <point x="680" y="156"/>
      <point x="729" y="181" type="curve" smooth="yes"/>
      <point x="756" y="195"/>
      <point x="773" y="219"/>
      <point x="773" y="247" type="curve" smooth="yes"/>
      <point x="773" y="267"/>
      <point x="766" y="284"/>
      <point x="753" y="300" type="curve"/>
      <point x="659" y="272"/>
      <point x="533" y="254"/>
      <point x="431" y="254" type="curve" smooth="yes"/>
      <point x="304" y="254"/>
      <point x="225" y="263"/>
      <point x="144" y="296" type="curve"/>
      <point x="165" y="305"/>
      <point x="193" y="315"/>
      <point x="227" y="325" type="curve" smooth="yes"/>
      <point x="257" y="335"/>
      <point x="284" y="345"/>
      <point x="305" y="354" type="curve" smooth="yes"/>
      <point x="350" y="374"/>
      <point x="383" y="414"/>
      <point x="402" y="473" type="curve"/>
      <point x="359" y="492" type="line"/>
      <point x="346" y="464"/>
      <point x="318" y="442"/>
      <point x="256" y="424" type="curve" smooth="yes"/>
      <point x="233" y="417"/>
      <point x="216" y="411"/>
      <point x="205" y="406" type="curve" smooth="yes"/>
      <point x="165" y="388"/>
      <point x="136" y="370"/>
      <point x="117" y="349" type="curve" smooth="yes"/>
      <point x="104" y="337"/>
      <point x="68" y="218"/>
      <point x="68" y="194" type="curve" smooth="yes"/>
      <point x="68" y="185"/>
      <point x="85" y="177"/>
      <point x="119" y="167" type="curve" smooth="yes"/>
      <point x="192" y="147"/>
      <point x="316" y="135"/>
    </contour>
  </outline>
</glyph>
<glyph name="uni06D4" format="2">
  <advance width="290"/>
  <unicode hex="06D4"/>
  <outline>
    <contour>
      <point x="44" y="144" type="curve" smooth="yes"/>
      <point x="245" y="144" type="line" smooth="yes"/>
      <point x="248" y="144"/>
      <point x="250" y="145"/>
      <point x="250" y="148" type="curve" smooth="yes"/>
      <point x="250" y="259" type="line" smooth="yes"/>
      <point x="250" y="261"/>
      <point x="248" y="262"/>
      <point x="245" y="262" type="curve" smooth="yes"/>
      <point x="44" y="262" type="line" smooth="yes"/>
      <point x="42" y="262"/>
      <point x="41" y="261"/>
      <point x="41" y="259" type="curve" smooth="yes"/>
      <point x="41" y="148" type="line" smooth="yes"/>
      <point x="41" y="145"/>
      <point x="42" y="144"/>
    </contour>
  </outline>
</glyph>
<glyph name="uni06D6" format="2">
  <unicode hex="06D6"/>
  <anchor x="9" y="623" name="_top"/>
  <anchor x="9" y="623" name="_top2"/>
  <anchor x="9" y="623" name="_top3"/>
  <anchor x="50" y="977" name="top3"/>
  <outline>
    <contour>
      <point x="-123" y="633" type="curve" smooth="yes"/>
      <point x="-79" y="633"/>
      <point x="3" y="629"/>
      <point x="3" y="658" type="curve" smooth="yes"/>
      <point x="3" y="662"/>
      <point x="1" y="666"/>
      <point x="-2" y="671" type="curve"/>
      <point x="-31" y="665"/>
      <point x="-70" y="662"/>
      <point x="-121" y="662" type="curve" smooth="yes"/>
      <point x="-164" y="662"/>
      <point x="-211" y="667"/>
      <point x="-231" y="673" type="curve"/>
      <point x="-202" y="691"/>
      <point x="-135" y="711"/>
      <point x="-96" y="718" type="curve" smooth="yes"/>
      <point x="-73" y="723" type="line"/>
      <point x="-63" y="714"/>
      <point x="-49" y="710"/>
      <point x="-30" y="710" type="curve" smooth="yes"/>
      <point x="-11" y="710"/>
      <point x="3" y="714"/>
      <point x="12" y="723" type="curve"/>
      <point x="18" y="731" type="line"/>
      <point x="39" y="719"/>
      <point x="79" y="710"/>
      <point x="120" y="710" type="curve" smooth="yes"/>
      <point x="142" y="710"/>
      <point x="162" y="713"/>
      <point x="180" y="719" type="curve" smooth="yes"/>
      <point x="217" y="732"/>
      <point x="241" y="755"/>
      <point x="241" y="790" type="curve" smooth="yes"/>
      <point x="241" y="810"/>
      <point x="198" y="844"/>
      <point x="174" y="844" type="curve" smooth="yes"/>
      <point x="140" y="844"/>
      <point x="99" y="812"/>
      <point x="52" y="748" type="curve"/>
      <point x="33" y="756" type="line"/>
      <point x="44" y="781" type="line"/>
      <point x="42" y="784"/>
      <point x="39" y="785"/>
      <point x="35" y="785" type="curve" smooth="yes"/>
      <point x="30" y="785"/>
      <point x="26" y="783"/>
      <point x="23" y="779" type="curve" smooth="yes"/>
      <point x="12" y="760" type="line" smooth="yes"/>
      <point x="5" y="748"/>
      <point x="-6" y="739"/>
      <point x="-30" y="739" type="curve" smooth="yes"/>
      <point x="-43" y="739"/>
      <point x="-56" y="742"/>
      <point x="-69" y="748" type="curve"/>
      <point x="-71" y="856" type="line" smooth="yes"/>
      <point x="-71" y="901"/>
      <point x="-72" y="937"/>
      <point x="-74" y="963" type="curve"/>
      <point x="-82" y="957"/>
      <point x="-90" y="950"/>
      <point x="-99" y="942" type="curve"/>
      <point x="-92" y="841"/>
      <point x="-87" y="776"/>
      <point x="-84" y="748" type="curve"/>
      <point x="-169" y="733"/>
      <point x="-206" y="716"/>
      <point x="-239" y="687" type="curve"/>
      <point x="-243" y="681"/>
      <point x="-249" y="659"/>
      <point x="-249" y="656" type="curve" smooth="yes"/>
      <point x="-249" y="651"/>
      <point x="-235" y="646"/>
      <point x="-207" y="640" type="curve" smooth="yes"/>
      <point x="-179" y="635"/>
      <point x="-151" y="633"/>
    </contour>
    <contour>
      <point x="124" y="739" type="curve" smooth="yes"/>
      <point x="105" y="739"/>
      <point x="87" y="740"/>
      <point x="69" y="744" type="curve"/>
      <point x="106" y="789"/>
      <point x="141" y="813"/>
      <point x="166" y="813" type="curve" smooth="yes"/>
      <point x="183" y="813"/>
      <point x="208" y="799"/>
      <point x="224" y="771" type="curve"/>
      <point x="190" y="749"/>
      <point x="157" y="739"/>
    </contour>
  </outline>
</glyph>
<glyph name="uni06D7" format="2">
  <unicode hex="06D7"/>
  <anchor x="0" y="623" name="_top"/>
  <anchor x="0" y="623" name="_top2"/>
  <anchor x="0" y="623" name="_top3"/>
  <anchor x="-94" y="973" name="top3"/>
  <outline>
    <contour>
      <point x="-50" y="633" type="curve" smooth="yes"/>
      <point x="-11" y="633"/>
      <point x="20" y="634"/>
      <point x="42" y="636" type="curve" smooth="yes"/>
      <point x="65" y="639"/>
      <point x="77" y="646"/>
      <point x="77" y="657" type="curve" smooth="yes"/>
      <point x="77" y="662"/>
      <point x="75" y="666"/>
      <point x="71" y="671" type="curve"/>
      <point x="42" y="665"/>
      <point x="3" y="662"/>
      <point x="-47" y="662" type="curve" smooth="yes"/>
      <point x="-90" y="662"/>
      <point x="-137" y="667"/>
      <point x="-158" y="673" type="curve"/>
      <point x="-142" y="683"/>
      <point x="-115" y="693"/>
      <point x="-77" y="705" type="curve" smooth="yes"/>
      <point x="-65" y="709"/>
      <point x="-39" y="715"/>
      <point x="0" y="723" type="curve"/>
      <point x="11" y="714"/>
      <point x="25" y="710"/>
      <point x="44" y="710" type="curve" smooth="yes"/>
      <point x="95" y="710"/>
      <point x="133" y="714"/>
      <point x="168" y="737" type="curve"/>
      <point x="178" y="755"/>
      <point x="182" y="768"/>
      <point x="182" y="775" type="curve" smooth="yes"/>
      <point x="182" y="833"/>
      <point x="156" y="884"/>
      <point x="115" y="884" type="curve" smooth="yes"/>
      <point x="90" y="884"/>
      <point x="68" y="851"/>
      <point x="68" y="811" type="curve" smooth="yes"/>
      <point x="68" y="787"/>
      <point x="83" y="767"/>
      <point x="105" y="767" type="curve" smooth="yes"/>
      <point x="124" y="767"/>
      <point x="146" y="776"/>
      <point x="159" y="788" type="curve"/>
      <point x="164" y="759" type="line"/>
      <point x="135" y="745"/>
      <point x="95" y="739"/>
      <point x="44" y="739" type="curve" smooth="yes"/>
      <point x="31" y="739"/>
      <point x="17" y="742"/>
      <point x="4" y="748" type="curve"/>
      <point x="0" y="963" type="line"/>
      <point x="-10" y="956"/>
      <point x="-18" y="949"/>
      <point x="-26" y="942" type="curve"/>
      <point x="-23" y="909"/>
      <point x="-21" y="876"/>
      <point x="-19" y="843" type="curve" smooth="yes"/>
      <point x="-17" y="810"/>
      <point x="-14" y="778"/>
      <point x="-11" y="748" type="curve"/>
      <point x="-98" y="732"/>
      <point x="-134" y="715"/>
      <point x="-166" y="687" type="curve"/>
      <point x="-169" y="683"/>
      <point x="-175" y="662"/>
      <point x="-175" y="656" type="curve" smooth="yes"/>
      <point x="-175" y="651"/>
      <point x="-162" y="646"/>
      <point x="-134" y="640" type="curve" smooth="yes"/>
      <point x="-107" y="635"/>
      <point x="-78" y="633"/>
    </contour>
    <contour>
      <point x="114" y="796" type="curve" smooth="yes"/>
      <point x="93" y="796"/>
      <point x="83" y="803"/>
      <point x="83" y="818" type="curve" smooth="yes"/>
      <point x="83" y="836"/>
      <point x="94" y="852"/>
      <point x="110" y="852" type="curve" smooth="yes"/>
      <point x="129" y="852"/>
      <point x="146" y="833"/>
      <point x="154" y="805" type="curve"/>
      <point x="139" y="799"/>
      <point x="126" y="796"/>
    </contour>
    <contour>
      <point x="77" y="902" type="curve"/>
      <point x="89" y="914"/>
      <point x="96" y="923"/>
      <point x="99" y="928" type="curve"/>
      <point x="76" y="950" type="line"/>
      <point x="52" y="926" type="line"/>
      <point x="57" y="919"/>
      <point x="65" y="911"/>
    </contour>
    <contour>
      <point x="133" y="908" type="curve"/>
      <point x="144" y="917"/>
      <point x="151" y="926"/>
      <point x="156" y="933" type="curve"/>
      <point x="133" y="956" type="line"/>
      <point x="108" y="930" type="line"/>
      <point x="117" y="921"/>
      <point x="125" y="914"/>
    </contour>
  </outline>
</glyph>
<glyph name="uni06D8" format="2">
  <unicode hex="06D8"/>
  <anchor x="-1" y="584" name="_top"/>
  <anchor x="-1" y="584" name="_top2"/>
  <anchor x="-1" y="584" name="_top3"/>
  <anchor x="-9" y="746" name="top3"/>
  <outline>
    <contour>
      <point x="-160" y="542" type="curve" smooth="yes"/>
      <point x="-104" y="542"/>
      <point x="-61" y="574"/>
      <point x="-33" y="615" type="curve"/>
      <point x="-10" y="602"/>
      <point x="23" y="594"/>
      <point x="51" y="594" type="curve"/>
      <point x="62" y="602"/>
      <point x="70" y="613"/>
      <point x="70" y="633" type="curve" smooth="yes"/>
      <point x="70" y="671"/>
      <point x="49" y="721"/>
      <point x="24" y="721" type="curve" smooth="yes"/>
      <point x="-7" y="721"/>
      <point x="-19" y="683"/>
      <point x="-36" y="655" type="curve" smooth="yes"/>
      <point x="-73" y="593"/>
      <point x="-120" y="555"/>
      <point x="-194" y="555" type="curve"/>
      <point x="-194" y="546" type="line"/>
      <point x="-182" y="544"/>
      <point x="-170" y="542"/>
    </contour>
    <contour>
      <point x="43" y="622" type="curve"/>
      <point x="20" y="624"/>
      <point x="2" y="630"/>
      <point x="-19" y="641" type="curve"/>
      <point x="-11" y="656"/>
      <point x="-4" y="668"/>
      <point x="1" y="676" type="curve" smooth="yes"/>
      <point x="6" y="684"/>
      <point x="12" y="688"/>
      <point x="18" y="688" type="curve" smooth="yes"/>
      <point x="30" y="688"/>
      <point x="42" y="649"/>
    </contour>
  </outline>
</glyph>
<glyph name="uni06D9" format="2">
  <unicode hex="06D9"/>
  <anchor x="0" y="599" name="_top"/>
  <anchor x="0" y="599" name="_top2"/>
  <anchor x="0" y="599" name="_top3"/>
  <anchor x="-38" y="888" name="top3"/>
  <outline>
    <contour>
      <point x="-64" y="609" type="line"/>
      <point x="-44" y="609" type="line" smooth="yes"/>
      <point x="-5" y="609"/>
      <point x="26" y="611"/>
      <point x="48" y="615" type="curve"/>
      <point x="52" y="617"/>
      <point x="60" y="634"/>
      <point x="60" y="641" type="curve" smooth="yes"/>
      <point x="60" y="646"/>
      <point x="50" y="665"/>
      <point x="31" y="697" type="curve"/>
      <point x="41" y="714"/>
      <point x="46" y="733"/>
      <point x="46" y="753" type="curve" smooth="yes"/>
      <point x="43" y="815" type="line"/>
      <point x="53" y="823" type="line"/>
      <point x="46" y="846"/>
      <point x="42" y="861"/>
      <point x="40" y="868" type="curve"/>
      <point x="23" y="865"/>
      <point x="14" y="857"/>
      <point x="14" y="844" type="curve"/>
      <point x="19" y="815" type="line" smooth="yes"/>
      <point x="24" y="780"/>
      <point x="27" y="757"/>
      <point x="27" y="745" type="curve" smooth="yes"/>
      <point x="27" y="735"/>
      <point x="25" y="724"/>
      <point x="20" y="715" type="curve" smooth="yes"/>
      <point x="20" y="713" type="line"/>
      <point x="-3" y="741"/>
      <point x="-50" y="785"/>
      <point x="-90" y="814" type="curve"/>
      <point x="-98" y="810"/>
      <point x="-103" y="802"/>
      <point x="-103" y="792" type="curve" smooth="yes"/>
      <point x="-102" y="783"/>
      <point x="-96" y="772"/>
      <point x="-84" y="760" type="curve"/>
      <point x="-71" y="761" type="line"/>
      <point x="-45" y="746"/>
      <point x="-18" y="724"/>
      <point x="9" y="695" type="curve"/>
      <point x="-2" y="680"/>
      <point x="-22" y="661"/>
      <point x="-51" y="638" type="curve"/>
      <point x="-60" y="638" type="line" smooth="yes"/>
      <point x="-62" y="638"/>
      <point x="-65" y="622"/>
      <point x="-65" y="614" type="curve"/>
    </contour>
    <contour>
      <point x="-21" y="638" type="line"/>
      <point x="-5" y="651"/>
      <point x="9" y="665"/>
      <point x="21" y="680" type="curve"/>
      <point x="31" y="667"/>
      <point x="39" y="655"/>
      <point x="44" y="645" type="curve"/>
      <point x="27" y="642"/>
      <point x="9" y="640"/>
      <point x="-10" y="639" type="curve" smooth="yes"/>
    </contour>
  </outline>
</glyph>
<glyph name="uni06DA" format="2">
  <unicode hex="06DA"/>
  <anchor x="0" y="519" name="_top"/>
  <anchor x="0" y="519" name="_top2"/>
  <anchor x="0" y="519" name="_top3"/>
  <anchor x="-7" y="813" name="top3"/>
  <outline>
    <contour>
      <point x="2" y="529" type="curve" smooth="yes"/>
      <point x="31" y="529"/>
      <point x="63" y="539"/>
      <point x="100" y="558" type="curve"/>
      <point x="95" y="571" type="line"/>
      <point x="64" y="564"/>
      <point x="33" y="560"/>
      <point x="3" y="560" type="curve" smooth="yes"/>
      <point x="-47" y="560"/>
      <point x="-83" y="586"/>
      <point x="-83" y="625" type="curve" smooth="yes"/>
      <point x="-83" y="643"/>
      <point x="-76" y="660"/>
      <point x="-63" y="676" type="curve" smooth="yes"/>
      <point x="-37" y="707"/>
      <point x="18" y="730"/>
      <point x="62" y="732" type="curve" smooth="yes"/>
      <point x="81" y="734" type="line"/>
      <point x="91" y="763" type="line"/>
      <point x="78" y="762" type="line"/>
      <point x="66" y="762" type="line" smooth="yes"/>
      <point x="51" y="762"/>
      <point x="29" y="766"/>
      <point x="1" y="775" type="curve" smooth="yes"/>
      <point x="-28" y="784"/>
      <point x="-49" y="788"/>
      <point x="-62" y="788" type="curve" smooth="yes"/>
      <point x="-89" y="788"/>
      <point x="-108" y="776"/>
      <point x="-108" y="757" type="curve" smooth="yes"/>
      <point x="-108" y="754"/>
      <point x="-106" y="749"/>
      <point x="-103" y="741" type="curve"/>
      <point x="-90" y="750"/>
      <point x="-81" y="757"/>
      <point x="-61" y="757" type="curve" smooth="yes"/>
      <point x="-54" y="757"/>
      <point x="-47" y="756"/>
      <point x="-39" y="753" type="curve" smooth="yes"/>
      <point x="-8" y="743" type="line"/>
      <point x="-58" y="724"/>
      <point x="-95" y="677"/>
      <point x="-95" y="625" type="curve" smooth="yes"/>
      <point x="-95" y="564"/>
      <point x="-59" y="529"/>
    </contour>
    <contour>
      <point x="1" y="597" type="curve"/>
      <point x="11" y="606"/>
      <point x="19" y="616"/>
      <point x="26" y="625" type="curve"/>
      <point x="19" y="630"/>
      <point x="11" y="638"/>
      <point x="1" y="649" type="curve"/>
      <point x="-25" y="622" type="line"/>
      <point x="-19" y="614"/>
      <point x="-10" y="606"/>
    </contour>
  </outline>
</glyph>
<glyph name="uni06DB" format="2">
  <unicode hex="06DB"/>
  <anchor x="0" y="418" name="_top"/>
  <anchor x="0" y="418" name="_top2"/>
  <anchor x="0" y="418" name="_top3"/>
  <anchor x="-1" y="610" name="top3"/>
  <outline>
    <contour>
      <point x="54" y="436" type="curve"/>
      <point x="67" y="448"/>
      <point x="80" y="463"/>
      <point x="93" y="481" type="curve"/>
      <point x="53" y="521" type="line"/>
      <point x="33" y="500" type="line"/>
      <point x="10" y="477" type="line"/>
      <point x="19" y="467"/>
      <point x="33" y="454"/>
    </contour>
    <contour>
      <point x="-51" y="427" type="curve"/>
      <point x="-37" y="440"/>
      <point x="-24" y="455"/>
      <point x="-12" y="472" type="curve"/>
      <point x="-52" y="511" type="line"/>
      <point x="-76" y="486"/>
      <point x="-90" y="472"/>
      <point x="-95" y="468" type="curve"/>
      <point x="-82" y="454"/>
      <point x="-68" y="440"/>
    </contour>
    <contour>
      <point x="0" y="510" type="curve"/>
      <point x="5" y="512"/>
      <point x="17" y="525"/>
      <point x="37" y="546" type="curve"/>
      <point x="20" y="560"/>
      <point x="7" y="574"/>
      <point x="-2" y="586" type="curve"/>
      <point x="-13" y="573"/>
      <point x="-26" y="560"/>
      <point x="-42" y="546" type="curve"/>
      <point x="-29" y="530"/>
      <point x="-15" y="518"/>
    </contour>
  </outline>
</glyph>
<glyph name="uni06DC" format="2">
  <unicode hex="06DC"/>
  <anchor x="75" y="566" name="_top"/>
  <anchor x="75" y="566" name="_top2"/>
  <anchor x="75" y="566" name="_top3"/>
  <anchor x="5" y="791" name="top3"/>
  <outline>
    <contour>
      <point x="-92" y="566" type="curve" smooth="yes"/>
      <point x="-37" y="566"/>
      <point x="16" y="610"/>
      <point x="16" y="658" type="curve" smooth="yes"/>
      <point x="16" y="672" type="line"/>
      <point x="18" y="672" type="line"/>
      <point x="29" y="672" type="line" smooth="yes"/>
      <point x="59" y="672"/>
      <point x="75" y="675"/>
      <point x="79" y="682" type="curve" smooth="yes"/>
      <point x="82" y="687" type="line"/>
      <point x="110" y="675"/>
      <point x="132" y="672"/>
      <point x="162" y="672" type="curve"/>
      <point x="167" y="683"/>
      <point x="176" y="707"/>
      <point x="176" y="718" type="curve" smooth="yes"/>
      <point x="176" y="729"/>
      <point x="174" y="742"/>
      <point x="171" y="756" type="curve" smooth="yes"/>
      <point x="167" y="770"/>
      <point x="164" y="785"/>
      <point x="162" y="800" type="curve"/>
      <point x="145" y="790"/>
      <point x="137" y="779"/>
      <point x="137" y="768" type="curve" smooth="yes"/>
      <point x="137" y="762"/>
      <point x="139" y="754"/>
      <point x="144" y="743" type="curve" smooth="yes"/>
      <point x="149" y="732"/>
      <point x="154" y="718"/>
      <point x="158" y="701" type="curve"/>
      <point x="131" y="701"/>
      <point x="118" y="704"/>
      <point x="92" y="716" type="curve"/>
      <point x="93" y="719" type="line" smooth="yes"/>
      <point x="99" y="740"/>
      <point x="104" y="755"/>
      <point x="108" y="763" type="curve"/>
      <point x="106" y="765"/>
      <point x="103" y="766"/>
      <point x="100" y="766" type="curve" smooth="yes"/>
      <point x="94" y="766"/>
      <point x="90" y="763"/>
      <point x="86" y="758" type="curve" smooth="yes"/>
      <point x="83" y="752"/>
      <point x="78" y="738"/>
      <point x="71" y="715" type="curve"/>
      <point x="66" y="704" type="line"/>
      <point x="59" y="702"/>
      <point x="48" y="700"/>
      <point x="34" y="700" type="curve" smooth="yes"/>
      <point x="25" y="700"/>
      <point x="17" y="702"/>
      <point x="10" y="704" type="curve"/>
      <point x="7" y="718"/>
      <point x="4" y="733"/>
      <point x="1" y="750" type="curve"/>
      <point x="-12" y="742"/>
      <point x="-23" y="733"/>
      <point x="-23" y="717" type="curve" smooth="yes"/>
      <point x="-23" y="703"/>
      <point x="-15" y="679"/>
      <point x="1" y="644" type="curve"/>
      <point x="-12" y="617"/>
      <point x="-53" y="597"/>
      <point x="-91" y="597" type="curve" smooth="yes"/>
      <point x="-122" y="597"/>
      <point x="-144" y="616"/>
      <point x="-144" y="656" type="curve" smooth="yes"/>
      <point x="-144" y="662"/>
      <point x="-142" y="671"/>
      <point x="-139" y="682" type="curve"/>
      <point x="-153" y="685" type="line"/>
      <point x="-158" y="668"/>
      <point x="-160" y="651"/>
      <point x="-160" y="636" type="curve" smooth="yes"/>
      <point x="-160" y="595"/>
      <point x="-139" y="566"/>
    </contour>
  </outline>
</glyph>
<glyph name="uni06DE" format="2">
  <advance width="921"/>
  <unicode hex="06DE"/>
  <outline>
    <contour>
      <point x="460" y="-45" type="line"/>
      <point x="590" y="84" type="line"/>
      <point x="773" y="84" type="line"/>
      <point x="773" y="265" type="line"/>
      <point x="901" y="395" type="line"/>
      <point x="773" y="524" type="line"/>
      <point x="773" y="706" type="line"/>
      <point x="590" y="706" type="line"/>
      <point x="460" y="835" type="line"/>
      <point x="333" y="706" type="line"/>
      <point x="149" y="706" type="line"/>
      <point x="149" y="524" type="line"/>
      <point x="21" y="395" type="line"/>
      <point x="149" y="265" type="line"/>
      <point x="149" y="84" type="line"/>
      <point x="333" y="84" type="line"/>
    </contour>
    <contour>
      <point x="181" y="115" type="line"/>
      <point x="181" y="235" type="line"/>
      <point x="301" y="115" type="line"/>
    </contour>
    <contour>
      <point x="460" y="-1" type="line"/>
      <point x="375" y="84" type="line"/>
      <point x="546" y="84" type="line"/>
    </contour>
    <contour>
      <point x="149" y="310" type="line"/>
      <point x="65" y="395" type="line"/>
      <point x="149" y="480" type="line"/>
    </contour>
    <contour>
      <point x="181" y="555" type="line"/>
      <point x="181" y="674" type="line"/>
      <point x="301" y="674" type="line"/>
    </contour>
    <contour>
      <point x="621" y="115" type="line"/>
      <point x="741" y="235" type="line"/>
      <point x="741" y="115" type="line"/>
    </contour>
    <contour>
      <point x="345" y="115" type="line"/>
      <point x="181" y="279" type="line"/>
      <point x="181" y="511" type="line"/>
      <point x="345" y="674" type="line"/>
      <point x="577" y="674" type="line"/>
      <point x="741" y="511" type="line"/>
      <point x="741" y="279" type="line"/>
      <point x="577" y="115" type="line"/>
    </contour>
    <contour>
      <point x="460" y="304" type="curve" smooth="yes"/>
      <point x="511" y="304"/>
      <point x="551" y="345"/>
      <point x="551" y="395" type="curve" smooth="yes"/>
      <point x="551" y="445"/>
      <point x="511" y="485"/>
      <point x="460" y="485" type="curve" smooth="yes"/>
      <point x="412" y="485"/>
      <point x="371" y="445"/>
      <point x="371" y="395" type="curve" smooth="yes"/>
      <point x="371" y="345"/>
      <point x="412" y="304"/>
    </contour>
    <contour>
      <point x="460" y="335" type="curve" smooth="yes"/>
      <point x="428" y="335"/>
      <point x="402" y="362"/>
      <point x="402" y="395" type="curve" smooth="yes"/>
      <point x="402" y="428"/>
      <point x="428" y="454"/>
      <point x="460" y="454" type="curve" smooth="yes"/>
      <point x="494" y="454"/>
      <point x="520" y="428"/>
      <point x="520" y="395" type="curve" smooth="yes"/>
      <point x="520" y="362"/>
      <point x="494" y="335"/>
    </contour>
    <contour>
      <point x="375" y="706" type="line"/>
      <point x="460" y="792" type="line"/>
      <point x="546" y="706" type="line"/>
    </contour>
    <contour>
      <point x="773" y="310" type="line"/>
      <point x="773" y="480" type="line"/>
      <point x="856" y="395" type="line"/>
    </contour>
    <contour>
      <point x="741" y="555" type="line"/>
      <point x="621" y="674" type="line"/>
      <point x="741" y="674" type="line"/>
    </contour>
  </outline>
</glyph>
<glyph name="uni06DF" format="2">
  <unicode hex="06DF"/>
  <anchor x="0" y="586" name="_top"/>
  <anchor x="0" y="586" name="_top2"/>
  <anchor x="0" y="586" name="_top3"/>
  <anchor x="0" y="726" name="top3"/>
  <outline>
    <contour>
      <point x="0" y="596" type="curve" smooth="yes"/>
      <point x="32" y="596"/>
      <point x="54" y="616"/>
      <point x="54" y="654" type="curve" smooth="yes"/>
      <point x="54" y="691"/>
      <point x="32" y="711"/>
      <point x="0" y="711" type="curve" smooth="yes"/>
      <point x="-30" y="711"/>
      <point x="-54" y="694"/>
      <point x="-54" y="654" type="curve" smooth="yes"/>
      <point x="-54" y="613"/>
      <point x="-30" y="596"/>
    </contour>
    <contour>
      <point x="0" y="622" type="curve" smooth="yes"/>
      <point x="-20" y="622"/>
      <point x="-30" y="632"/>
      <point x="-30" y="654" type="curve" smooth="yes"/>
      <point x="-30" y="675"/>
      <point x="-20" y="685"/>
      <point x="0" y="685" type="curve" smooth="yes"/>
      <point x="16" y="685"/>
      <point x="30" y="676"/>
      <point x="30" y="654" type="curve" smooth="yes"/>
      <point x="30" y="631"/>
      <point x="16" y="622"/>
    </contour>
  </outline>
</glyph>
<glyph name="uni06E0" format="2">
  <unicode hex="06E0"/>
  <anchor x="0" y="547" name="_top"/>
  <anchor x="0" y="547" name="_top2"/>
  <anchor x="0" y="547" name="_top3"/>
  <anchor x="0" y="726" name="top3"/>
  <outline>
    <contour>
      <point x="0" y="557" type="curve" smooth="yes"/>
      <point x="36" y="557"/>
      <point x="54" y="583"/>
      <point x="54" y="634" type="curve" smooth="yes"/>
      <point x="54" y="685"/>
      <point x="36" y="711"/>
      <point x="0" y="711" type="curve" smooth="yes"/>
      <point x="-36" y="711"/>
      <point x="-54" y="685"/>
      <point x="-54" y="634" type="curve" smooth="yes"/>
      <point x="-54" y="583"/>
      <point x="-36" y="557"/>
    </contour>
    <contour>
      <point x="0" y="583" type="curve" smooth="yes"/>
      <point x="-21" y="583"/>
      <point x="-30" y="598"/>
      <point x="-30" y="634" type="curve" smooth="yes"/>
      <point x="-30" y="670"/>
      <point x="-21" y="685"/>
      <point x="0" y="685" type="curve" smooth="yes"/>
      <point x="21" y="685"/>
      <point x="30" y="670"/>
      <point x="30" y="634" type="curve" smooth="yes"/>
      <point x="30" y="598"/>
      <point x="21" y="583"/>
    </contour>
  </outline>
</glyph>
<glyph name="uni06E1" format="2">
  <unicode hex="06E1"/>
  <anchor x="0" y="586" name="_top"/>
  <anchor x="0" y="586" name="_top2"/>
  <anchor x="0" y="586" name="_top3"/>
  <anchor x="0" y="748" name="top3"/>
  <outline>
    <contour>
      <point x="-53" y="595" type="line"/>
      <point x="-49" y="595" type="line" smooth="yes"/>
      <point x="25" y="595"/>
      <point x="64" y="643"/>
      <point x="84" y="708" type="curve"/>
      <point x="53" y="718"/>
      <point x="28" y="724"/>
      <point x="-6" y="724" type="curve" smooth="yes"/>
      <point x="-47" y="724"/>
      <point x="-64" y="706"/>
      <point x="-64" y="689" type="curve" smooth="yes"/>
      <point x="-64" y="681"/>
      <point x="-61" y="676"/>
      <point x="-59" y="673" type="curve"/>
      <point x="-49" y="684"/>
      <point x="-34" y="690"/>
      <point x="-11" y="690" type="curve" smooth="yes"/>
      <point x="9" y="690"/>
      <point x="29" y="689"/>
      <point x="47" y="685" type="curve"/>
      <point x="20" y="634"/>
      <point x="-15" y="619"/>
      <point x="-81" y="614" type="curve"/>
    </contour>
  </outline>
</glyph>
<glyph name="uni06E2" format="2">
  <unicode hex="06E2"/>
  <anchor x="15" y="547" name="_top"/>
  <anchor x="15" y="547" name="_top2"/>
  <anchor x="15" y="547" name="_top3"/>
  <anchor x="-7" y="784" name="top3"/>
  <outline>
    <contour>
      <point x="-58" y="526" type="curve"/>
      <point x="-47" y="534"/>
      <point x="-38" y="541"/>
      <point x="-33" y="547" type="curve"/>
      <point x="-35" y="564"/>
      <point x="-37" y="582"/>
      <point x="-41" y="603" type="curve" smooth="yes"/>
      <point x="-47" y="638" type="line"/>
      <point x="-12" y="651"/>
      <point x="13" y="653"/>
      <point x="53" y="653" type="curve"/>
      <point x="67" y="692" type="line"/>
      <point x="39" y="715"/>
      <point x="23" y="760"/>
      <point x="0" y="760" type="curve" smooth="yes"/>
      <point x="-21" y="760"/>
      <point x="-38" y="742"/>
      <point x="-52" y="708" type="curve"/>
      <point x="-40" y="702" type="line"/>
      <point x="-28" y="718"/>
      <point x="-18" y="726"/>
      <point x="-9" y="726" type="curve" smooth="yes"/>
      <point x="-5" y="726"/>
      <point x="-1" y="724"/>
      <point x="4" y="719" type="curve" smooth="yes"/>
      <point x="8" y="715"/>
      <point x="15" y="706"/>
      <point x="24" y="693" type="curve"/>
      <point x="32" y="684" type="line"/>
      <point x="-8" y="682"/>
      <point x="-9" y="682"/>
      <point x="-51" y="671" type="curve"/>
      <point x="-59" y="651"/>
      <point x="-63" y="638"/>
      <point x="-63" y="633" type="curve" smooth="yes"/>
      <point x="-63" y="622"/>
      <point x="-63" y="608"/>
      <point x="-61" y="591" type="curve" smooth="yes"/>
      <point x="-59" y="574"/>
      <point x="-58" y="552"/>
    </contour>
  </outline>
</glyph>
<glyph name="uni06E3" format="2">
  <unicode hex="06E3"/>
  <anchor x="0" y="101" name="_bottom"/>
  <anchor x="0" y="101" name="_bottom2"/>
  <anchor x="0" y="101" name="_bottom3"/>
  <anchor x="75" y="-114" name="bottom3"/>
  <outline>
    <contour>
      <point x="-92" y="-114" type="curve" smooth="yes"/>
      <point x="-38" y="-114"/>
      <point x="16" y="-71"/>
      <point x="16" y="-22" type="curve" smooth="yes"/>
      <point x="16" y="-8" type="line"/>
      <point x="29" y="-9" type="line" smooth="yes"/>
      <point x="42" y="-9"/>
      <point x="53" y="-8"/>
      <point x="62" y="-6" type="curve" smooth="yes"/>
      <point x="71" y="-4"/>
      <point x="77" y="-1"/>
      <point x="79" y="2" type="curve" smooth="yes"/>
      <point x="82" y="8" type="line"/>
      <point x="114" y="-6"/>
      <point x="133" y="-9"/>
      <point x="162" y="-9" type="curve"/>
      <point x="166" y="1"/>
      <point x="176" y="27"/>
      <point x="176" y="38" type="curve" smooth="yes"/>
      <point x="176" y="50"/>
      <point x="174" y="62"/>
      <point x="171" y="76" type="curve" smooth="yes"/>
      <point x="167" y="90"/>
      <point x="164" y="105"/>
      <point x="162" y="119" type="curve"/>
      <point x="145" y="110"/>
      <point x="137" y="99"/>
      <point x="137" y="88" type="curve" smooth="yes"/>
      <point x="137" y="82"/>
      <point x="139" y="74"/>
      <point x="144" y="63" type="curve" smooth="yes"/>
      <point x="149" y="52"/>
      <point x="154" y="38"/>
      <point x="158" y="21" type="curve"/>
      <point x="135" y="21"/>
      <point x="113" y="26"/>
      <point x="92" y="36" type="curve"/>
      <point x="97" y="54"/>
      <point x="102" y="70"/>
      <point x="108" y="84" type="curve"/>
      <point x="106" y="85"/>
      <point x="103" y="86"/>
      <point x="100" y="86" type="curve" smooth="yes"/>
      <point x="94" y="86"/>
      <point x="89" y="83"/>
      <point x="85" y="77" type="curve" smooth="yes"/>
      <point x="82" y="70"/>
      <point x="77" y="56"/>
      <point x="71" y="35" type="curve"/>
      <point x="66" y="24" type="line"/>
      <point x="59" y="22"/>
      <point x="48" y="20"/>
      <point x="34" y="20" type="curve" smooth="yes"/>
      <point x="27" y="20"/>
      <point x="19" y="21"/>
      <point x="10" y="24" type="curve"/>
      <point x="7" y="37"/>
      <point x="4" y="53"/>
      <point x="1" y="70" type="curve"/>
      <point x="-15" y="60"/>
      <point x="-23" y="49"/>
      <point x="-23" y="36" type="curve" smooth="yes"/>
      <point x="-23" y="23"/>
      <point x="-15" y="-1"/>
      <point x="1" y="-35" type="curve"/>
      <point x="-11" y="-61"/>
      <point x="-52" y="-83"/>
      <point x="-91" y="-83" type="curve" smooth="yes"/>
      <point x="-122" y="-83"/>
      <point x="-144" y="-64"/>
      <point x="-144" y="-25" type="curve" smooth="yes"/>
      <point x="-144" y="-18"/>
      <point x="-142" y="-9"/>
      <point x="-139" y="2" type="curve"/>
      <point x="-153" y="5" type="line"/>
      <point x="-158" y="-14"/>
      <point x="-160" y="-30"/>
      <point x="-160" y="-44" type="curve" smooth="yes"/>
      <point x="-160" y="-89"/>
      <point x="-134" y="-114"/>
    </contour>
  </outline>
</glyph>
<glyph name="uni06E4" format="2">
  <unicode hex="06E4"/>
  <anchor x="0" y="609" name="_top"/>
  <anchor x="0" y="609" name="_top2"/>
  <anchor x="0" y="609" name="_top3"/>
  <anchor x="1" y="687" name="top3"/>
  <outline>
    <contour>
      <point x="-120" y="615" type="line"/>
      <point x="-61" y="647" type="line"/>
      <point x="-20" y="630"/>
      <point x="9" y="618"/>
      <point x="34" y="618" type="curve" smooth="yes"/>
      <point x="55" y="618"/>
      <point x="90" y="637"/>
      <point x="118" y="664" type="curve"/>
      <point x="111" y="675" type="line"/>
      <point x="89" y="659"/>
      <point x="69" y="647"/>
      <point x="35" y="647" type="curve" smooth="yes"/>
      <point x="22" y="647"/>
      <point x="4" y="651"/>
      <point x="-17" y="660" type="curve" smooth="yes"/>
      <point x="-39" y="668"/>
      <point x="-53" y="673"/>
      <point x="-58" y="673" type="curve" smooth="yes"/>
      <point x="-65" y="673"/>
      <point x="-110" y="642"/>
      <point x="-127" y="625" type="curve"/>
    </contour>
  </outline>
</glyph>
<glyph name="uni06E5" format="2">
  <advance width="205"/>
  <unicode hex="06E5"/>
  <anchor x="93" y="50" name="bottom"/>
  <anchor x="101" y="584" name="top"/>
  <outline>
    <contour>
      <point x="81" y="123" type="curve" smooth="yes"/>
      <point x="128" y="123"/>
      <point x="166" y="174"/>
      <point x="166" y="230" type="curve" smooth="yes"/>
      <point x="166" y="281"/>
      <point x="138" y="328"/>
      <point x="102" y="328" type="curve" smooth="yes"/>
      <point x="73" y="328"/>
      <point x="47" y="292"/>
      <point x="47" y="248" type="curve" smooth="yes"/>
      <point x="47" y="218"/>
      <point x="64" y="199"/>
      <point x="96" y="199" type="curve" smooth="yes"/>
      <point x="115" y="199"/>
      <point x="139" y="210"/>
      <point x="151" y="221" type="curve"/>
      <point x="151" y="218" type="line"/>
      <point x="137" y="174"/>
      <point x="110" y="152"/>
      <point x="72" y="152" type="curve" smooth="yes"/>
      <point x="56" y="152"/>
      <point x="41" y="155"/>
      <point x="27" y="160" type="curve"/>
      <point x="21" y="147" type="line"/>
      <point x="35" y="134"/>
      <point x="65" y="123"/>
    </contour>
    <contour>
      <point x="105" y="230" type="curve" smooth="yes"/>
      <point x="78" y="230"/>
      <point x="62" y="240"/>
      <point x="62" y="259" type="curve" smooth="yes"/>
      <point x="62" y="274"/>
      <point x="79" y="296"/>
      <point x="96" y="296" type="curve" smooth="yes"/>
      <point x="119" y="296"/>
      <point x="137" y="277"/>
      <point x="148" y="239" type="curve"/>
      <point x="135" y="233"/>
      <point x="121" y="230"/>
    </contour>
  </outline>
</glyph>
<glyph name="uni06E6" format="2">
  <advance width="344"/>
  <unicode hex="06E6"/>
  <anchor x="170" y="50" name="bottom"/>
  <anchor x="173" y="584" name="top"/>
  <outline>
    <contour>
      <point x="170" y="144" type="curve" smooth="yes"/>
      <point x="194" y="144"/>
      <point x="219" y="146"/>
      <point x="244" y="150" type="curve" smooth="yes"/>
      <point x="280" y="155"/>
      <point x="303" y="162"/>
      <point x="303" y="177" type="curve" smooth="yes"/>
      <point x="303" y="181"/>
      <point x="301" y="186"/>
      <point x="297" y="190" type="curve"/>
      <point x="264" y="180"/>
      <point x="212" y="173"/>
      <point x="175" y="173" type="curve" smooth="yes"/>
      <point x="124" y="173"/>
      <point x="86" y="178"/>
      <point x="61" y="188" type="curve"/>
      <point x="83" y="203"/>
      <point x="84" y="204"/>
      <point x="127" y="218" type="curve" smooth="yes"/>
      <point x="146" y="223"/>
      <point x="154" y="237"/>
      <point x="161" y="256" type="curve"/>
      <point x="149" y="262" type="line"/>
      <point x="144" y="251"/>
      <point x="134" y="244"/>
      <point x="120" y="239" type="curve" smooth="yes"/>
      <point x="86" y="227" type="line"/>
      <point x="74" y="221"/>
      <point x="64" y="214"/>
      <point x="55" y="206" type="curve"/>
      <point x="50" y="203"/>
      <point x="43" y="173"/>
      <point x="43" y="164" type="curve" smooth="yes"/>
      <point x="43" y="159"/>
      <point x="57" y="155"/>
      <point x="84" y="150" type="curve" smooth="yes"/>
      <point x="112" y="146"/>
      <point x="140" y="144"/>
    </contour>
  </outline>
</glyph>
<glyph name="uni06E7" format="2">
  <unicode hex="06E7"/>
  <anchor x="-6" y="582" name="_top"/>
  <anchor x="-6" y="582" name="_top2"/>
  <anchor x="-6" y="582" name="_top3"/>
  <anchor x="-3" y="735" name="top3"/>
  <outline>
    <contour>
      <point x="-6" y="592" type="curve" smooth="yes"/>
      <point x="46" y="592"/>
      <point x="125" y="601"/>
      <point x="125" y="625" type="curve" smooth="yes"/>
      <point x="125" y="629"/>
      <point x="124" y="633"/>
      <point x="120" y="638" type="curve"/>
      <point x="86" y="628"/>
      <point x="35" y="620"/>
      <point x="-1" y="620" type="curve" smooth="yes"/>
      <point x="-55" y="620"/>
      <point x="-93" y="626"/>
      <point x="-116" y="636" type="curve"/>
      <point x="-89" y="654"/>
      <point x="-90" y="653"/>
      <point x="-50" y="666" type="curve" smooth="yes"/>
      <point x="-31" y="671"/>
      <point x="-23" y="684"/>
      <point x="-16" y="703" type="curve"/>
      <point x="-28" y="710" type="line"/>
      <point x="-33" y="701"/>
      <point x="-39" y="695"/>
      <point x="-47" y="691" type="curve"/>
      <point x="-90" y="675" type="line"/>
      <point x="-104" y="669"/>
      <point x="-114" y="661"/>
      <point x="-122" y="654" type="curve"/>
      <point x="-127" y="650"/>
      <point x="-134" y="621"/>
      <point x="-134" y="612" type="curve" smooth="yes"/>
      <point x="-134" y="607"/>
      <point x="-120" y="603"/>
      <point x="-93" y="598" type="curve" smooth="yes"/>
      <point x="-65" y="594"/>
      <point x="-36" y="592"/>
    </contour>
  </outline>
</glyph>
